<svg id="Layer_1" data-name="Layer 1" xmlns="http://www.w3.org/2000/svg" viewBox="0 0 99.21 99.21"><defs><style>.cls-1{fill:none;stroke:#8d98ad;stroke-linecap:round;stroke-linejoin:round;stroke-width:3px;}.cls-2{fill:#8d98ad;}</style></defs><title>Achievement_d</title><path class="cls-1" d="M81,33.31,75.71,28l2.82-6.91L71.8,18.39V11.12H64.34l-2.9-6.88-6.7,2.83L49.61,1.93,44.33,7.2,37.42,4.39l-2.74,6.73H27.41v7.46l-6.87,2.9,2.82,6.69-5.14,5.14,5.28,5.28L20.69,45.5l6.72,2.74V55.5h7.47l2.89,6.88,6.7-2.82,5.14,5.13,5.27-5.27,6.91,2.81,2.74-6.73H71.8V48l6.87-2.89-2.82-6.7ZM49.61,51.85A18.54,18.54,0,1,1,68.15,33.31,18.55,18.55,0,0,1,49.61,51.85Z"/><polygon class="cls-1" points="32.55 55.55 17.69 89.95 30.05 85.34 35.18 97.09 49.61 64.69 44.47 59.56 37.77 62.38 34.88 55.5 32.55 55.55"/><polygon class="cls-1" points="49.61 64.69 63.77 97.28 68.73 85.07 81.52 89.88 65.81 55.59 64.53 55.5 61.79 62.23 54.88 59.42 49.61 64.69"/><path class="cls-2" d="M35.55,29.15l9.72-1.4,4.34-8.81,4.33,8.81,9.72,1.4-7,6.86,1.68,9.67-8.69-4.57-8.7,4.57L42.57,36Z"/></svg>