<svg viewBox="0 0 267.16 21.58" xmlns="http://www.w3.org/2000/svg"><g transform="translate(-126.06 -232.67)"><path d="m126.06 233h2.79l2 7.47 2.15-7.47h2.79l2.1 7.47 2-7.47h2.79l-3.24 10.26h-2.87l-2.16-7.3-2.15 7.3h-2.87z"/><path d="m145.43 233h2.79v10.26h-2.79z"/><path d="m152.32 233h6.9c2.91 0 3.62 1.74 3.62 3.12 0 2.18-1.15 3.48-3.4 3.48h-4.32v3.67h-2.79v-10.27zm2.79 4.72h3c.86 0 1.87 0 1.87-1.41s-.82-1.45-1.61-1.45h-3.25v2.86z"/><path d="m172.15 232.67c5.52 0 6.38 3.27 6.38 5.41s-.86 5.42-6.37 5.42-6.38-3.27-6.38-5.42.85-5.41 6.37-5.41zm0 8.87a3.46 3.46 0 1 0 -3.42-3.46 3.23 3.23 0 0 0 3.42 3.47z"/><path d="m144.61 249.11h1.14l1.13 3.89 1.25-3.89h1.1l1.26 3.89 1.15-3.89h1.1l-1.68 5h-1.14l-1.25-3.85-1.26 3.85h-1.14z"/><path d="m153.66 251.61c0-1.41.83-2.65 2.95-2.65s2.95 1.23 2.95 2.65-.83 2.65-2.95 2.65-2.95-1.26-2.95-2.65zm4.8 0a1.85 1.85 0 1 0 -1.85 1.86 1.73 1.73 0 0 0 1.85-1.86z"/><path d="m161.14 249.1h3.17c1.28 0 1.69.58 1.69 1.36a1.18 1.18 0 0 1 -.83 1.21c.6.13.73.64.73 1.35a2.1 2.1 0 0 0 .21 1.07h-1.11a1.69 1.69 0 0 1 -.13-.76c0-.72-.1-1.22-.87-1.22h-1.8v2h-1.05v-5zm2.87 2.25c.58 0 .9-.18.9-.74a.73.73 0 0 0 -.9-.72h-1.81v1.46h1.8z"/><path d="m167.73 249.1h1.05v4.18h3v.83h-4.1v-5z"/><path d="m173.19 249.1h2.7c2 0 2.45 1.12 2.45 2.55a2.18 2.18 0 0 1 -2.2 2.46h-3v-5zm1.05 4.23h1.48c.76 0 1.56-.25 1.56-1.71a1.46 1.46 0 0 0 -1.62-1.73h-1.42z"/><path d="m183.06 249.09h1.67v5h-1.67z"/><path d="m186.56 249.09h1.92l2.32 3.14v-3.14h1.61v5h-1.85l-2.4-3.17v3.17h-1.61v-5z"/><path d="m193.78 249.09h5.35v1.12h-1.84v3.89h-1.67v-3.89h-1.84z"/><path d="m200.47 249.09h5v1.08h-3.35v.91h3.14v1h-3.14v.92h3.35v1.08h-5v-5z"/><path d="m207.12 249.09h1.67v3.85h3.05v1.17h-4.72v-5z"/><path d="m213.24 249.09h1.67v3.85h3.09v1.17h-4.72v-5z"/><path d="m219.36 249.08h5v1.08h-3.36v.91h3.14v1h-3.14v.93h3.35v1.08h-5v-5z"/><path d="m232 252.16c-.2 1.08-.8 2.08-3.17 2.09-2.12 0-3.15-.93-3.15-2.66s1-2.66 3.15-2.66c1.53 0 2.79.35 3.16 2.08h-1.86a1.2 1.2 0 0 0 -1.29-1 1.32 1.32 0 0 0 -1.39 1.54 1.31 1.31 0 0 0 1.39 1.54 1.19 1.19 0 0 0 1.31-1h1.85z"/><path d="m233.08 249.08h5.35v1.12h-1.84v3.89h-1.67v-3.89h-1.84z"/><path d="m239.73 249.08h1.67v3a1.15 1.15 0 0 0 2.29 0v-3h1.67v3.24c0 1.38-1 1.92-2.81 1.92s-2.81-.54-2.82-1.92z"/><path d="m248.5 249.08h2l2.16 5h-1.79l-.3-.81h-2.19l-.3.81h-1.79zm1 1.26-.69 1.89h1.4z"/><path d="m253.94 249.07h1.67v3.85h3.05v1.17h-4.72v-5z"/><path d="m263.4 249.07h3.71a1.68 1.68 0 1 1 .08 3.34h-2.11v1.67h-1.68v-5zm1.67 2.3h1.49a.63.63 0 1 0 0-1.26h-1.49z"/><path d="m270.4 249.07h4c1.23 0 1.68.56 1.68 1.4a1.07 1.07 0 0 1 -.8 1.14.91.91 0 0 1 .6.9 2.78 2.78 0 0 0 .32 1.56h-1.83a2.05 2.05 0 0 1 -.1-.74c0-.79-.26-.93-.68-.93h-1.53v1.67h-1.66zm1.67 2.22h1.61a.55.55 0 1 0 0-1.09h-1.61z"/><path d="m280.72 248.91c1.77 0 3.26.58 3.27 2.66s-1.49 2.66-3.26 2.66-3.26-.58-3.26-2.66 1.53-2.66 3.25-2.66zm0 4.2a1.54 1.54 0 1 0 -1.5-1.54 1.37 1.37 0 0 0 1.5 1.54z"/><path d="m285.56 249.06h3.71a1.68 1.68 0 1 1 .08 3.34h-2.11v1.67h-1.67v-5zm1.67 2.3h1.49a.63.63 0 1 0 0-1.26h-1.49z"/><path d="m292.56 249.06h5v1.08h-3.35v.86h3.14v1h-3.14v1h3.35v1.08h-5v-5z"/><path d="m299.21 249.06h4c1.23 0 1.68.56 1.68 1.4a1.07 1.07 0 0 1 -.8 1.14.91.91 0 0 1 .6.9 2.78 2.78 0 0 0 .32 1.56h-1.83a2.05 2.05 0 0 1 -.1-.74c0-.79-.26-.93-.68-.93h-1.53v1.67h-1.67v-5zm1.67 2.22h1.61a.55.55 0 1 0 0-1.09h-1.61z"/><path d="m306.13 249.06h5.35v1.12h-1.84v3.89h-1.64v-3.89h-1.84v-1.12z"/><path d="m314.66 252.49-2.23-3.43h1.94l1.12 2.13 1.12-2.13h1.94l-2.22 3.43v1.58h-1.67z"/><path d="m322.72 251.56c0-1.41.83-2.65 2.95-2.65s2.95 1.23 2.95 2.65-.83 2.65-2.95 2.65-2.95-1.21-2.95-2.65zm4.8 0a1.85 1.85 0 1 0 -1.85 1.86 1.73 1.73 0 0 0 1.85-1.86z"/><path d="m330.2 249.05h3.17c1.28 0 1.69.58 1.69 1.36a1.18 1.18 0 0 1 -.83 1.21c.6.13.73.64.73 1.35a2.1 2.1 0 0 0 .21 1.07h-1.17a1.69 1.69 0 0 1 -.13-.76c0-.72-.1-1.22-.87-1.22h-1.79v2h-1.05v-5zm2.87 2.25c.58 0 .9-.18.9-.74a.73.73 0 0 0 -.9-.72h-1.82v1.46z"/><path d="m342.09 254.06h-.62l-.15-.65a2.48 2.48 0 0 1 -1.91.79c-2.12 0-2.95-1.23-2.95-2.65s.88-2.65 2.92-2.65c1.52 0 2.5.77 2.61 1.75h-1.14a1.43 1.43 0 0 0 -1.5-1 1.86 1.86 0 0 0 -.05 3.72 1.53 1.53 0 0 0 1.73-1.32h-1.42v-.79h2.47v2.75z"/><path d="m345.62 249h1.25l2.23 5h-1.17l-.53-1.24h-2.4l-.52 1.24h-1.14zm1.47 3-.86-2.11-.87 2.11z"/><path d="m350.4 249h1.21l3 3.76v-3.76h1v5h-1.19l-3-3.76v3.76h-1v-5z"/><path d="m357.48 249h1.05v5h-1.05z"/><path d="m359.92 253.29 3.45-3.46h-3.21v-.83h4.6v.77l-3.42 3.42h3.44v.83h-4.86v-.76z"/><path d="m368.08 249h1.25l2.23 5h-1.16l-.53-1.24h-2.36l-.51 1.29h-1.14zm1.47 3-.86-2.11-.86 2.11h1.73z"/><path d="m373.62 249.82h-1.88v-.82h4.81v.79h-1.88v4.21h-1.05v-4.23z"/><path d="m377.88 249h1.05v5h-1.05z"/><path d="m380.52 251.54c0-1.41.83-2.65 2.95-2.65s2.95 1.23 2.95 2.65-.83 2.65-2.95 2.65-2.95-1.19-2.95-2.65zm4.8 0a1.85 1.85 0 1 0 -1.85 1.86 1.73 1.73 0 0 0 1.85-1.86z"/><path d="m388 249h1.21l3 3.76v-3.76h1v5h-1.21l-3-3.76v3.76h-1z"/></g></svg>