<?xml version="1.0" encoding="utf-8"?>
<!-- Generator: Adobe Illustrator 19.2.1, SVG Export Plug-In . SVG Version: 6.00 Build 0)  -->
<svg version="1.1" id="Calque_1" xmlns="http://www.w3.org/2000/svg" xmlns:xlink="http://www.w3.org/1999/xlink" x="0px" y="0px"
	 viewBox="0 0 202.7 24" style="enable-background:new 0 0 202.7 24;" xml:space="preserve">
<style type="text/css">
	.st0{stroke:#000000;stroke-width:0.3;}
</style>
<title>logo__wipo-picture-mark--ar</title>
<path d="M0,0.3h2.8l2,7.5l0,0l2.1-7.5h2.8l2.1,7.5l0,0l2-7.5h2.8l-3.2,10.3h-2.9L8.3,3.3l0,0l-2.1,7.3H3.3L0,0.3z"/>
<path d="M19.4,0.3h2.8v10.3h-2.8V0.3z"/>
<path d="M26.3,0.3h6.9c2.9,0,3.6,1.7,3.6,3.1c0,2.2-1.1,3.5-3.4,3.5h-4.3v3.7h-2.8V0.3z M29.1,5h3c0.9,0,1.9,0,1.9-1.4
	s-0.8-1.5-1.6-1.5h-3.2L29.1,5L29.1,5z"/>
<path d="M46.1,0c5.5,0,6.4,3.3,6.4,5.4s-0.9,5.4-6.4,5.4s-6.4-3.3-6.4-5.4S40.6,0,46.1,0z M46.1,8.9c1.9,0,3.5-1.5,3.5-3.4
	S48.1,2,46.2,2s-3.5,1.5-3.5,3.4c0,0,0,0,0,0c-0.1,1.8,1.2,3.3,3,3.5C45.8,8.9,45.9,8.9,46.1,8.9L46.1,8.9z"/>
<path class="st0" d="M58.2,19.7c0.1,0.4-0.1,0.7-0.5,0.8c0,0-0.1,0-0.1,0h-5.3c0.1-0.4,0.1-0.8,0.1-1.2v-2.5h-1.7
	c-0.8-0.1-1.6,0.4-1.7,1.3c0,0.1,0,0.2,0,0.3v2.2h-6c0.1-0.3,0.1-0.7,0.1-1v-1.4c0-0.8-0.7-1.4-1.5-1.3c0,0-0.1,0-0.1,0h-1.4
	c-0.1-0.3,0-0.7,0.2-0.9c0.2-0.1,0.5-0.1,0.7-0.1h1.4v-0.9h-1.6c-0.8-0.1-1.5,0.4-1.6,1.2c0,0.1,0,0.3,0,0.4v1.2h2.2
	c0.5,0,0.8,0,0.8,0.8V20c0,0.3-0.2,0.5-0.5,0.5h-7.5v-3.7h-0.9v4.8c0.1,0.7-0.4,1.4-1.1,1.5l0.6,0.8c0.9-0.2,1.5-1,1.4-1.9v-0.5
	h23.5c0.8,0,1.4-0.6,1.5-1.4c0-0.1,0-0.1,0-0.2v-4.9h-0.9L58.2,19.7L58.2,19.7z M51.4,20c0.1,0.2-0.1,0.5-0.3,0.5c0,0,0,0,0,0h-1.2
	v-2.2c-0.1-0.3,0.1-0.5,0.4-0.6c0.1,0,0.1,0,0.2,0h1V20L51.4,20z"/>
<polygon class="st0" points="62.4,21.9 63.3,21.4 63.3,14.9 62.4,14.9 "/>
<path class="st0" d="M28.3,21.4c0.8,0.2,1.6-0.4,1.7-1.2c0-0.2,0-0.3,0-0.5v-3h-0.9v3c0.1,0.3-0.2,0.7-0.5,0.7c0,0-0.1,0-0.2,0h-5.5
	v-3.7h-1.7c-0.8-0.1-1.6,0.5-1.7,1.3c0,0.1,0,0.2,0,0.3v1.5c0,1.3,0.9,1.5,2,1.5l0.4-0.6l0,0v0.6L28.3,21.4L28.3,21.4z M21.1,20.5
	c-0.3,0-0.6-0.2-0.6-0.5c0-0.1,0-0.1,0-0.2v-1.7c0-0.3,0.2-0.5,0.4-0.5c0,0,0,0,0.1,0H22v2.8L21.1,20.5L21.1,20.5z"/>
<circle class="st0" cx="22.2" cy="15.4" r="0.5"/>
<circle class="st0" cx="20.8" cy="15.4" r="0.5"/>
<circle class="st0" cx="29.5" cy="23.3" r="0.5"/>
<circle class="st0" cx="28.2" cy="23.3" r="0.5"/>
<circle class="st0" cx="50.6" cy="15.4" r="0.5"/>
<circle class="st0" cx="69" cy="15.4" r="0.6"/>
<circle class="st0" cx="67.6" cy="15.4" r="0.6"/>
<circle class="st0" cx="76.1" cy="23.3" r="0.6"/>
<circle class="st0" cx="74.7" cy="23.3" r="0.6"/>
<path class="st0" d="M108.6,14.9v4.8c0.1,0.4-0.1,0.7-0.5,0.8c0,0-0.1,0-0.1,0h-4.6v-5.6h-0.9v5.6h-4.3v-2.4c-0.2-0.9-1.1-1.5-2-1.3
	c-0.7,0.1-1.2,0.7-1.3,1.3v2.4h-4.7v-5.6h-0.9v5.6h-5c0.1-0.3,0.1-0.7,0.1-1v-1.4c0-0.8-0.7-1.4-1.5-1.3c0,0-0.1,0-0.1,0h-1.4
	c-0.1-0.3,0-0.7,0.2-0.9c0.2-0.1,0.5-0.1,0.7-0.1h1.4v-0.9h-1.6c-0.8-0.1-1.5,0.4-1.6,1.2c0,0.1,0,0.2,0,0.4v1.2h2.2
	c0.5,0,0.8,0,0.8,0.8V20c0,0.3-0.2,0.4-0.5,0.5h-6.5v-3.7h-0.9v3.7h-5.7v-3.7h-1.7c-0.8-0.1-1.6,0.5-1.7,1.3c0,0.1,0,0.2,0,0.3v1.5
	c0,1.3,0.9,1.5,2,1.5l0.4-0.6l0,0v0.6h26c0.3,0.9,1.3,1.4,2.2,1.1c0.5-0.2,0.9-0.6,1.1-1.1h9.8c0.8,0,1.4-0.6,1.5-1.4
	c0-0.1,0-0.1,0-0.2v-4.9L108.6,14.9L108.6,14.9z M69,20.5h-0.9c-0.3,0-0.6-0.2-0.6-0.5c0-0.1,0-0.1,0-0.2v-1.7
	c0-0.3,0.2-0.5,0.4-0.5c0,0,0,0,0,0H69L69,20.5L69,20.5z M96.5,21.8c-0.9,0-0.8-0.5-0.8-1.3v-1.5c0-0.8-0.1-1.3,0.8-1.3
	s0.8,0.4,0.8,1.3v1.5C97.4,21.3,97.4,21.7,96.5,21.8L96.5,21.8z"/>
<path class="st0" d="M152.8,20.2c0,0.4-0.2,0.7-0.6,0.8c0,0-0.1,0-0.1,0h-4.7c-0.1,0-0.3,0-0.4-0.1l1.8-1.5c0.1-1.2-0.8-2.1-2-2.2
	c-0.1,0-0.1,0-0.2,0c-1.1-0.1-2.1,0.8-2.2,2c0,0.1,0,0.2,0,0.2c0.6,0.5,1.2,1,1.8,1.5c-0.1,0.1-0.3,0.1-0.4,0.1h-5.1
	c-0.4,0-0.7-0.3-0.7-0.7c0,0,0-0.1,0-0.1v-4.8h-0.5v4.8c-0.1,0.6,0.3,1.2,0.9,1.3c0.1,0,0.2,0,0.3,0h5.3c0.2,0,0.4-0.1,0.6-0.2
	c0.2,0.1,0.4,0.2,0.6,0.2h4.9c0.6,0.1,1.1-0.4,1.2-1c0-0.1,0-0.2,0-0.3v-4.8h-0.4L152.8,20.2L152.8,20.2z M146.6,20.5l-1.7-1.3
	c0.1-0.9,0.9-1.6,1.8-1.5c0.8,0.1,1.5,0.7,1.5,1.5L146.6,20.5z"/>
<polygon class="st0" points="202.1,15.4 202.1,21.7 202.5,21.4 202.5,15.4 "/>
<polygon class="st0" points="156.9,21.7 157.4,21.4 157.4,15.4 156.9,15.4 "/>
<path class="st0" d="M135.6,20.2c0,0.4-0.2,0.7-0.6,0.8c0,0-0.1,0-0.1,0h-4.6v-2.5c0-0.7-0.7-1.3-1.4-1.3c0,0-0.1,0-0.1,0
	c-0.7-0.1-1.4,0.4-1.5,1.1c0,0.1,0,0.1,0,0.2V21h-5v-3.7h-0.5V21h-6.1v-3.7h-1.9c-0.7,0-1.2,0.5-1.2,1.1c0,0,0,0.1,0,0.1v1.7
	c0,0.7,0.5,1.2,1.1,1.3c0,0,0.1,0,0.1,0h1.1l0.3-0.2v0.2h12c0.2,0.9,1.1,1.3,2,1.1c0.5-0.2,1-0.6,1.1-1.1h4.7c0.6,0.1,1.1-0.4,1.2-1
	c0-0.1,0-0.2,0-0.3v-4.8h-0.4L135.6,20.2L135.6,20.2z M115.2,21h-1.4c-0.4,0-0.8-0.3-0.8-0.7c0-0.1,0-0.1,0-0.2v-1.4
	c-0.1-0.4,0.2-0.8,0.6-0.9c0.1,0,0.1,0,0.2,0h1.4V21L115.2,21z M129.8,21c0,0.6-0.5,1.1-1.1,1.1c-0.6,0-1.1-0.5-1.1-1.1v-2.2
	c0-0.6,0.5-1.1,1.1-1.1c0.6,0,1.1,0.5,1.1,1.1V21z"/>
<circle class="st0" cx="114.9" cy="15.7" r="0.3"/>
<circle class="st0" cx="113.9" cy="15.7" r="0.3"/>
<circle class="st0" cx="163.3" cy="15.7" r="0.3"/>
<circle class="st0" cx="162.2" cy="15.7" r="0.3"/>
<circle class="st0" cx="179.3" cy="15.7" r="0.3"/>
<circle class="st0" cx="185.4" cy="15.7" r="0.3"/>
<path class="st0" d="M198.1,20.2c0,0.4-0.2,0.7-0.6,0.8c0,0-0.1,0-0.1,0h-3.8v-2.5c0-0.7-0.7-1.3-1.4-1.3c-0.1,0-0.1,0-0.2,0
	c-0.7-0.1-1.4,0.4-1.5,1.1c0,0.1,0,0.1,0,0.2V21h-4.8v-3.7h-0.5V21h-4.5v-2.7c0-0.7-0.6-1.2-1.3-1.1c-0.1,0-0.2,0-0.3,0.1
	c-0.4,0.1-1.8,0.6-2.5,0.8c-0.1,0-0.2,0.1-0.2,0.1l0,0v-2.8h-0.5V21h-4.3v-2.5c0-0.7-0.7-1.3-1.4-1.3c0,0-0.1,0-0.1,0
	c-0.7-0.1-1.4,0.4-1.5,1.1c0,0.1,0,0.1,0,0.2V21h-4.5v-3.7h-1.9c-0.7,0-1.2,0.5-1.2,1.1c0,0,0,0.1,0,0.1v1.7c0,0.7,0.5,1.2,1.1,1.3
	c0,0,0,0,0.1,0h1.1l0.3-0.2v0.2h5c0.2,0.8,1.1,1.3,2,1.1c0.5-0.2,0.9-0.6,1.1-1.1h18.8c0.2,0.8,1.1,1.3,2,1.1
	c0.5-0.2,0.9-0.6,1.1-1.1h3.8c0.6,0.1,1.1-0.4,1.2-1c0-0.1,0-0.2,0-0.3v-4.8h-0.4L198.1,20.2L198.1,20.2z M163.6,21h-1.4
	c-0.4,0-0.8-0.3-0.8-0.7c0-0.1,0-0.1,0-0.2v-1.4c-0.1-0.4,0.2-0.8,0.6-0.9c0.1,0,0.1,0,0.2,0h1.4L163.6,21L163.6,21z M171.2,21
	c0,0.6-0.5,1.1-1.1,1.1c-0.6,0-1.1-0.5-1.1-1.1v-2.2c0-0.6,0.5-1.1,1.1-1.1c0.6,0,1.1,0.5,1.1,1.1V21z M180.2,21h-3.8v-1.9
	c0-0.3,0.1-0.5,0.4-0.6c0.3-0.1,2-0.7,2.3-0.8c0.4-0.2,0.8,0,1,0.4c0.1,0.1,0.1,0.3,0.1,0.4V21z M193,21c0,0.6-0.5,1.1-1.1,1.1
	c-0.6,0-1.1-0.5-1.1-1.1v-2.2c0-0.6,0.5-1.1,1.1-1.1c0.6,0,1.1,0.5,1.1,1.1V21z"/>
<circle class="st0" cx="121.5" cy="22.9" r="0.3"/>
<circle class="st0" cx="120.4" cy="22.9" r="0.3"/>
</svg>
