<?xml version="1.0" encoding="utf-8"?>
<!-- Generator: Adobe Illustrator 19.2.1, SVG Export Plug-In . SVG Version: 6.00 Build 0)  -->
<svg version="1.1" id="Calque_1" xmlns="http://www.w3.org/2000/svg" xmlns:xlink="http://www.w3.org/1999/xlink" x="0px" y="0px"
	 viewBox="0 0 122.9 24.8" style="enable-background:new 0 0 122.9 24.8;" xml:space="preserve">
<style type="text/css">
	.st0{stroke:#000000;stroke-width:0.3;}
</style>
<title>logo__wipo-word-mark--zh</title>
<path d="M0,0.3h2.8l2,7.5l0,0l2.1-7.5h2.8l2.1,7.5l0,0l2-7.5h2.8l-3.2,10.3h-2.9L8.3,3.3l0,0l-2.1,7.3H3.3L0,0.3z"/>
<path d="M19.4,0.3h2.8v10.3h-2.8V0.3z"/>
<path d="M26.3,0.3h6.9c2.9,0,3.6,1.7,3.6,3.1c0,2.2-1.1,3.5-3.4,3.5h-4.3v3.7h-2.8V0.3L26.3,0.3z M29.1,5h3C33,5,34,5,34,3.6
	s-0.8-1.5-1.6-1.5h-3.2L29.1,5L29.1,5z"/>
<path d="M46.1,0c5.5,0,6.4,3.3,6.4,5.4s-0.9,5.4-6.4,5.4s-6.4-3.3-6.4-5.4S40.6,0,46.1,0z M46.1,8.9c1.9,0,3.5-1.5,3.5-3.4
	S48.1,2,46.2,2s-3.5,1.5-3.5,3.4l0,0c-0.1,1.8,1.2,3.3,3,3.4C45.8,8.9,46,8.9,46.1,8.9L46.1,8.9z"/>
<path class="st0" d="M108.2,17h-3.6v6.2h-1.2v0.5h6.1v-0.5h-1.2V17H108.2z M107.7,23.2L107.7,23.2l-2.6,0.1v-1.7h2.6V23.2
	L107.7,23.2z M107.7,21L107.7,21h-2.6v-1.6h2.6V21L107.7,21z M107.7,19L107.7,19h-2.6v-1.5h2.6V19L107.7,19z"/>
<path class="st0" d="M121.8,17.3h-4.1v3.8h4.1V17.3L121.8,17.3z M121.3,20.6L121.3,20.6l-3.1,0.1v-2.9h3.1V20.6z"/>
<polygon class="st0" points="116.9,22.4 113.2,23.4 113.6,23.8 116.9,22.9 "/>
<path class="st0" d="M115.3,20c-0.6,0.6-1.2,1.2-1.9,1.8l0.3,0.5c1.3-0.2,3.2-0.6,3.2-0.6v-0.5c0,0-1.4,0.2-2.5,0.4
	c1-0.8,1.9-1.8,2.4-3l-0.4-0.2c-0.2,0.3-0.3,0.6-0.6,0.9l-0.1,0.1c-0.2,0-1,0.1-1.6,0.2c0.7-0.9,1.2-1.8,1.7-2.8l-0.5-0.2
	c-0.5,1.1-1.1,2.1-1.9,3l0.3,0.5C114.2,20.2,114.9,20.1,115.3,20z"/>
<path class="st0" d="M116.6,23.6l0.4,0.3c0.9-0.4,1.6-1,2.2-1.8l-0.4-0.2C118.3,22.6,117.5,23.3,116.6,23.6z"/>
<path class="st0" d="M120.6,21.8l-0.4,0.4c0.8,0.4,1.6,1,2.1,1.8l0.4-0.3C122.2,22.9,121.4,22.3,120.6,21.8z"/>
<polygon class="st0" points="103.8,22.1 100.1,23 100.4,23.5 103.8,22.6 "/>
<path class="st0" d="M101.8,19.9c-0.5,0.6-1.1,1.1-1.7,1.6l0.3,0.5c1.3-0.2,3.2-0.6,3.2-0.6v-0.5c0,0-1.4,0.2-2.5,0.5
	c1-0.8,1.9-1.8,2.4-3l-0.4-0.2c-0.2,0.3-0.3,0.6-0.6,0.9l-0.2,0.3c-0.3,0-0.9,0.1-1.5,0.2c0.7-0.9,1.2-1.8,1.7-2.8l-0.5-0.2
	c-0.5,1.1-1.1,2.1-1.9,3l0.3,0.5C100.9,20,101.4,19.9,101.8,19.9z"/>
<path class="st0" d="M25.4,16.4H25v2h-2.2v-2h-0.5v2h-1.9v-1.5h-0.5v1.5h-1.5v0.5h1.5v4.9h0.5v-0.6h6.7v-0.5h-6.7v-3.8h1.9v2.6h3.2
	v-2.6h2.2v-0.5h-2.2L25.4,16.4L25.4,16.4z M25,20.9L25,20.9L22.8,21v-2.1H25V20.9L25,20.9z"/>
<polygon class="st0" points="37.1,21 37.1,23.9 37.6,23.9 37.6,21 37.6,21 "/>
<path class="st0" d="M38.7,20.8c-0.4-0.2-0.7-0.5-1-0.8l-0.1-0.1h1.7v-3.3H33v3.3h1.8c-0.3,0.4-0.6,0.6-1,0.8
	c-0.7,0.3-1.5,0.6-2.3,0.7l0.4,0.4c0.7-0.1,1.5-0.4,2.2-0.7c0.6-0.2,1-0.7,1.3-1.2H37c0.4,0.6,0.9,1,1.5,1.3s1.3,0.5,2,0.7l0.4-0.4
	C40.1,21.4,39.3,21.2,38.7,20.8z M36.4,17h2.4v1h-2.4V17z M35.9,19.3L35.9,19.3l-2.4,0.1v-1h2.4V19.3L35.9,19.3z M35.9,17.9V18h-2.4
	v-1h2.4V17.9z M36.4,19.4v-1h2.4v1H36.4z"/>
<path class="st0" d="M34.3,22.7c-0.4,0.3-0.9,0.5-1.4,0.6c-0.2,0.1-0.5,0.1-0.7,0.1l0.3,0.4c0.8-0.1,1.5-0.4,2.1-0.8
	c0.5-0.5,0.8-1.3,0.8-2h-0.5C34.9,21.6,34.7,22.2,34.3,22.7z"/>
<path class="st0" d="M69.2,23.9L69.2,23.9l-0.9,0.5l0,0l0,0c-0.5-0.9-1.1-1.8-1.9-2.5l0,0l0,0l0.8-0.4l0,0
	C68,22.1,68.7,22.9,69.2,23.9L69.2,23.9L69.2,23.9z M64.9,21.7L64.9,21.7L64.9,21.7c-0.6,1.1-1.5,1.9-2.5,2.6l0,0l0,0l-0.8-0.6l0,0
	l0,0c1-0.6,1.8-1.4,2.4-2.4l0,0l0,0L64.9,21.7z M59.9,22.8L59.9,22.8c0.1-0.1,0.1-0.2,0.1-0.3l0,0v-2.9h-1.6v-0.8H61v3.5l1.6-0.8
	v0.9l-2.2,1L59.9,22.8L59.9,22.8L59.9,22.8z M63.1,20.8v-4.3h5v4.3H63.1z M64.1,20h3.1v-2.7h-3.1V20z M62,17.7L62,17.7l-0.9,0.5l0,0
	l0,0c-0.4-0.6-0.9-1.1-1.6-1.4l0,0h-0.1l0.8-0.5l0,0C61,16.6,61.6,17.1,62,17.7L62,17.7L62,17.7z"/>
<path class="st0" d="M75.4,18.2L75.4,18.2c0.6,0.3,1.1,0.7,1.5,1.2l0,0l0,0l0,0l-0.3,0.1h1.3c0.5-0.4,0.9-0.8,1.2-1.4l0,0l0,0
	l0.9,0.4l0,0c-0.2,0.4-0.5,0.7-0.8,1h3.1v0.8h-7.7v1.5c0,1.2-0.8,2.2-1.9,2.6l0,0L72,23.8l0,0h0.1c0.9-0.3,1.6-1.2,1.6-2.2l0,0v-2
	H76c-0.3-0.4-0.6-0.7-1-0.9l0,0h-0.1L75.4,18.2L75.4,18.2L75.4,18.2z M72.5,18v-0.8h4.7c-0.3-0.4-0.7-0.7-1.1-0.9l0,0H76l0.7-0.4
	l0,0c0.6,0.3,1.1,0.7,1.5,1.2l0,0l0,0l0,0L78,17.2h4.1V18H72.5z"/>
<path class="st0" d="M96.9,23.8L96.9,23.8l-0.7,0.6l0,0c-1.1-0.5-2.1-1.3-2.9-2.2l0,0c-0.9,0.9-2,1.6-3.2,2.1l0,0l-0.7-0.7h0.1
	c1.3-0.4,2.4-1.2,3.3-2.1l0,0c-0.8-1-1.4-2.2-1.8-3.4l0,0l-0.1-0.5h-1v-0.8h5.9v0.7c-0.4,1.4-1,2.8-1.9,4l0,0
	C94.7,22.6,95.8,23.3,96.9,23.8L96.9,23.8L96.9,23.8z M90.9,20.9L90.9,20.9L90,21.3l0,0c-0.2-0.5-0.6-0.9-1-1.2l0,0v4.2h-1v-3.6
	c-0.3,0.6-0.7,1.2-1.3,1.6l0,0L86,21.9l0,0c0.9-0.8,1.6-1.8,1.9-2.9h-1.4v-0.8H88V16h1v2.1h1.4V19H89v0.7l0.5-0.2l0,0
	C90.1,19.8,90.5,20.3,90.9,20.9L90.9,20.9L90.9,20.9z M93.3,20.9c0.7-1,1.2-2.1,1.4-3.2h-3C92.1,18.8,92.6,19.9,93.3,20.9L93.3,20.9
	L93.3,20.9z"/>
<path class="st0" d="M50.8,22.9c-0.7-0.6-1.5-1.2-2.4-1.5c0-0.1,0-0.1,0.1-0.2s0.1-0.4,0.1-0.6h2v-0.8h-2c0-0.4,0-0.8,0-1.1
	s0-0.4,0-0.5h1.8v-0.8h-3.3c0.2-0.4,0.3-0.8,0.3-1.2l0,0L46.3,16l0,0c-0.2,1.3-0.9,2.4-1.8,3.3l0.9,0.4c0.5-0.4,0.9-0.9,1.2-1.5h0.9
	c0,0.1,0,0.3,0,0.5s0,0.7,0,1.1h-2.6v0.8h2.6c0,0.1,0,0.3-0.1,0.4c-0.3,0.9-0.9,1.6-1.6,2.1c-0.3,0.2-0.7,0.4-1,0.6l-0.4,0.2
	l0.7,0.7c1.2-0.5,2.1-1.4,2.9-2.4c0.8,0.3,1.5,0.8,2.1,1.3l0,0L50.8,22.9L50.8,22.9z"/>
<path class="st0" d="M51.1,16.9v6.8h1V23h1.8v0.7h1v-6.8L51.1,16.9L51.1,16.9z M53.9,22.2h-1.8v-4.5h1.8V22.2z"/>
</svg>
