<?xml version="1.0" encoding="utf-8"?>
<!-- Generator: Adobe Illustrator 19.2.1, SVG Export Plug-In . SVG Version: 6.00 Build 0)  -->
<svg version="1.1" id="Calque_1" xmlns="http://www.w3.org/2000/svg" xmlns:xlink="http://www.w3.org/1999/xlink" x="0px" y="0px"
	 viewBox="0 0 304.1 21.6" style="enable-background:new 0 0 304.1 21.6;" xml:space="preserve">
<title>logo__wipo-word-mark--es</title>
<path d="M15,18.9c0-1.4,0.8-2.7,2.9-2.7s2.9,1.2,2.9,2.7s-0.8,2.7-2.9,2.7S15,20.3,15,18.9z M19.8,18.9c0-1-0.8-1.8-1.9-1.8
	s-1.8,0.8-1.8,1.9c0,1,0.8,1.8,1.8,1.8c1,0.1,1.8-0.6,1.9-1.6C19.9,19.1,19.9,19,19.8,18.9L19.8,18.9z"/>
<path d="M22.5,16.4h3.2c1.3,0,1.7,0.6,1.7,1.4c0,0.5-0.3,1-0.8,1.2l0,0c0.6,0.2,0.9,0.8,0.7,1.3c0,0.4,0,0.7,0.2,1.1h-1.1
	c-0.1-0.2-0.1-0.5-0.1-0.8c0-0.7-0.1-1.2-0.9-1.2h-1.8v2h-1L22.5,16.4L22.5,16.4z M25.4,18.7c0.6,0,0.9-0.2,0.9-0.7
	c0-0.4-0.3-0.7-0.7-0.7c-0.1,0-0.1,0-0.2,0h-1.8v1.4L25.4,18.7L25.4,18.7z"/>
<path d="M34.4,21.4h-0.6l-0.1-0.7c-0.5,0.5-1.2,0.8-1.9,0.8c-2.1,0-2.9-1.2-2.9-2.7s0.9-2.7,2.9-2.7c1.5,0,2.5,0.8,2.6,1.8h-1.1
	c-0.2-0.6-0.8-1.1-1.5-1c-1,0-1.9,0.8-1.9,1.8c0,1,0.8,1.9,1.8,1.9c0.8,0.1,1.6-0.5,1.7-1.3c0,0,0,0,0,0h-1.4v-0.8h2.5L34.4,21.4
	L34.4,21.4z"/>
<path d="M37.9,16.4h1.2l2.2,5h-1.2l-0.5-1.2h-2.4l-0.5,1.2h-1.1L37.9,16.4z M39.4,19.4l-0.9-2.1l-0.9,2.1H39.4z"/>
<path d="M42.7,16.4h1.2l3,3.8l0,0v-3.8h1v5h-1.2l-3-3.8l0,0v3.8h-1L42.7,16.4L42.7,16.4z"/>
<path d="M49.8,16.4h1.1v5h-1.1V16.4z"/>
<path d="M52.2,20.6l3.4-3.5h-3.2v-0.8h4.6v0.8l-3.4,3.4h3.4v0.8h-4.9V20.6z"/>
<path d="M60.4,16.4h1.2l2.2,5h-1.2l-0.5-1.2h-2.4l-0.5,1.2h-1.1L60.4,16.4z M61.9,19.4L61,17.3l-0.9,2.1H61.9z"/>
<path d="M69.1,18.2c-0.1-0.8-0.8-1.3-1.6-1.2c-1,0.1-1.8,1.1-1.6,2.1c0.1,0.9,0.8,1.6,1.7,1.6c0.8,0.1,1.5-0.5,1.5-1.3h1.1
	c-0.1,1-0.8,2.1-2.9,2.1c-1.5,0-2.7-1.1-2.7-2.6c0-1.5,1.1-2.7,2.6-2.7c0.1,0,0.2,0,0.3,0c1.7,0,2.6,0.9,2.7,2L69.1,18.2L69.1,18.2z
	"/>
<path d="M71.9,16.4h1.1v5h-1.1L71.9,16.4L71.9,16.4z"/>
<path d="M74.5,18.9c0-1.4,0.8-2.7,2.9-2.7s2.9,1.2,2.9,2.7s-0.8,2.7-2.9,2.7S74.5,20.3,74.5,18.9z M79.3,18.9c0-1-0.8-1.8-1.9-1.8
	s-1.8,0.8-1.8,1.9c0,1,0.8,1.8,1.8,1.8c1,0.1,1.8-0.6,1.9-1.6C79.3,19.1,79.3,19,79.3,18.9L79.3,18.9z M77.5,15.1h1.2l-1,1h-0.8
	L77.5,15.1z"/>
<path d="M82,16.4h1.2l3,3.8l0,0v-3.8h1v5H86l-3-3.8l0,0v3.8h-1L82,16.4L82,16.4z"/>
<path d="M92.1,16.4h1.5l1.8,3.9l1.7-3.9h1.5v5h-1v-4.1l0,0l-1.9,4.1h-0.8l-1.8-4.1l0,0v4.1h-1L92.1,16.4L92.1,16.4z"/>
<path d="M100.5,16.4h1.1v2.8c-0.1,0.8,0.5,1.5,1.2,1.6c0.8,0.1,1.5-0.5,1.6-1.2c0-0.1,0-0.2,0-0.3v-2.8h1.1v2.9c0,0.8,0,2.3-2.5,2.3
	s-2.4-1.5-2.4-2.3L100.5,16.4L100.5,16.4z"/>
<path d="M107.2,16.4h1.2l3,3.8l0,0v-3.8h1v5h-1.2l-3-3.8l0,0v3.8h-1L107.2,16.4L107.2,16.4z"/>
<path d="M114.3,16.4h2.7c2,0,2.4,1.1,2.4,2.6c0.2,1.2-0.7,2.3-1.9,2.4c-0.1,0-0.2,0-0.3,0h-3L114.3,16.4L114.3,16.4z M115.3,20.6
	h1.5c0.8,0,1.6-0.2,1.6-1.7c0.2-0.8-0.4-1.6-1.2-1.7c-0.2,0-0.3,0-0.5,0h-1.4V20.6z"/>
<path d="M121.1,16.4h1.1v5h-1.1V16.4z"/>
<path d="M125.6,16.4h1.3l2.2,5h-1.2l-0.5-1.2h-2.4l-0.5,1.2h-1.1L125.6,16.4z M127.1,19.4l-0.9-2.1l-0.9,2.1H127.1z"/>
<path d="M130.4,16.4h1v4.2h3v0.8h-4.1L130.4,16.4L130.4,16.4z"/>
<path d="M138.9,16.4h2.7c2,0,2.5,1.1,2.5,2.6c0.1,1.2-0.7,2.3-1.9,2.4c-0.1,0-0.2,0-0.3,0h-3L138.9,16.4L138.9,16.4z M140,20.6h1.5
	c0.8,0,1.6-0.2,1.6-1.7c0.2-0.8-0.4-1.6-1.2-1.7c-0.2,0-0.3,0-0.5,0H140V20.6L140,20.6z"/>
<path d="M145.8,16.4h4.4v0.8h-3.3v1.3h3.2v0.8h-3.2v1.4h3.4v0.8h-4.4L145.8,16.4L145.8,16.4z"/>
<path d="M154.9,16.4h1.1v4.2h3v0.8h-4.1L154.9,16.4L154.9,16.4z"/>
<path d="M162.2,16.4h1.2l2.2,5h-1.2l-0.5-1.2h-2.4l-0.5,1.2H160L162.2,16.4z M163.7,19.4l-0.9-2.1l-0.9,2.1H163.7L163.7,19.4z"/>
<path d="M170,16.4h3.7c0.9-0.1,1.8,0.5,1.9,1.4s-0.5,1.8-1.4,1.9c-0.1,0-0.2,0-0.4,0h-2.1v1.7H170V16.4L170,16.4z M171.7,18.7h1.5
	c0.3,0,0.6-0.3,0.6-0.6s-0.3-0.6-0.6-0.6h-1.5V18.7z"/>
<path d="M177,16.4h4c1.2,0,1.7,0.6,1.7,1.4c0.1,0.5-0.3,1-0.8,1.2l0,0c0.4,0.1,0.6,0.5,0.6,0.9c0,0.5,0.1,1.1,0.3,1.6H181
	c-0.1-0.2-0.1-0.5-0.1-0.7c0-0.8-0.3-0.9-0.7-0.9h-1.5v1.7H177V16.4L177,16.4z M178.7,18.6h1.6c0.3,0,0.6-0.2,0.6-0.5
	c0-0.3-0.2-0.6-0.5-0.6c0,0-0.1,0-0.1,0h-1.6V18.6L178.7,18.6z"/>
<path d="M187.4,16.2c1.8,0,3.3,0.6,3.3,2.7s-1.5,2.7-3.3,2.7s-3.3-0.6-3.3-2.7S185.6,16.2,187.4,16.2z M187.4,20.4
	c0.9,0,1.6-0.6,1.6-1.5c0-0.9-0.6-1.6-1.5-1.6c-0.9,0-1.6,0.6-1.6,1.5c0,0,0,0,0,0c-0.1,0.8,0.4,1.4,1.2,1.5
	C187.1,20.4,187.3,20.4,187.4,20.4L187.4,20.4z"/>
<path d="M192.2,16.4h3.7c0.9-0.1,1.8,0.5,1.9,1.4s-0.5,1.8-1.4,1.9c-0.1,0-0.2,0-0.4,0h-2.1v1.7h-1.7L192.2,16.4L192.2,16.4z
	 M193.9,18.7h1.5c0.3,0,0.6-0.3,0.6-0.6s-0.3-0.6-0.6-0.6h-1.5V18.7L193.9,18.7z"/>
<path d="M199.2,16.4h1.7v5h-1.7V16.4z"/>
<path d="M202.7,16.4h5v1.1h-3.4v0.9h3.1v1h-3.1v0.9h3.4v1.1h-5V16.4L202.7,16.4z"/>
<path d="M209.4,16.4h3.6c1.2-0.1,2.3,0.7,2.4,1.9c0,0.2,0,0.4,0,0.6c0,2-1.2,2.5-2.6,2.5h-3.4L209.4,16.4L209.4,16.4z M211,20.2h1.4
	c0.7,0,1.2-0.5,1.2-1.2c0-0.1,0-0.2,0-0.2c0.1-0.7-0.3-1.3-1-1.4c-0.1,0-0.2,0-0.4,0H211V20.2z"/>
<path d="M218.3,16.3h2l2.2,5h-1.8l-0.3-0.8h-2.2l-0.3,0.8h-1.8L218.3,16.3z M219.3,17.6L219.3,17.6l-0.7,1.9h1.4L219.3,17.6z"/>
<path d="M223.8,16.3h3.6c1.2-0.1,2.3,0.7,2.4,1.9c0,0.2,0,0.4,0,0.6c0,2-1.2,2.5-2.6,2.5h-3.4L223.8,16.3L223.8,16.3z M225.4,20.2
	h1.4c0.8-0.1,1.3-0.8,1.2-1.5c-0.1-0.7-0.7-1.2-1.3-1.2h-1.3V20.2z"/>
<path d="M234.7,16.3h1.7v5h-1.7V16.3z"/>
<path d="M238.2,16.3h1.9l2.3,3.1l0,0v-3.1h1.6v5h-1.9l-2.4-3.2l0,0v3.2h-1.6L238.2,16.3L238.2,16.3z"/>
<path d="M245.4,16.3h5.4v1.1h-1.8v3.9h-1.7v-3.9h-1.8V16.3z"/>
<path d="M252.1,16.3h5v1.1h-3.4v0.9h3.2v1h-3.1v0.9h3.4v1.1h-5L252.1,16.3L252.1,16.3z"/>
<path d="M258.7,16.3h1.7v3.8h3v1.2h-4.7V16.3L258.7,16.3z"/>
<path d="M264.9,16.3h5v1.1h-3.4v0.9h3.1v1h-3.1v0.9h3.4v1.1h-5V16.3L264.9,16.3z"/>
<path d="M277.5,19.4c-0.2,1.1-0.8,2.1-3.2,2.1c-2.1,0-3.1-0.9-3.1-2.7s1-2.7,3.1-2.7c1.5,0,2.8,0.3,3.2,2.1h-1.9
	c-0.1-0.6-0.7-1.1-1.3-1c-0.7,0-1.4,0.5-1.4,1.2c0,0.1,0,0.2,0,0.3c-0.1,0.7,0.3,1.4,1.1,1.5c0.1,0,0.2,0,0.3,0
	c0.6,0.1,1.2-0.4,1.3-1L277.5,19.4L277.5,19.4z"/>
<path d="M278.6,16.3h5.4v1.1h-1.8v3.9h-1.7v-3.9h-1.8L278.6,16.3L278.6,16.3z"/>
<path d="M285.2,16.3h1.7v3c0.1,0.6,0.6,1.1,1.3,1c0.6-0.1,1-0.5,1-1v-3h1.7v3.3c0,1.4-1,1.9-2.8,1.9s-2.8-0.5-2.8-1.9L285.2,16.3
	L285.2,16.3z"/>
<path d="M294,16.3h2l2.2,5h-1.8l-0.3-0.8h-2.1l-0.3,0.8h-1.8L294,16.3z M295,17.6L295,17.6l-0.7,1.9h1.4L295,17.6z"/>
<path d="M299.4,16.3h1.7v3.8h3v1.2h-4.7V16.3L299.4,16.3z"/>
<path d="M25.4,0.3h3.9v10.3h-2.6V2.3l0,0l-3.1,8.2h-2.2l-3.1-8.2l0,0v8.2h-2.6V0.3h3.9l2.9,7.4L25.4,0.3z"/>
<path d="M32.9,0.3h6.6C42.4,0.3,43,2,43,3.4c0,2.2-1.1,3.5-3.3,3.5h-4.1v3.7h-2.7V0.3z M35.6,5h2.9c0.8,0,1.8,0,1.8-1.4
	c0.1-0.7-0.3-1.3-1-1.5c-0.2,0-0.3,0-0.5,0h-3.1L35.6,5L35.6,5z"/>
<path d="M45.9,0.3h2.7v10.3h-2.7V0.3z"/>
<path d="M6.4,0c5.5,0,6.4,3.3,6.4,5.4s-0.9,5.4-6.4,5.4S0,7.6,0,5.4S0.9,0,6.4,0z M6.4,8.9c1.9,0,3.5-1.5,3.5-3.4S8.4,2,6.5,2
	S3,3.5,3,5.4c0,0,0,0,0,0C2.8,7.2,4.2,8.8,6,8.9C6.1,8.9,6.2,8.9,6.4,8.9z"/>
</svg>
