<svg id="Calque_1" data-name="Calque 1" xmlns="http://www.w3.org/2000/svg" viewBox="0 0 267.16 21.58"><title>header-logo-wipo</title><path d="M126.06,233h2.79l2,7.47h0L133,233h2.79l2.1,7.47h0l2-7.47h2.79l-3.24,10.26h-2.87l-2.16-7.3h0l-2.15,7.3h-2.87Z" transform="translate(-126.06 -232.67)"/><path d="M145.43,233h2.79v10.26h-2.79V233Z" transform="translate(-126.06 -232.67)"/><path d="M152.32,233h6.9c2.91,0,3.62,1.74,3.62,3.12,0,2.18-1.15,3.48-3.4,3.48h-4.32v3.67h-2.79V233Zm2.79,4.72h3c0.86,0,1.87,0,1.87-1.41s-0.82-1.45-1.61-1.45h-3.25v2.86Z" transform="translate(-126.06 -232.67)"/><path d="M172.15,232.67c5.52,0,6.38,3.27,6.38,5.41s-0.86,5.42-6.37,5.42-6.38-3.27-6.38-5.42S166.63,232.67,172.15,232.67Zm0,8.87a3.46,3.46,0,1,0-3.42-3.46A3.23,3.23,0,0,0,172.15,241.55Z" transform="translate(-126.06 -232.67)"/><path d="M144.61,249.11h1.14l1.13,3.89h0l1.25-3.89h1.1l1.26,3.89h0l1.15-3.89h1.1l-1.68,5h-1.14l-1.25-3.85h0l-1.26,3.85h-1.14Z" transform="translate(-126.06 -232.67)"/><path d="M153.66,251.61c0-1.41.83-2.65,2.95-2.65s2.95,1.23,2.95,2.65-0.83,2.65-2.95,2.65S153.66,253,153.66,251.61Zm4.8,0a1.85,1.85,0,1,0-1.85,1.86A1.73,1.73,0,0,0,158.46,251.61Z" transform="translate(-126.06 -232.67)"/><path d="M161.14,249.1h3.17c1.28,0,1.69.58,1.69,1.36a1.18,1.18,0,0,1-.83,1.21h0c0.6,0.13.73,0.64,0.73,1.35a2.1,2.1,0,0,0,.21,1.07H165a1.69,1.69,0,0,1-.13-0.76c0-.72-0.1-1.22-0.87-1.22H162.2v2h-1.05v-5Zm2.87,2.25c0.58,0,.9-0.18.9-0.74a0.73,0.73,0,0,0-.9-0.72H162.2v1.46H164Z" transform="translate(-126.06 -232.67)"/><path d="M167.73,249.1h1.05v4.18h3v0.83h-4.1v-5Z" transform="translate(-126.06 -232.67)"/><path d="M173.19,249.1h2.7c2,0,2.45,1.12,2.45,2.55a2.18,2.18,0,0,1-2.2,2.46h-3v-5Zm1.05,4.23h1.48c0.76,0,1.56-.25,1.56-1.71a1.46,1.46,0,0,0-1.62-1.73h-1.42v3.44Z" transform="translate(-126.06 -232.67)"/><path d="M183.06,249.09h1.67v5h-1.67v-5Z" transform="translate(-126.06 -232.67)"/><path d="M186.56,249.09h1.92l2.32,3.14h0v-3.14h1.61v5h-1.85l-2.4-3.17h0v3.17h-1.61v-5Z" transform="translate(-126.06 -232.67)"/><path d="M193.78,249.09h5.35v1.12h-1.84v3.89h-1.67v-3.89h-1.84v-1.12Z" transform="translate(-126.06 -232.67)"/><path d="M200.47,249.09h5v1.08h-3.35v0.91h3.14v1h-3.14V253h3.35v1.08h-5v-5Z" transform="translate(-126.06 -232.67)"/><path d="M207.12,249.09h1.67v3.85h3.05v1.17h-4.72v-5Z" transform="translate(-126.06 -232.67)"/><path d="M213.24,249.09h1.67v3.85H218v1.17h-4.72v-5Z" transform="translate(-126.06 -232.67)"/><path d="M219.36,249.08h5v1.08H221v0.91h3.14v1H221V253h3.35v1.08h-5v-5Z" transform="translate(-126.06 -232.67)"/><path d="M232,252.16c-0.2,1.08-.8,2.08-3.17,2.09-2.12,0-3.15-.93-3.15-2.66s1-2.66,3.15-2.66c1.53,0,2.79.35,3.16,2.08h-1.86a1.2,1.2,0,0,0-1.29-1,1.32,1.32,0,0,0-1.39,1.54,1.31,1.31,0,0,0,1.39,1.54,1.19,1.19,0,0,0,1.31-1H232Z" transform="translate(-126.06 -232.67)"/><path d="M233.08,249.08h5.35v1.12h-1.84v3.89h-1.67V250.2h-1.84v-1.12Z" transform="translate(-126.06 -232.67)"/><path d="M239.73,249.08h1.67v3a1.15,1.15,0,0,0,2.29,0v-3h1.67v3.24c0,1.38-1,1.92-2.81,1.92s-2.81-.54-2.82-1.92v-3.24Z" transform="translate(-126.06 -232.67)"/><path d="M248.5,249.08h2l2.16,5h-1.79l-0.3-.81h-2.19l-0.3.81h-1.79Zm1,1.26h0l-0.69,1.89h1.4Z" transform="translate(-126.06 -232.67)"/><path d="M253.94,249.07h1.67v3.85h3.05v1.17h-4.72v-5Z" transform="translate(-126.06 -232.67)"/><path d="M263.4,249.07h3.71a1.68,1.68,0,1,1,.08,3.34h-2.11v1.67H263.4v-5Zm1.67,2.3h1.49a0.63,0.63,0,1,0,0-1.26h-1.49v1.26Z" transform="translate(-126.06 -232.67)"/><path d="M270.4,249.07h4c1.23,0,1.68.56,1.68,1.4a1.07,1.07,0,0,1-.8,1.14h0a0.91,0.91,0,0,1,.6.9,2.78,2.78,0,0,0,.32,1.56h-1.83a2.05,2.05,0,0,1-.1-0.74c0-.79-0.26-0.93-0.68-0.93h-1.53v1.67H270.4v-5Zm1.67,2.22h1.61a0.55,0.55,0,1,0,0-1.09h-1.61v1.09Z" transform="translate(-126.06 -232.67)"/><path d="M280.72,248.91c1.77,0,3.26.58,3.27,2.66s-1.49,2.66-3.26,2.66-3.26-.58-3.26-2.66S279,248.91,280.72,248.91Zm0,4.2a1.54,1.54,0,1,0-1.5-1.54A1.37,1.37,0,0,0,280.72,253.11Z" transform="translate(-126.06 -232.67)"/><path d="M285.56,249.06h3.71a1.68,1.68,0,1,1,.08,3.34h-2.11v1.67h-1.67v-5Zm1.67,2.3h1.49a0.63,0.63,0,1,0,0-1.26h-1.49v1.26Z" transform="translate(-126.06 -232.67)"/><path d="M292.56,249.06h5v1.08h-3.35V251h3.14v1h-3.14V253h3.35v1.08h-5v-5Z" transform="translate(-126.06 -232.67)"/><path d="M299.21,249.06h4c1.23,0,1.68.56,1.68,1.4a1.07,1.07,0,0,1-.8,1.14h0a0.91,0.91,0,0,1,.6.9,2.78,2.78,0,0,0,.32,1.56h-1.83a2.05,2.05,0,0,1-.1-0.74c0-.79-0.26-0.93-0.68-0.93h-1.53v1.67h-1.67v-5Zm1.67,2.22h1.61a0.55,0.55,0,1,0,0-1.09h-1.61v1.09Z" transform="translate(-126.06 -232.67)"/><path d="M306.13,249.06h5.35v1.12h-1.84v3.89H308v-3.89h-1.84v-1.12Z" transform="translate(-126.06 -232.67)"/><path d="M314.66,252.49l-2.23-3.43h1.94l1.12,2.13,1.12-2.13h1.94l-2.22,3.43v1.58h-1.67v-1.58Z" transform="translate(-126.06 -232.67)"/><path d="M322.72,251.56c0-1.41.83-2.65,2.95-2.65s2.95,1.23,2.95,2.65-0.83,2.65-2.95,2.65S322.72,253,322.72,251.56Zm4.8,0a1.85,1.85,0,1,0-1.85,1.86A1.73,1.73,0,0,0,327.52,251.56Z" transform="translate(-126.06 -232.67)"/><path d="M330.2,249.05h3.17c1.28,0,1.69.58,1.69,1.36a1.18,1.18,0,0,1-.83,1.21h0c0.6,0.13.73,0.64,0.73,1.35a2.1,2.1,0,0,0,.21,1.07H334a1.69,1.69,0,0,1-.13-0.76c0-.72-0.1-1.22-0.87-1.22h-1.79v2h-1.05v-5Zm2.87,2.25c0.58,0,.9-0.18.9-0.74a0.73,0.73,0,0,0-.9-0.72h-1.82v1.46h1.82Z" transform="translate(-126.06 -232.67)"/><path d="M342.09,254.06h-0.62l-0.15-.65a2.48,2.48,0,0,1-1.91.79c-2.12,0-2.95-1.23-2.95-2.65s0.88-2.65,2.92-2.65c1.52,0,2.5.77,2.61,1.75h-1.14a1.43,1.43,0,0,0-1.5-1,1.86,1.86,0,0,0-.05,3.72,1.53,1.53,0,0,0,1.73-1.32h-1.42v-0.79h2.47v2.75Z" transform="translate(-126.06 -232.67)"/><path d="M345.62,249h1.25l2.23,5h-1.17l-0.53-1.24H345l-0.52,1.24h-1.14Zm1.47,3-0.86-2.11L345.36,252h1.73Z" transform="translate(-126.06 -232.67)"/><path d="M350.4,249h1.21l3,3.76h0V249h1v5h-1.19l-3-3.76h0v3.76h-1v-5Z" transform="translate(-126.06 -232.67)"/><path d="M357.48,249h1.05v5h-1.05v-5Z" transform="translate(-126.06 -232.67)"/><path d="M359.92,253.29l3.45-3.46h-3.21V249h4.6v0.77l-3.42,3.42h3.44v0.83h-4.86v-0.76Z" transform="translate(-126.06 -232.67)"/><path d="M368.08,249h1.25l2.23,5H370.4l-0.53-1.24h-2.36L367,254.05h-1.14Zm1.47,3-0.86-2.11L367.83,252h1.73Z" transform="translate(-126.06 -232.67)"/><path d="M373.62,249.82h-1.88V249h4.81v0.79h-1.88V254h-1.05v-4.23Z" transform="translate(-126.06 -232.67)"/><path d="M377.88,249h1.05v5h-1.05v-5Z" transform="translate(-126.06 -232.67)"/><path d="M380.52,251.54c0-1.41.83-2.65,2.95-2.65s2.95,1.23,2.95,2.65-0.83,2.65-2.95,2.65S380.52,253,380.52,251.54Zm4.8,0a1.85,1.85,0,1,0-1.85,1.86A1.73,1.73,0,0,0,385.32,251.54Z" transform="translate(-126.06 -232.67)"/><path d="M388,249h1.21l3,3.76h0V249h1v5H392l-3-3.76h0V254h-1v-5Z" transform="translate(-126.06 -232.67)"/></svg>