<?xml version="1.0" encoding="utf-8"?>
<!-- Generator: Adobe Illustrator 19.2.1, SVG Export Plug-In . SVG Version: 6.00 Build 0)  -->
<svg version="1.1" id="Calque_1" xmlns="http://www.w3.org/2000/svg" xmlns:xlink="http://www.w3.org/1999/xlink" x="0px" y="0px"
	 viewBox="0 0 330.1 22.5" style="enable-background:new 0 0 330.1 22.5;" xml:space="preserve">
<title>logo__wipo-word-mark--ru</title>
<path d="M0,0.3h2.8l2,7.5l0,0l2.1-7.5h2.8l2.1,7.5l0,0l2-7.5h2.8l-3.2,10.2h-2.9L8.3,3.2l0,0l-2.1,7.3H3.3L0,0.3z"/>
<path d="M19.4,0.3h2.8v10.3h-2.8V0.3z"/>
<path d="M26.3,0.3h6.9c2.9,0,3.6,1.7,3.6,3.1c0,2.2-1.1,3.5-3.4,3.5h-4.3v3.7h-2.8L26.3,0.3L26.3,0.3z M29.1,5h3
	c0.9,0,1.9,0,1.9-1.4s-0.8-1.5-1.6-1.5h-3.2L29.1,5L29.1,5z"/>
<path d="M46.1,0c5.5,0,6.4,3.3,6.4,5.4s-0.9,5.4-6.4,5.4s-6.4-3.3-6.4-5.4S40.6,0,46.1,0z M46.1,8.9c1.9,0,3.5-1.5,3.5-3.4
	c0-1.9-1.5-3.5-3.4-3.5s-3.5,1.5-3.5,3.4c0,0,0,0,0,0c-0.1,1.8,1.2,3.3,3,3.4C45.8,8.9,46,8.9,46.1,8.9L46.1,8.9z"/>
<path d="M19.6,16.6h2.7c0.6-0.1,1.2,0.3,1.3,1c0,0.1,0,0.2,0,0.2c0,0.5-0.3,0.9-0.8,1l0,0c0.6,0.1,1,0.6,1,1.2
	c0,0.8-0.6,1.4-1.4,1.4c-0.1,0-0.1,0-0.2,0h-2.6L19.6,16.6L19.6,16.6z M20.1,18.6H22c0.7,0,1.1-0.2,1.1-0.8c0-0.4-0.3-0.8-0.7-0.8
	c-0.1,0-0.1,0-0.2,0h-2.1L20.1,18.6L20.1,18.6z M20.1,20.8h2c0.5,0.1,1-0.2,1.1-0.7c0-0.1,0-0.1,0-0.2c0-0.5-0.3-0.8-0.7-0.9
	c-0.1,0-0.2,0-0.3,0H20L20.1,20.8L20.1,20.8z"/>
<path d="M22.2,21.5h-2.8v-5.1h2.9c0.7-0.1,1.4,0.4,1.5,1.2c0,0.1,0,0.2,0,0.2c0,0.4-0.2,0.8-0.5,1c0.4,0.2,0.7,0.7,0.7,1.2
	c0,0.9-0.8,1.6-1.6,1.5C22.3,21.5,22.2,21.5,22.2,21.5z M19.8,21.1h2.4c0.7,0.1,1.3-0.4,1.4-1.1c0,0,0,0,0-0.1
	c0-0.4-0.2-0.7-0.5-0.9c0.3,0.2,0.4,0.5,0.4,0.9c0,0.6-0.5,1.1-1.1,1.1c-0.1,0-0.1,0-0.2,0L19.8,21.1l0.1-2.2h2.4h0.3v-0.1
	c-0.2,0-0.4,0.1-0.6,0.1h-2.1v-2h2.3c0.5-0.1,1,0.2,1.1,0.7c0,0.1,0,0.2,0,0.3c0,0.2,0,0.4-0.1,0.6c0.2-0.2,0.2-0.4,0.2-0.6
	c0-0.5-0.3-1-0.9-1c-0.1,0-0.2,0-0.2,0h-2.5L19.8,21.1L19.8,21.1z M20.3,20.6h1.9c0.4,0.1,0.8-0.1,0.9-0.5c0-0.1,0-0.1,0-0.2
	c0-0.5-0.2-0.7-0.8-0.7h-2L20.3,20.6L20.3,20.6z M20.3,18.4H22c0.8,0,0.9-0.3,0.9-0.6s-0.1-0.6-0.7-0.6h-1.9L20.3,18.4L20.3,18.4z"
	/>
<path d="M29.9,19.5c-0.1,1.2-1.2,2-2.3,1.9c-1.3,0.1-2.4-0.9-2.5-2.1c0-0.1,0-0.2,0-0.3c-0.1-1.3,1-2.4,2.3-2.5c0.1,0,0.2,0,0.2,0
	c1.1-0.1,2.1,0.6,2.3,1.7h-0.5c-0.2-0.8-1-1.4-1.8-1.3c-1-0.1-1.9,0.6-2,1.6c0,0.1,0,0.3,0,0.4c-0.1,1,0.7,1.9,1.7,2
	c0.1,0,0.2,0,0.3,0c0.9,0.1,1.7-0.5,1.8-1.5c0,0,0,0,0,0L29.9,19.5L29.9,19.5z"/>
<path d="M27.6,21.6c-1.4,0.1-2.6-0.9-2.7-2.3c0-0.1,0-0.2,0-0.3c-0.1-1.4,1-2.6,2.5-2.7c0.1,0,0.2,0,0.2,0c1.2-0.1,2.3,0.7,2.5,1.9
	v0.2h-0.9v-0.2c-0.2-0.7-0.9-1.2-1.6-1.1c-0.9-0.1-1.7,0.5-1.8,1.4c0,0.1,0,0.3,0,0.4c-0.1,0.9,0.6,1.7,1.5,1.8c0.1,0,0.2,0,0.3,0
	c0.8,0.1,1.5-0.5,1.6-1.3c0,0,0,0,0,0v-0.2h0.9v0.2C30,20.8,28.9,21.7,27.6,21.6z M27.6,16.7c-1.2-0.1-2.2,0.9-2.3,2.1
	c0,0.1,0,0.1,0,0.2c-0.1,1.2,0.8,2.2,2,2.3c0.1,0,0.2,0,0.3,0c1,0.1,1.9-0.6,2.1-1.5h-0.1c-0.2,0.9-1.1,1.6-2,1.5
	c-1.1,0.1-2.1-0.7-2.2-1.8c0-0.1,0-0.3,0-0.4c-0.1-1.1,0.7-2.1,1.8-2.2C27.3,16.7,27.5,16.7,27.6,16.7c0.9-0.1,1.7,0.5,2,1.3h0.1
	C29.4,17.1,28.5,16.5,27.6,16.7z"/>
<path d="M31.7,16.6h3.7V17h-3.2v1.6h3.1v0.5h-3.1v1.8h3.3v0.5h-3.8V16.6L31.7,16.6z"/>
<path d="M35.7,21.5h-4.2v-5.1h4.1v0.8h-3.2v1.2h3.1v0.8h-3.1v1.4h3.3V21.5L35.7,21.5z M31.9,21.1h3.4l0,0H31.9l0.1-2.2h3.1l0,0H32
	v-2h3.2l0,0h-3.3L31.9,21.1L31.9,21.1z"/>
<path d="M42.1,16.6h0.7v4.7h-0.5v-4.1l0,0l-2.1,4.1h-0.4l-2.1-4.1l0,0v4.1h-0.5v-4.7h0.7l2.1,4.1L42.1,16.6z"/>
<path d="M42.9,21.5h-0.9V18l-1.8,3.5h-0.7L37.8,18v3.5h-0.9v-5.1h1l2,3.8l2-3.8h1V21.5z M42.4,21.1L42.4,21.1l0.1-4.3h-0.4L40,21.1
	H40l2.1-4.1h0.3L42.4,21.1L42.4,21.1z M39.8,21.1h0.1l-2.2-4.3h-0.4v4.3h0.1V17h0.3l0.1,0.1L39.8,21.1z"/>
<path d="M44.6,16.6h0.5v4l0,0l3.3-4h0.5v4.7h-0.5v-4l0,0l-3.3,4h-0.6L44.6,16.6L44.6,16.6z"/>
<path d="M49.2,21.5h-0.9v-3.6l-3,3.7h-0.9v-5.1h0.9v3.7l3-3.7h0.9L49.2,21.5L49.2,21.5z M48.7,21.1L48.7,21.1l0.1-4.3h-0.3l-3.3,4
	h-0.3v-4h-0.1v4.3h0.3l3.3-4h0.3L48.7,21.1L48.7,21.1z"/>
<path d="M50.9,16.6h2.5c0.7-0.1,1.3,0.4,1.4,1.1c0,0.1,0,0.2,0,0.2c0,0.8-0.6,1.4-1.3,1.4c-0.1,0-0.2,0-0.3,0h-1.8v2h-0.5V16.6
	L50.9,16.6z M51.4,18.9h1.9c0.5,0.1,0.9-0.2,1-0.6c0-0.1,0-0.2,0-0.3c0.1-0.4-0.2-0.9-0.7-0.9c-0.1,0-0.2,0-0.3,0h-2L51.4,18.9
	L51.4,18.9z"/>
<path d="M51.6,21.5h-0.9v-5.1h2.7c0.8-0.1,1.5,0.5,1.6,1.3c0,0.1,0,0.2,0,0.2c0,0.9-0.7,1.6-1.5,1.6c-0.1,0-0.2,0-0.3,0h-1.6V21.5
	L51.6,21.5z M51.1,21.1L51.1,21.1l0.1-2h2c0.6,0.1,1.3-0.3,1.4-0.9c0-0.1,0-0.2,0-0.2c0-0.6-0.4-1.1-1-1.2c-0.1,0-0.1,0-0.2,0h-2.3
	L51.1,21.1L51.1,21.1z M53.3,19.1h-2.1v-2.2h2.2c0.5-0.1,1.1,0.3,1.2,0.8c0,0.1,0,0.2,0,0.3c0,0.6-0.4,1.1-1,1.1
	C53.5,19.1,53.4,19.1,53.3,19.1L53.3,19.1z M51.6,18.7h1.7c0.7,0,0.9-0.3,0.9-0.7c0.1-0.3-0.2-0.7-0.5-0.7c-0.1,0-0.2,0-0.3,0h-1.8
	L51.6,18.7L51.6,18.7z"/>
<path d="M56.2,16.6h0.5v2h3.4v-2h0.5v4.7h-0.5V19h-3.4v2.3h-0.5V16.6z"/>
<path d="M60.8,21.5h-0.9v-2.3h-3v2.3h-0.9v-5.1h0.9v2h3v-2h0.9L60.8,21.5L60.8,21.5z M60.3,21.1L60.3,21.1l0.1-4.3h-0.1v2h-3.8v-2
	h-0.1v4.3h0.1v-2.2h3.8L60.3,21.1L60.3,21.1z"/>
<path d="M65.4,19.8h-2.5l-0.6,1.4h-0.5l2.1-4.7h0.6l2.1,4.7H66L65.4,19.8z M64.2,17.1l-1,2.3h2.1L64.2,17.1z"/>
<path d="M66.9,21.5h-1L65.3,20h-2.2l-0.6,1.4h-1l2.3-5.1h0.8L66.9,21.5z M66.2,21.1h0.1l-2-4.3h-0.1l1.2,2.8h-2.7l1.3-2.8H64l-2,4.3
	h0.1l0.6-1.4h2.7L66.2,21.1z M63.5,19.2h1.5l-0.7-1.7L63.5,19.2z"/>
<path d="M72,21.3h-0.5v-2.1h-1.9c-0.5-0.1-1.1,0.3-1.1,0.8c0,0.1,0,0.2,0,0.3c0,0.3,0,0.7-0.1,1h-0.5c0.1-0.3,0.2-0.7,0.2-1
	c0-0.8,0.2-1.2,0.8-1.3l0,0c-0.6-0.1-0.9-0.6-0.9-1.2c0-0.7,0.6-1.3,1.3-1.3c0.1,0,0.2,0,0.3,0H72V21.3z M71.5,17h-2.1
	c-0.4-0.1-0.9,0.2-1,0.6c0,0.1,0,0.1,0,0.2c0,0.5,0.3,0.9,0.8,0.9c0.1,0,0.1,0,0.2,0h2.1L71.5,17L71.5,17z"/>
<path d="M72.2,21.5h-0.9v-2.1h-1.7c-0.4-0.1-0.8,0.1-0.9,0.5c0,0.1,0,0.3,0,0.4c0.1,0.4,0,0.8-0.2,1.1l-0.1,0.1h-1.1l0.4-0.3
	c0.1-0.3,0.1-0.6,0.1-0.8c-0.1-0.5,0.1-1,0.5-1.3c-0.4-0.3-0.6-0.7-0.6-1.1c0-0.8,0.6-1.5,1.4-1.5c0.1,0,0.2,0,0.3,0h2.8L72.2,21.5
	L72.2,21.5z M71.7,21.1L71.7,21.1l0.1-4.3h-2.4c-1.3,0-1.3,0.8-1.3,1.1c0,0.3,0.2,0.6,0.4,0.8c-0.2-0.2-0.3-0.5-0.3-0.8
	c0-0.6,0.4-1,1-1c0.1,0,0.1,0,0.2,0h2.3V19h-2.3c-0.1,0-0.3,0-0.4,0v0.2c0.2-0.1,0.4-0.1,0.6-0.1h2.1L71.7,21.1L71.7,21.1z
	 M68.1,21.1h0.1c0-0.3,0.1-0.5,0.1-0.8c0-0.4,0.1-0.8,0.4-1.1c-0.4,0.1-0.5,0.4-0.5,1.1C68.2,20.6,68.2,20.8,68.1,21.1L68.1,21.1z
	 M69.4,17.2c-0.7,0-0.8,0.3-0.8,0.6c0,0.4,0.2,0.7,0.6,0.7c0.1,0,0.2,0,0.2,0h1.9v-1.3L69.4,17.2L69.4,17.2z"/>
<path d="M80.4,16.5c1.4,0,2.4,1.2,2.4,2.6c0,1.4-1.2,2.4-2.6,2.4c-1.3,0-2.4-1.1-2.4-2.5c-0.1-1.3,1-2.4,2.3-2.5
	C80.3,16.5,80.4,16.5,80.4,16.5z M80.4,21c1.1,0,2-0.9,2-2s-0.9-2-2-2s-2,0.9-2,2c-0.1,1,0.8,1.9,1.8,2C80.3,21,80.4,21,80.4,21
	L80.4,21z"/>
<path d="M80.4,21.6c-1.5,0-2.6-1.3-2.6-2.8c0-1.5,1.3-2.6,2.8-2.6c1.4,0,2.6,1.2,2.6,2.7c0.1,1.4-1.1,2.6-2.5,2.7
	C80.6,21.6,80.5,21.6,80.4,21.6z M80.4,16.7c-1.3,0-2.2,1.1-2.2,2.4c0,1.3,1.1,2.2,2.4,2.2c1.2,0,2.2-1,2.2-2.3
	c0.1-1.2-0.9-2.2-2.1-2.3C80.6,16.7,80.5,16.7,80.4,16.7z M80.4,21.2c-1.2,0-2.2-1-2.2-2.2c0-1.2,1-2.2,2.2-2.2c1.2,0,2.2,1,2.2,2.2
	c0.1,1.2-0.8,2.1-2,2.2C80.6,21.2,80.5,21.2,80.4,21.2L80.4,21.2z M80.4,17.2c-1,0-1.8,0.8-1.8,1.8c0,1,0.8,1.8,1.8,1.8
	c1,0,1.8-0.8,1.8-1.8c0.1-0.9-0.6-1.8-1.5-1.9C80.7,17.1,80.6,17.1,80.4,17.2L80.4,17.2z"/>
<path d="M84.5,16.6h2.5c0.7-0.1,1.3,0.4,1.4,1.1c0,0.1,0,0.2,0,0.2c0,0.8-0.6,1.4-1.3,1.4c-0.1,0-0.2,0-0.3,0H85v2h-0.5V16.6
	L84.5,16.6z M85,18.9h1.9c0.5,0.1,0.9-0.2,1-0.6c0-0.1,0-0.2,0-0.3c0.1-0.4-0.3-0.9-0.7-0.9c-0.1,0-0.2,0-0.3,0h-2L85,18.9L85,18.9z
	"/>
<path d="M85.2,21.5h-0.9v-5.1h2.7c0.8-0.1,1.5,0.5,1.6,1.3c0,0.1,0,0.2,0,0.2c0,0.9-0.7,1.6-1.5,1.6c-0.1,0-0.2,0-0.3,0h-1.6V21.5
	L85.2,21.5z M84.7,21.1L84.7,21.1l0.1-2h2c0.6,0.1,1.3-0.3,1.4-0.9c0-0.1,0-0.2,0-0.2c0-0.6-0.4-1.1-1-1.2c-0.1,0-0.2,0-0.2,0h-2.3
	L84.7,21.1L84.7,21.1z M86.9,19.1h-2.1v-2.2H87c0.5-0.1,1.1,0.3,1.2,0.8c0,0.1,0,0.2,0,0.3c0,0.6-0.4,1.1-1,1.1
	C87.1,19.1,87,19.1,86.9,19.1L86.9,19.1z M85.2,18.7h1.7c0.7,0,0.9-0.3,0.9-0.7c0.1-0.3-0.2-0.7-0.5-0.7c-0.1,0-0.2,0-0.3,0h-1.8
	L85.2,18.7L85.2,18.7z"/>
<path d="M90.1,16.6h3.5V17h-3v4.3h-0.5L90.1,16.6L90.1,16.6z"/>
<path d="M90.8,21.5h-0.8v-5.1h3.9v0.8h-3L90.8,21.5L90.8,21.5z M90.3,21.1L90.3,21.1l0.1-4.2h3l0,0h-3.1L90.3,21.1L90.3,21.1z"/>
<path d="M96.9,19.8h-2.5l-0.6,1.4h-0.5l2.1-4.7H96l2.1,4.7h-0.6L96.9,19.8z M95.7,17.1l-1,2.3h2.1L95.7,17.1z"/>
<path d="M98.5,21.5h-1L96.8,20h-2.2l-0.7,1.4h-1l2.3-5.1h0.8L98.5,21.5z M97.7,21.1h0.1l-2-4.3h-0.1l1.2,2.8h-2.7l1.3-2.8h-0.1
	l-2,4.3h0.1l0.6-1.4H97L97.7,21.1z M94.9,19.2h1.5l-0.7-1.7L94.9,19.2z"/>
<path d="M99.3,16.6h0.5v2h3.4v-2h0.5v4.7h-0.5V19h-3.4v2.3h-0.5V16.6z"/>
<path d="M103.9,21.5H103v-2.3h-3v2.3h-0.9v-5.1h0.9v2h3v-2h0.9V21.5z M103.4,21.1L103.4,21.1l0.1-4.3h-0.1v2h-3.8v-2h-0.1v4.3h0.1
	v-2.2h3.8V21.1L103.4,21.1z"/>
<path d="M109.9,21.3h-0.5v-4l0,0l-3.3,4h-0.6v-4.7h0.5v4l0,0l3.3-4h0.6V21.3z"/>
<path d="M110.1,21.5h-0.9v-3.6l-3,3.7h-0.9v-5.1h0.9v3.7l3-3.7h0.9L110.1,21.5L110.1,21.5z M109.6,21.1L109.6,21.1l0.1-4.3h-0.3
	l-3.3,4h-0.3v-4h-0.1v4.3h0.3l3.3-4h0.3L109.6,21.1L109.6,21.1z"/>
<path d="M113.2,18.6h0.3c0.7,0,1.2-0.2,1.2-0.8c0-0.5-0.5-0.9-1-0.9c-0.1,0-0.1,0-0.2,0c-0.6-0.1-1.2,0.2-1.3,0.8c0,0.1,0,0.2,0,0.3
	h-0.5c0-0.9,0.7-1.6,1.6-1.6c0.1,0,0.2,0,0.2,0c0.8-0.1,1.5,0.4,1.6,1.1c0,0.1,0,0.1,0,0.2c0,0.5-0.4,0.9-0.9,1l0,0
	c0.6,0,1.1,0.6,1.1,1.2c0,1.1-0.9,1.4-1.9,1.4c-1.2,0-1.9-0.6-1.9-1.6h0.5c0,0.7,0.5,1.2,1.2,1.2c0.1,0,0.2,0,0.3,0
	c0.6,0.1,1.1-0.2,1.3-0.8c0-0.1,0-0.1,0-0.2c0-0.8-0.6-1-1.3-1h-0.4L113.2,18.6L113.2,18.6z"/>
<path d="M113.6,21.6c-1.3,0-2.1-0.7-2.1-1.8v-0.2h0.9v0.2c0,0.6,0.4,1,1,1c0.1,0,0.2,0,0.3,0c0.5,0.1,1-0.2,1.1-0.7c0,0,0-0.1,0-0.1
	c0-0.5-0.3-0.8-1.1-0.8H113v-0.8h0.5c0.8,0,1-0.2,1-0.6c0-0.4-0.4-0.7-0.8-0.7c0,0-0.1,0-0.1,0c-0.5-0.1-1,0.2-1.1,0.7
	c0,0.1,0,0.2,0,0.3v0.2h-0.9v-0.2c0-1,0.8-1.8,1.8-1.8c0.1,0,0.1,0,0.2,0c0.9-0.1,1.7,0.5,1.8,1.3c0,0.1,0,0.1,0,0.2
	c0,0.4-0.2,0.7-0.5,0.9c0.4,0.2,0.7,0.7,0.7,1.2C115.7,21,114.9,21.6,113.6,21.6z M111.9,20c0.1,0.8,0.8,1.3,1.5,1.3
	c0,0,0.1,0,0.1,0c0.8,0,1.7-0.2,1.7-1.2c0-0.4-0.2-0.7-0.5-0.9c0.3,0.2,0.5,0.6,0.4,0.9c0,0.7-0.6,1.2-1.3,1.2c-0.1,0-0.2,0-0.3,0
	c-0.8,0.1-1.5-0.3-1.6-1.1c0,0,0-0.1,0-0.1H111.9z M113.5,18.8h0.2c0.2,0,0.4,0,0.5,0v-0.1c-0.2,0-0.4,0.1-0.6,0L113.5,18.8z
	 M113.7,16.7c0.6-0.1,1.2,0.3,1.3,0.9c0,0.1,0,0.1,0,0.2c0,0.2-0.1,0.4-0.2,0.6c0.2-0.1,0.3-0.4,0.3-0.6
	C115,17.1,114.4,16.6,113.7,16.7C113.7,16.7,113.7,16.7,113.7,16.7c-0.8-0.1-1.5,0.4-1.6,1.2c0,0,0,0,0,0h0.1
	C112.2,17.2,112.9,16.6,113.7,16.7C113.6,16.7,113.6,16.7,113.7,16.7L113.7,16.7z"/>
<path d="M119.9,19.8h-2.5l-0.6,1.4h-0.5l2.1-4.7h0.6l2.1,4.7h-0.6L119.9,19.8z M118.6,17.1l-1,2.3h2.1L118.6,17.1z"/>
<path d="M121.4,21.5h-1l-0.6-1.4h-2.2l-0.6,1.4h-1l2.3-5.1h0.8L121.4,21.5z M120.6,21.1h0.1l-2-4.3h-0.1l1.2,2.8h-2.7l1.3-2.8h-0.1
	l-2,4.3h0.1l0.6-1.4h2.8L120.6,21.1z M117.9,19.2h1.5l-0.7-1.7L117.9,19.2z"/>
<path d="M132.8,21.3h-0.5v-4l0,0l-3.3,4h-0.6v-4.7h0.5v4l0,0l3.3-4h0.6V21.3z"/>
<path d="M133,21.5h-0.9v-3.6l-3,3.7h-0.9v-5.1h0.9v3.7l3-3.7h0.9L133,21.5L133,21.5z M132.5,21.1L132.5,21.1l0.1-4.3h-0.3l-3.3,4
	h-0.3v-4h-0.1v4.3h0.3l3.3-4h0.3v0.2L132.5,21.1L132.5,21.1z"/>
<path d="M138.7,21.3h-0.5v-2.1h-1.9c-0.5-0.1-1.1,0.3-1.1,0.8c0,0.1,0,0.2,0,0.3c0,0.3,0,0.7-0.1,1h-0.5c0.1-0.3,0.2-0.7,0.2-1
	c0-0.8,0.2-1.2,0.8-1.3l0,0c-0.5-0.1-0.9-0.6-0.9-1.1c0-0.7,0.5-1.3,1.2-1.3c0.1,0,0.2,0,0.3,0h2.6L138.7,21.3L138.7,21.3z
	 M138.2,17h-2.1c-0.4-0.1-0.9,0.2-1,0.6c0,0.1,0,0.1,0,0.2c0,0.5,0.3,0.9,0.8,0.9c0.1,0,0.1,0,0.2,0h2.1L138.2,17L138.2,17z"/>
<path d="M138.9,21.5H138v-2.1h-1.7c-0.4-0.1-0.8,0.1-0.9,0.5c0,0.1,0,0.3,0,0.4c0.1,0.4,0,0.8-0.2,1.1l-0.1,0.1h-1.1l0.4-0.3
	c0.1-0.3,0.1-0.6,0.1-0.8c-0.1-0.5,0.1-1,0.5-1.3c-0.4-0.3-0.6-0.7-0.6-1.1c0-0.8,0.6-1.5,1.4-1.5c0.1,0,0.2,0,0.3,0h2.8V21.5
	L138.9,21.5z M138.5,21.1L138.5,21.1l0.1-4.3h-2.4c-1.3,0-1.3,0.8-1.3,1.1c0,0.3,0.2,0.6,0.4,0.8c-0.2-0.2-0.3-0.5-0.3-0.8
	c0-0.6,0.4-1,1-1c0.1,0,0.1,0,0.2,0h2.3V19h-2.3c-0.1,0-0.3,0-0.4,0v0.2c0.2-0.1,0.4-0.1,0.6-0.1h2.1L138.5,21.1L138.5,21.1z
	 M134.9,21.1L134.9,21.1c0.1-0.3,0.1-0.5,0.1-0.8c0-0.4,0.1-0.8,0.4-1.1c-0.4,0.1-0.5,0.4-0.5,1.1C134.9,20.6,134.9,20.8,134.9,21.1
	z M136.1,17.2c-0.7,0-0.8,0.3-0.8,0.6c0,0.4,0.2,0.7,0.6,0.7c0.1,0,0.2,0,0.2,0h1.9v-1.3L136.1,17.2L136.1,17.2z"/>
<polygon points="126.6,20.8 126.6,16.6 126.1,16.6 126.1,20.8 122.7,20.8 122.7,16.6 122.2,16.6 122.2,21.3 126.5,21.3 126.5,22.3 
	126.9,22.3 126.9,20.8 "/>
<path d="M127.2,22.5h-0.9v-1.1H122v-5.1h0.9v4.3h3v-4.3h0.9v4.3h0.4L127.2,22.5L127.2,22.5z M126.7,22.1L126.7,22.1l0.1-1.1h-0.4
	v-4.3h-0.1V21h-3.8v-4.3h-0.1v4.3h4.2L126.7,22.1L126.7,22.1z"/>
<path d="M251.3,18.3c-0.1-0.7-0.8-1.2-1.5-1.1c-1,0.1-1.7,0.9-1.6,1.9c0.1,0.9,0.8,1.5,1.6,1.6c0.7,0.1,1.4-0.5,1.5-1.2h1.1
	c-0.1,0.9-0.8,1.9-2.7,1.9c-1.4,0-2.5-1.2-2.4-2.6s1.2-2.5,2.6-2.4c1.6,0,2.5,0.8,2.6,1.9L251.3,18.3L251.3,18.3z"/>
<path d="M249.6,21.6c-1.4,0.1-2.6-0.9-2.7-2.3c0-0.1,0-0.2,0-0.3c-0.1-1.4,1-2.6,2.4-2.7c0.1,0,0.3,0,0.4,0c1.9,0,2.7,1.1,2.8,2v0.2
	h-1.5v-0.2c-0.1-0.6-0.7-1.1-1.3-1c0,0,0,0,0,0c-0.8,0-1.4,0.6-1.4,1.4c0,0.1,0,0.2,0,0.2c0,0.8,0.5,1.4,1.3,1.5c0.1,0,0.1,0,0.2,0
	c0.6,0.1,1.2-0.4,1.2-1v-0.2h1.5v0.2C252.4,20.5,251.8,21.6,249.6,21.6z M249.8,16.6c-1.3-0.1-2.4,0.8-2.5,2.1
	c-0.1,1.3,0.8,2.4,2.1,2.5c0.1,0,0.2,0,0.3,0c1.4,0,2.2-0.5,2.5-1.5h-0.7c-0.2,0.7-0.9,1.2-1.6,1.2c-1.1-0.2-1.8-1.3-1.5-2.4
	c0.2-0.7,0.7-1.3,1.5-1.5c0.8-0.1,1.5,0.4,1.7,1.1h0.7C251.8,17.1,250.8,16.5,249.8,16.6L249.8,16.6z"/>
<path d="M253.9,18.9c0-1.3,0.8-2.5,2.8-2.5s2.8,1.2,2.8,2.5s-0.8,2.5-2.8,2.5S253.9,20.2,253.9,18.9z M258.4,18.9
	c0-1-0.8-1.7-1.7-1.7s-1.7,0.8-1.7,1.7c0,1,0.8,1.7,1.7,1.7c0,0,0,0,0,0c0.9,0.1,1.7-0.6,1.7-1.5C258.4,19.1,258.4,19,258.4,18.9z"
	/>
<path d="M256.6,21.6c-1.9,0-3-1-3-2.7s1.1-2.7,3-2.7s3,1,3,2.7S258.5,21.6,256.6,21.6z M256.6,16.6c-2.3,0-2.6,1.6-2.6,2.3
	s0.2,2.3,2.6,2.3s2.6-1.6,2.6-2.3S258.9,16.6,256.6,16.6L256.6,16.6z M256.6,20.8c-1.1,0-2-0.9-2-1.9c0-1.1,0.9-2,1.9-2
	c1.1,0,2,0.9,2,1.9c0,0,0,0,0,0c0.1,1-0.7,1.9-1.7,1.9C256.8,20.9,256.7,20.9,256.6,20.8L256.6,20.8z M256.6,17.3
	c-0.9,0-1.6,0.7-1.6,1.5s0.7,1.6,1.5,1.6c0.9,0,1.6-0.7,1.6-1.5c0,0,0,0,0,0c0.1-0.8-0.5-1.5-1.3-1.5
	C256.8,17.4,256.7,17.4,256.6,17.3L256.6,17.3z"/>
<path d="M271.4,18.3c-0.1-0.7-0.8-1.2-1.5-1.1c-1,0.1-1.7,0.9-1.6,1.9c0.1,0.9,0.8,1.5,1.6,1.6c0.7,0.1,1.4-0.5,1.5-1.2h1.1
	c-0.1,0.9-0.8,1.9-2.7,1.9c-1.4,0-2.5-1.2-2.4-2.6s1.2-2.5,2.6-2.4c1.6,0,2.5,0.8,2.6,1.9L271.4,18.3L271.4,18.3z"/>
<path d="M269.8,21.6c-1.4,0.1-2.6-0.9-2.7-2.3c0-0.1,0-0.2,0-0.3c-0.1-1.4,1-2.6,2.4-2.7c0.1,0,0.3,0,0.4,0c1.9,0,2.7,1.1,2.8,2v0.2
	h-1.5v-0.2c-0.1-0.6-0.7-1.1-1.3-1c0,0,0,0,0,0c-0.9,0.1-1.5,0.8-1.4,1.7c0.1,0.8,0.7,1.4,1.5,1.4c0.6,0.1,1.2-0.4,1.2-1v-0.2h1.5
	v0.2C272.5,20.5,271.9,21.6,269.8,21.6z M269.9,16.6c-1.2-0.1-2.3,0.7-2.4,1.9c0,0.1,0,0.3,0,0.4c-0.1,1.2,0.8,2.2,2,2.3
	c0.1,0,0.2,0,0.3,0c1.4,0,2.2-0.5,2.5-1.5h-0.7c-0.2,0.8-0.9,1.3-1.7,1.2c-1.1-0.2-1.8-1.3-1.5-2.4c0.2-0.7,0.7-1.3,1.5-1.5
	c0.8-0.1,1.5,0.4,1.7,1.1h0.7C271.9,17.1,270.9,16.5,269.9,16.6L269.9,16.6z"/>
<path d="M275.6,17.3h-1.8v-0.7h4.5v0.7h-1.8v4h-1L275.6,17.3L275.6,17.3z"/>
<path d="M276.8,21.5h-1.4v-4h-1.8v-1.1h4.9v1.1h-1.8L276.8,21.5L276.8,21.5z M275.8,21.1h0.6v-4h1.8v-0.3H274v0.3h1.8L275.8,21.1
	L275.8,21.1z"/>
<path d="M279.8,16.6h3.1c0.6-0.1,1.2,0.3,1.3,0.9c0,0.1,0,0.2,0,0.3c0,0.4-0.2,0.8-0.6,1c0.5,0.1,0.9,0.6,0.9,1.2
	c0,0.8-0.6,1.4-1.4,1.4c-0.1,0-0.1,0-0.2,0h-3.1L279.8,16.6L279.8,16.6z M280.8,18.5h1.9c0.3,0.1,0.6-0.1,0.6-0.4c0,0,0-0.1,0-0.2
	c0-0.4-0.2-0.6-0.8-0.6h-1.7L280.8,18.5L280.8,18.5z M280.8,20.5h1.8c0.4,0.1,0.8-0.1,0.9-0.5c0-0.1,0-0.1,0-0.2
	c0-0.4-0.3-0.7-0.6-0.7c0,0-0.1,0-0.1,0h-1.9V20.5z"/>
<path d="M282.9,21.5h-3.3v-5.1h3.3c0.7-0.1,1.4,0.4,1.5,1.1c0,0.1,0,0.2,0,0.3c0,0.4-0.1,0.8-0.4,1c0.4,0.3,0.6,0.7,0.6,1.2
	c0,0.9-0.8,1.6-1.7,1.5C283,21.5,282.9,21.5,282.9,21.5z M280,21.1h2.9c0.7,0.1,1.3-0.3,1.4-1c0-0.1,0-0.1,0-0.2
	c0.1-0.5-0.3-0.9-0.7-1l-0.5-0.2l0.5-0.2c0.3-0.1,0.6-0.4,0.5-0.8c0.1-0.5-0.3-1-0.8-1c-0.1,0-0.2,0-0.3,0H280L280,21.1L280,21.1z
	 M282.6,20.7h-2V19h2.1c0.5,0,0.9,0.3,0.9,0.8c0,0,0,0.1,0,0.1c0,0.5-0.4,0.9-0.9,0.9C282.7,20.8,282.6,20.7,282.6,20.7L282.6,20.7z
	 M281,20.3h1.6c0.5,0,0.7-0.1,0.7-0.5c0-0.3-0.2-0.5-0.5-0.5c0,0-0.1,0-0.1,0h-1.8L281,20.3L281,20.3z M282.6,18.7h-2v-1.6h1.9
	c0.4-0.1,0.9,0.2,1,0.6c0,0.1,0,0.1,0,0.2c0.1,0.4-0.2,0.8-0.6,0.8C282.8,18.7,282.7,18.7,282.6,18.7L282.6,18.7z M281,18.3h1.6
	c0.2,0.1,0.4-0.1,0.4-0.2c0-0.1,0-0.1,0-0.2c0-0.2,0-0.4-0.6-0.4h-1.5L281,18.3L281,18.3z"/>
<path d="M286.3,16.6h4.1v0.7h-3.1v1.2h3v0.7h-3v1.3h3.1v0.7h-4.1L286.3,16.6L286.3,16.6z"/>
<path d="M290.6,21.5h-4.5v-5.1h4.5v1.1h-3.1v0.8h3v1.1h-3v0.9h3.1L290.6,21.5L290.6,21.5z M286.5,21.1h3.7v-0.3h-3.1V19h3v-0.3h-3
	v-1.6h3.1v-0.3h-3.7V21.1L286.5,21.1z"/>
<path d="M292.1,16.6h1v1.8h2.9v-1.8h1v4.7h-1v-2.1h-2.9v2.1h-1L292.1,16.6L292.1,16.6z"/>
<path d="M297.2,21.5h-1.4v-2.1h-2.5v2.1h-1.4v-5.1h1.4v1.8h2.5v-1.8h1.4L297.2,21.5L297.2,21.5z M296.2,21.1h0.6v-4.3h-0.6v1.8h-3.3
	v-1.8h-0.6v4.3h0.6v-2.1h3.3L296.2,21.1L296.2,21.1z"/>
<path d="M299,16.6h1v1.8h2.9v-1.8h1v4.7h-1v-2.1H300v2.1h-1L299,16.6L299,16.6z"/>
<path d="M304.1,21.5h-1.4v-2.1h-2.5v2.1h-1.4v-5.1h1.4v1.8h2.5v-1.8h1.4V21.5z M303.1,21.1h0.6v-4.3h-0.6v1.8h-3.3v-1.8h-0.6v4.3
	h0.6v-2.1h3.3V21.1z"/>
<path d="M305.6,18.9c0-1.3,0.8-2.5,2.8-2.5s2.8,1.2,2.8,2.5s-0.8,2.5-2.8,2.5S305.6,20.2,305.6,18.9z M310.1,18.9
	c0-1-0.8-1.7-1.7-1.7s-1.7,0.8-1.7,1.7c0,1,0.8,1.7,1.7,1.7c0,0,0,0,0,0c0.9,0.1,1.7-0.6,1.7-1.5C310.1,19.1,310.1,19,310.1,18.9z"
	/>
<path d="M308.4,21.6c-1.9,0-3-1-3-2.7s1.1-2.7,3-2.7s3,1,3,2.7S310.2,21.6,308.4,21.6z M308.4,16.6c-2.3,0-2.6,1.6-2.6,2.3
	s0.2,2.3,2.6,2.3s2.6-1.6,2.6-2.3S310.7,16.6,308.4,16.6L308.4,16.6z M308.4,20.8c-1.1,0-2-0.9-2-1.9c0-1.1,0.9-2,1.9-2
	c1.1,0,2,0.9,2,1.9c0,0,0,0,0,0c0.1,1-0.7,1.9-1.7,1.9C308.5,20.9,308.4,20.9,308.4,20.8L308.4,20.8z M308.4,17.3
	c-0.9,0-1.6,0.7-1.6,1.5s0.7,1.6,1.5,1.6c0.9,0,1.6-0.7,1.6-1.5c0,0,0,0,0,0c0.1-0.8-0.5-1.5-1.3-1.5
	C308.5,17.4,308.4,17.4,308.4,17.3L308.4,17.3z"/>
<path d="M316.7,18.3c-0.1-0.7-0.8-1.2-1.5-1.1c-1,0.1-1.7,0.9-1.6,1.9c0.1,0.9,0.8,1.5,1.6,1.6c0.7,0.1,1.4-0.5,1.5-1.2h1.1
	c-0.1,0.9-0.8,1.9-2.7,1.9c-1.4,0-2.5-1.2-2.4-2.6s1.2-2.5,2.6-2.4c1.6,0,2.5,0.8,2.6,1.9L316.7,18.3L316.7,18.3z"/>
<path d="M315.1,21.6c-1.4,0.1-2.6-0.9-2.7-2.3c0-0.1,0-0.2,0-0.3c-0.1-1.4,1-2.6,2.4-2.7c0.1,0,0.3,0,0.4,0c1.9,0,2.7,1.1,2.8,2v0.2
	h-1.5v-0.2c-0.1-0.6-0.7-1.1-1.3-1c-0.9,0.1-1.5,0.8-1.4,1.7c0.1,0.8,0.7,1.4,1.5,1.4c0.6,0.1,1.2-0.4,1.2-1v-0.2h1.5v0.2
	C317.8,20.5,317.2,21.6,315.1,21.6z M315.2,16.6c-1.3-0.1-2.4,0.8-2.5,2.1c-0.1,1.3,0.8,2.4,2.1,2.5c0.1,0,0.2,0,0.3,0
	c1.4,0,2.2-0.5,2.5-1.5h-0.7c-0.2,0.7-0.8,1.3-1.6,1.2c-1.1-0.2-1.8-1.3-1.5-2.4c0.2-0.7,0.7-1.3,1.5-1.5c0.8-0.1,1.5,0.4,1.7,1.1
	h0.7C317.2,17.1,316.2,16.5,315.2,16.6L315.2,16.6z"/>
<path d="M320.8,17.3h-1.8v-0.7h4.5v0.7h-1.8v4h-1L320.8,17.3L320.8,17.3z"/>
<path d="M322,21.5h-1.4v-4h-1.8v-1.1h4.9v1.1H322L322,21.5L322,21.5z M321,21.1h0.6v-4h1.8v-0.3h-4.1v0.3h1.8L321,21.1L321,21.1z"/>
<path d="M329.9,21.3h-1v-3.5l0,0l-2.8,3.5H325v-4.7h1v3.5l0,0l2.8-3.5h1.2V21.3L329.9,21.3z"/>
<path d="M330.1,21.5h-1.4v-3.2l-2.5,3.2h-1.4v-5.1h1.4v3.2l2.5-3.2h1.4L330.1,21.5L330.1,21.5z M329.1,21.1h0.5v-4.3h-0.8l-2.8,3.5
	h-0.3v-3.5h-0.5v4.3h0.8l2.8-3.5h0.3L329.1,21.1L329.1,21.1z"/>
<path d="M264.9,17.3H262v1.2h1.9c1.3,0,1.9,0.6,1.9,1.4c0,0.8-0.6,1.4-1.4,1.4c-0.1,0-0.1,0-0.2,0h-3.1v-4.7h3.8V17.3L264.9,17.3z
	 M262,20.5h1.8c0.4,0.1,0.8-0.1,0.9-0.5c0-0.1,0-0.1,0-0.2c0-0.4-0.3-0.7-0.6-0.7c0,0-0.1,0-0.1,0H262L262,20.5L262,20.5z"/>
<path d="M264.1,21.5h-3.3v-5.1h4.3v1.1h-2.9v0.8h1.7c1.5,0,2,0.8,2,1.6c0,0.9-0.7,1.6-1.6,1.6C264.3,21.5,264.2,21.5,264.1,21.5z
	 M261.3,21.1h2.9c0.7,0.1,1.3-0.3,1.4-1c0-0.1,0-0.1,0-0.2c0-0.8-0.6-1.2-1.6-1.2h-2v-1.6h2.9v-0.3h-3.5L261.3,21.1L261.3,21.1z
	 M263.8,20.7h-2V19h2.1c0.5-0.1,0.9,0.3,0.9,0.7c0,0,0,0.1,0,0.1c0,0.5-0.4,0.9-0.9,0.9C263.9,20.8,263.9,20.7,263.8,20.7
	L263.8,20.7z M262.3,20.3h1.6c0.5,0,0.7-0.1,0.7-0.5c0-0.3-0.2-0.5-0.5-0.5c0,0-0.1,0-0.1,0h-1.7V20.3L262.3,20.3z"/>
<path d="M149.8,21.3h-1v-3.5l0,0l-2.8,3.5h-1.1v-4.7h1v3.5l0,0l2.8-3.5h1.1L149.8,21.3L149.8,21.3z"/>
<path d="M149.9,21.5h-1.4v-3.2l-2.5,3.2h-1.4v-5.1h1.4v3.2l2.5-3.2h1.4V21.5z M148.9,21.1h0.5v-4.3h-0.8l-2.8,3.5h-0.3v-3.5H145v4.3
	h0.8l2.8-3.5h0.3V21.1z"/>
<path d="M151.7,16.6h1v1.8h2.9v-1.8h1v4.7h-1v-2.1h-2.9v2.1h-1V16.6L151.7,16.6z"/>
<path d="M156.8,21.5h-1.4v-2.1h-2.5v2.1h-1.4v-5.1h1.4v1.8h2.5v-1.8h1.4L156.8,21.5L156.8,21.5z M155.8,21.1h0.6v-4.3h-0.6v1.8h-3.3
	v-1.8h-0.5v4.3h0.6v-2.1h3.3L155.8,21.1L155.8,21.1z"/>
<path d="M159.6,17.3h-1.8v-0.7h4.5v0.7h-1.8v4h-1L159.6,17.3L159.6,17.3z"/>
<path d="M160.8,21.5h-1.4v-4h-1.8v-1.1h4.9v1.1h-1.8L160.8,21.5L160.8,21.5z M159.8,21.1h0.6v-4h1.8v-0.3H158v0.3h1.8L159.8,21.1
	L159.8,21.1z"/>
<path d="M163.5,16.6h4.1v0.7h-3.1v1.2h3v0.7h-3v1.3h3.1v0.7h-4.1L163.5,16.6L163.5,16.6z"/>
<path d="M167.9,21.5h-4.5v-5.1h4.5v1.1h-3.1v0.8h3v1.1h-3v0.9h3.1L167.9,21.5L167.9,21.5z M163.7,21.1h3.7v-0.3h-3.1V19h3v-0.3h-3
	v-1.6h3.1v-0.3h-3.7L163.7,21.1L163.7,21.1z"/>
<path d="M182.3,16.6h4.1v0.7h-3.1v1.2h3v0.7h-3v1.3h3.1v0.7h-4.1L182.3,16.6L182.3,16.6z"/>
<path d="M186.7,21.5h-4.5v-5.1h4.5v1.1h-3.1v0.8h3v1.1h-3v0.9h3.1L186.7,21.5L186.7,21.5z M182.5,21.1h3.7v-0.3h-3.1V19h3v-0.3h-3
	v-1.6h3.1v-0.3h-3.7L182.5,21.1L182.5,21.1z"/>
<path d="M188.2,16.6h1v2.2l2.4-2.2h1.3l-2.2,1.9l2.3,2.8h-1.3l-1.8-2.2l-0.8,0.7v1.5h-1L188.2,16.6L188.2,16.6z"/>
<path d="M193.5,21.5h-1.9l-1.7-2.1l-0.6,0.5v1.6H188v-5.1h1.4v1.9l2.1-1.9h2l-2.5,2.1L193.5,21.5z M191.8,21.1h0.8l-2.2-2.6l1.9-1.7
	h-0.8l-2.7,2.4v-2.4h-0.6v4.3h0.6v-1.3l1-0.9L191.8,21.1z"/>
<path d="M195.3,17.3h-1.8v-0.7h4.5v0.7h-1.8v4h-1L195.3,17.3L195.3,17.3z"/>
<path d="M196.5,21.5h-1.4v-4h-1.8v-1.1h4.9v1.1h-1.8L196.5,21.5L196.5,21.5z M195.5,21.1h0.6v-4h1.8v-0.3h-4.1v0.3h1.8L195.5,21.1
	L195.5,21.1z"/>
<path d="M205.9,16.6h1.2l2.1,4.7h-1.1l-0.5-1.2h-2.2l-0.5,1.2h-1.1L205.9,16.6z M207.3,19.4l-0.8-2l-0.8,2H207.3z"/>
<path d="M209.6,21.5H208l-0.5-1.2h-2l-0.5,1.2h-1.5l2.3-5.1h1.4L209.6,21.5z M208.3,21.1h0.7l-1.9-4.3h-0.9l-1.9,4.3h0.6l0.5-1.2
	h2.5L208.3,21.1z M207.6,19.6h-2.2l1.1-2.7L207.6,19.6z M206,19.2h1l-0.5-1.2L206,19.2z"/>
<path d="M216.7,16.6h1v1.8h1.9c0.8-0.1,1.4,0.5,1.5,1.3c0,0.1,0,0.1,0,0.2c0.1,0.7-0.5,1.4-1.2,1.5c-0.1,0-0.2,0-0.3,0h-2.9
	L216.7,16.6L216.7,16.6z M217.7,20.6h1.7c0.4,0.1,0.7-0.2,0.8-0.6c0-0.1,0-0.1,0-0.2c0-0.6-0.3-0.7-0.9-0.7h-1.6L217.7,20.6
	L217.7,20.6z"/>
<path d="M219.6,21.5h-3.1v-5.1h1.4v1.8h1.7c0.9-0.1,1.6,0.6,1.7,1.5c0,0.1,0,0.1,0,0.2c0.1,0.8-0.6,1.6-1.4,1.7
	C219.9,21.5,219.7,21.5,219.6,21.5z M216.9,21.1h2.7c0.6,0.1,1.2-0.4,1.3-1c0-0.1,0-0.2,0-0.2c0-0.7-0.5-1.2-1.1-1.3
	c-0.1,0-0.1,0-0.2,0h-2.1v-1.8h-0.6L216.9,21.1L216.9,21.1z M219.4,20.7h-1.9v-1.8h1.8c0.5,0,0.9,0.4,1,0.9
	C220.3,20.3,219.9,20.7,219.4,20.7L219.4,20.7z M217.9,20.3h1.5c0.3,0,0.5-0.1,0.6-0.4c0,0,0-0.1,0-0.1c0-0.3-0.1-0.5-0.7-0.5h-1.3
	L217.9,20.3L217.9,20.3z"/>
<path d="M222.6,16.6h1v1.8h2.9v-1.8h1v4.7h-1v-2.1h-2.9v2.1h-1L222.6,16.6L222.6,16.6z"/>
<path d="M227.6,21.5h-1.4v-2.1h-2.5v2.1h-1.4v-5.1h1.4v1.8h2.5v-1.8h1.4V21.5z M226.6,21.1h0.6v-4.3h-0.6v1.8h-3.3v-1.8h-0.6v4.3
	h0.6v-2.1h3.3L226.6,21.1L226.6,21.1z"/>
<path d="M228.9,18.9c0-1.3,0.8-2.5,2.8-2.5s2.8,1.2,2.8,2.5s-0.8,2.5-2.8,2.5S228.9,20.3,228.9,18.9z M233.4,18.9
	c0-1-0.8-1.7-1.7-1.7c-1,0-1.7,0.8-1.7,1.8c0,1,0.8,1.7,1.7,1.7c0.9,0.1,1.7-0.6,1.7-1.5C233.4,19.1,233.4,19,233.4,18.9z"/>
<path d="M231.6,21.6c-1.9,0-3-1-3-2.7s1.1-2.7,3-2.7s3,1,3,2.7S233.5,21.6,231.6,21.6z M231.6,16.6c-2.3,0-2.6,1.6-2.6,2.3
	s0.2,2.3,2.6,2.3s2.6-1.6,2.6-2.3S233.9,16.6,231.6,16.6L231.6,16.6z M231.6,20.8c-1.1,0-2-0.9-2-1.9c0-1.1,0.9-2,1.9-2
	c1.1,0,2,0.9,2,1.9c0,0,0,0,0,0c0.1,1-0.7,1.9-1.7,1.9C231.8,20.9,231.7,20.9,231.6,20.8z M231.6,17.4c-0.9,0-1.6,0.7-1.6,1.5
	c0,0.9,0.7,1.6,1.5,1.6s1.6-0.7,1.6-1.5c0,0,0,0,0,0c0.1-0.8-0.5-1.5-1.3-1.5C231.8,17.4,231.7,17.4,231.6,17.4L231.6,17.4z"/>
<path d="M240.7,21.3h-1v-3.5l0,0l-2.8,3.5h-1.1v-4.7h1v3.5l0,0l2.8-3.5h1.1L240.7,21.3L240.7,21.3z"/>
<path d="M240.9,21.5h-1.4v-3.2l-2.5,3.2h-1.4v-5.1h1.4v3.2l2.5-3.2h1.5V21.5z M239.9,21.1h0.5v-4.3h-0.8l-2.8,3.5h-0.3v-3.5H236v4.3
	h0.8l2.8-3.5h0.3V21.1z"/>
<path d="M173.1,21.3h1v-4.7h-4c0,0.6-0.1,2.7-0.1,3.4c0,0.3-0.1,0.5-0.4,0.6c0,0,0,0,0,0c-0.1,0-0.3,0-0.4-0.1v0.8
	c0.2,0.1,0.4,0.1,0.6,0.1c0.4,0,0.7-0.2,0.9-0.5c0.2-0.7,0.3-1.5,0.3-2.2v-1.4h2.1L173.1,21.3L173.1,21.3z"/>
<path d="M169.7,21.6c-0.2,0-0.5-0.1-0.7-0.1h-0.1v-1.3l0.3,0.2c0.1,0.1,0.2,0.1,0.3,0.1c0.1,0,0.2,0,0.2-0.4c0-0.7,0.1-2.8,0.1-3.4
	v-0.2h4.4v5.1h-1.4v-4h-1.7v1.2c0.1,0.8,0,1.6-0.3,2.3C170.6,21.4,170.2,21.6,169.7,21.6z M169.3,21.1c0.1,0,0.3,0.1,0.4,0.1
	c0.3,0,0.6-0.1,0.8-0.4c0.2-0.7,0.3-1.4,0.2-2.1v-1.6h2.5v4h0.6v-4.3h-3.6c0,0.8-0.1,2.6-0.1,3.2c0.1,0.4-0.2,0.7-0.5,0.8
	c0,0-0.1,0-0.1,0c-0.1,0-0.1,0-0.2,0V21.1L169.3,21.1z"/>
<path d="M179.4,21.3h1v-4.7h-4c0,0.6-0.1,2.7-0.1,3.4c0,0.3-0.1,0.5-0.4,0.6c0,0,0,0,0,0c-0.1,0-0.3,0-0.4-0.1v0.8
	c0.2,0.1,0.4,0.1,0.6,0.1c0.4,0,0.7-0.2,0.9-0.5c0.2-0.7,0.3-1.5,0.3-2.2v-1.4h2.1L179.4,21.3L179.4,21.3z"/>
<path d="M176.1,21.6c-0.2,0-0.5-0.1-0.7-0.1h-0.1v-1.3l0.3,0.2c0.1,0.1,0.2,0.1,0.3,0.1c0.1,0,0.2,0,0.2-0.4c0-0.8,0.1-2.8,0.1-3.4
	v-0.2h4.4v5.1h-1.4v-4h-1.7v1.2c0.1,0.8,0,1.6-0.3,2.3C177,21.4,176.5,21.6,176.1,21.6z M175.6,21.1c0.1,0,0.3,0.1,0.4,0.1
	c0.3,0,0.6-0.1,0.8-0.4c0.2-0.7,0.3-1.4,0.2-2.1v-1.6h2.5v4h0.6v-4.3h-3.6c0,0.8-0.1,2.6-0.1,3.2c0.1,0.4-0.2,0.7-0.5,0.8
	c0,0-0.1,0-0.1,0c-0.1,0-0.1,0-0.2,0L175.6,21.1L175.6,21.1z"/>
<path d="M213.8,17.3h-2.1v1.4c0.1,0.7,0,1.5-0.3,2.2c-0.2,0.3-0.5,0.5-0.9,0.5c-0.2,0-0.4,0-0.6-0.1v-0.8c0.1,0.1,0.3,0.1,0.4,0.1
	c0.3,0,0.5-0.3,0.4-0.6c0,0,0,0,0,0c0-0.7,0.1-2.8,0.1-3.4h4v4.7h-1L213.8,17.3L213.8,17.3z"/>
<path d="M210.4,21.6c-0.2,0-0.5,0-0.7-0.1h-0.1v-1.3l0.3,0.2c0.1,0.1,0.2,0.1,0.3,0.1c0.1,0,0.2,0,0.2-0.4c0-0.7,0.1-2.8,0.1-3.4
	v-0.2h4.4v5.1h-1.4v-4h-1.7v1.2c0.1,0.8,0,1.6-0.3,2.3C211.3,21.4,210.9,21.6,210.4,21.6z M210,21.1c0.1,0,0.3,0.1,0.4,0.1
	c0.3,0,0.6-0.1,0.7-0.4c0.2-0.7,0.3-1.4,0.2-2.1l0.1-1.6h2.5v4h0.6v-4.3h-3.6c0,0.8-0.1,2.6-0.1,3.2c0.1,0.4-0.2,0.7-0.5,0.8
	c0,0-0.1,0-0.1,0c-0.1,0-0.1,0-0.2,0L210,21.1L210,21.1z"/>
<path d="M199.7,20.4c0.2,0.1,0.4,0.1,0.5,0.1c0.4,0,0.7-0.3,0.8-0.6c-0.1-0.3-2-3.4-2-3.4h1.2l1.3,2.5l1.4-2.5h1.2
	c0,0-1.5,2.5-2.1,3.5s-0.8,1.4-1.7,1.4c-0.2,0-0.4,0-0.6-0.1L199.7,20.4L199.7,20.4z"/>
<path d="M200.3,21.6c-0.2,0-0.4,0-0.6-0.1h-0.1v-0.2v-1.2l0.3,0.1c0.2,0.1,0.3,0.1,0.5,0.1c0.3,0,0.5-0.2,0.5-0.4
	c-0.3-0.5-1.4-2.3-2-3.3l-0.2-0.3h1.7l1.2,2.3l1.2-2.3h1.7l-0.2,0.3c0,0-1.5,2.5-2.1,3.5S201.3,21.6,200.3,21.6z M199.9,21.2
	c0.1,0,0.3,0.1,0.4,0.1c0.7,0,1-0.3,1.5-1.3c0.4-0.8,1.5-2.5,1.9-3.2H203l-1.5,2.8l-1.4-2.8h-0.8c0.5,0.8,1.8,2.9,1.9,3.1V20v0.1
	c-0.1,0.4-0.5,0.7-1,0.7c-0.1,0-0.2,0-0.4,0L199.9,21.2L199.9,21.2z"/>
<path d="M239.4,15.3c-0.1,0.7-0.8,1.1-1.5,0.9c-0.5-0.1-0.8-0.5-0.9-0.9h0.4c0.3,0.5,0.9,0.6,1.4,0.3c0.1-0.1,0.2-0.2,0.3-0.3H239.4
	L239.4,15.3z"/>
<path d="M238.2,16.4c-0.7,0.1-1.3-0.3-1.4-1c0-0.1,0-0.1,0-0.2v-0.2h0.7v0.2c0.4,0.3,0.9,0.3,1.3,0v-0.2h0.7v0.2
	C239.5,15.9,239,16.4,238.2,16.4C238.3,16.4,238.3,16.4,238.2,16.4z M237.2,15.5c0.3,0.6,1,0.7,1.6,0.4c0.2-0.1,0.3-0.2,0.4-0.4l0,0
	c-0.5,0.6-1.3,0.6-1.8,0.2C237.3,15.6,237.3,15.5,237.2,15.5L237.2,15.5z"/>
</svg>
