<?xml version="1.0" encoding="utf-8"?>
<!-- Generator: Adobe Illustrator 19.2.1, SVG Export Plug-In . SVG Version: 6.00 Build 0)  -->
<svg version="1.1" id="Calque_1" xmlns="http://www.w3.org/2000/svg" xmlns:xlink="http://www.w3.org/1999/xlink" x="0px" y="0px"
	 viewBox="0 0 325.7 21.6" style="enable-background:new 0 0 325.7 21.6;" xml:space="preserve">
<title>logo__wipo-word-mark--fr</title>
<path d="M15,18.9c0-1.4,0.8-2.7,2.9-2.7s2.9,1.2,2.9,2.7s-0.8,2.7-2.9,2.7S15,20.3,15,18.9z M19.8,18.9c0-1-0.8-1.8-1.9-1.8
	s-1.8,0.8-1.8,1.9c0,1,0.8,1.8,1.8,1.8c1,0.1,1.8-0.6,1.9-1.6C19.9,19.1,19.9,19,19.8,18.9L19.8,18.9z"/>
<path d="M22.5,16.4h3.2c1.3,0,1.7,0.6,1.7,1.4c0,0.5-0.3,1-0.8,1.2l0,0c0.6,0.2,0.9,0.8,0.7,1.3c0,0.4,0,0.7,0.2,1.1h-1.1
	c-0.1-0.2-0.1-0.5-0.1-0.8c0-0.7-0.1-1.2-0.9-1.2h-1.8v2h-1L22.5,16.4L22.5,16.4z M25.4,18.7c0.6,0,0.9-0.2,0.9-0.7
	c0-0.4-0.3-0.7-0.7-0.7c-0.1,0-0.1,0-0.2,0h-1.8v1.5H25.4z"/>
<path d="M34.4,21.4h-0.6l-0.1-0.7c-0.5,0.5-1.2,0.8-1.9,0.8c-2.1,0-2.9-1.2-2.9-2.7s0.9-2.7,2.9-2.7c1.5,0,2.5,0.8,2.6,1.8h-1.1
	c-0.2-0.6-0.8-1.1-1.5-1c-1,0-1.9,0.8-1.9,1.8c0,1,0.8,1.9,1.8,1.9c0.8,0.1,1.6-0.5,1.7-1.3c0,0,0,0,0,0h-1.4v-0.8h2.5L34.4,21.4
	L34.4,21.4z"/>
<path d="M37.9,16.4h1.2l2.2,5h-1.2l-0.5-1.2h-2.4l-0.5,1.2h-1.1L37.9,16.4z M39.4,19.4l-0.9-2.1l-0.9,2.1H39.4z"/>
<path d="M42.7,16.4h1.2l3,3.8l0,0v-3.8h1v5h-1.2l-3-3.8l0,0v3.8h-1L42.7,16.4L42.7,16.4z"/>
<path d="M49.8,16.4h1.1v5h-1.1V16.4z"/>
<path d="M54.7,16.3c0.8,0,2.3,0.1,2.4,1.6H56c-0.1-0.6-0.7-0.9-1.3-0.8c-0.7,0-1.2,0.2-1.2,0.7c0,1.2,3.7,0,3.7,2.2
	c0,1.3-1.3,1.6-2.4,1.6c-1.8,0-2.5-0.7-2.5-1.8h1.1c0,0.7,0.6,1,1.4,1c0.6,0,1.2-0.2,1.2-0.7c0-1.2-3.7-0.2-3.7-2.2
	C52.5,16.7,53.5,16.3,54.7,16.3z"/>
<path d="M60.4,16.4h1.2l2.2,5h-1.2l-0.5-1.2h-2.4l-0.5,1.2h-1.1L60.4,16.4z M61.9,19.4l-0.9-2.1l-0.9,2.1H61.9L61.9,19.4z"/>
<path d="M65.9,17.2h-1.9v-0.8h4.9v0.8H67v4.2h-1.1V17.2z"/>
<path d="M70.2,16.4h1.1v5h-1.1V16.4z"/>
<path d="M72.9,18.9c0-1.4,0.8-2.7,2.9-2.7s2.9,1.2,2.9,2.7s-0.8,2.7-3,2.7S72.9,20.3,72.9,18.9z M77.7,18.9c0-1-0.8-1.8-1.9-1.8
	S74,17.9,74,18.9c0,1,0.8,1.8,1.8,1.8c1,0.1,1.8-0.6,1.9-1.6C77.7,19.1,77.7,19,77.7,18.9z"/>
<path d="M80.4,16.4h1.2l3,3.8l0,0v-3.8h1v5h-1.2l-3-3.8l0,0v3.8h-1L80.4,16.4L80.4,16.4z"/>
<path d="M90.5,16.4H92l1.8,3.9l1.7-3.9H97v5h-1v-4.1l0,0l-1.9,4.1h-0.9l-1.8-4.1l0,0v4.1h-1L90.5,16.4L90.5,16.4z"/>
<path d="M98.6,18.9c0-1.4,0.8-2.7,2.9-2.7s2.9,1.2,2.9,2.7s-0.8,2.7-2.9,2.7S98.6,20.3,98.6,18.9z M103.4,18.9c0-1-0.8-1.8-1.9-1.8
	s-1.8,0.8-1.8,1.9c0,1,0.8,1.8,1.8,1.8c1,0.1,1.8-0.6,1.9-1.6C103.4,19.1,103.4,19,103.4,18.9L103.4,18.9z"/>
<path d="M106.1,16.4h1.2l3,3.8l0,0v-3.8h1v5h-1.2l-3-3.8l0,0v3.8h-1L106.1,16.4L106.1,16.4z"/>
<path d="M113.2,16.4h2.7c2,0,2.4,1.1,2.4,2.6c0.1,1.2-0.7,2.3-1.9,2.4c-0.1,0-0.2,0-0.3,0h-3L113.2,16.4L113.2,16.4z M114.2,20.6
	h1.5c0.8,0,1.6-0.2,1.6-1.7c0.2-0.8-0.4-1.6-1.2-1.7c-0.2,0-0.3,0-0.5,0h-1.4V20.6L114.2,20.6z"/>
<path d="M119.9,16.4h1.1v5h-1.1V16.4z"/>
<path d="M124.6,16.4h1.2l2.2,5h-1.2l-0.5-1.2h-2.4l-0.5,1.2h-1.1L124.6,16.4z M126,19.4l-0.9-2.1l-0.9,2.1H126z"/>
<path d="M129.3,16.4h1.1v4.2h3v0.8h-4.1L129.3,16.4L129.3,16.4z"/>
<path d="M134.8,16.4h4.4v0.8h-3.3v1.3h3.2v0.8h-3.2v1.3h3.4v0.8h-4.4L134.8,16.4L134.8,16.4z"/>
<path d="M143.9,16.4h2.7c2,0,2.5,1.1,2.5,2.6c0.2,1.2-0.7,2.3-1.9,2.4c-0.1,0-0.2,0-0.3,0h-3L143.9,16.4L143.9,16.4z M144.9,20.6
	h1.5c0.8,0,1.6-0.2,1.6-1.7c0.2-0.8-0.4-1.6-1.2-1.7c-0.2,0-0.3,0-0.5,0h-1.4V20.6z"/>
<path d="M150.7,16.4h4.4v0.8h-3.3v1.3h3.2v0.8h-3.2v1.4h3.4v0.8h-4.4L150.7,16.4L150.7,16.4z"/>
<path d="M159.8,16.4h1v4.2h3v0.8h-4.1L159.8,16.4L159.8,16.4z"/>
<path d="M167.1,16.4h1.2l2.2,5h-1.2l-0.5-1.2h-2.4l-0.5,1.2h-1.1L167.1,16.4z M168.6,19.4l-0.9-2.1l-0.9,2.1H168.6L168.6,19.4z"/>
<path d="M174.9,16.4h3.7c0.9-0.1,1.8,0.5,1.9,1.4s-0.5,1.8-1.4,1.9c-0.1,0-0.2,0-0.4,0h-2.1v1.7h-1.7V16.4L174.9,16.4z M176.6,18.7
	h1.5c0.3,0,0.6-0.3,0.6-0.6s-0.3-0.6-0.6-0.6h-1.5V18.7z"/>
<path d="M181.9,16.4h4c1.2,0,1.7,0.6,1.7,1.4c0.1,0.5-0.3,1-0.8,1.1l0,0c0.4,0.1,0.6,0.5,0.6,0.9c0,0.5,0.1,1.1,0.3,1.6h-1.8
	c-0.1-0.2-0.1-0.5-0.1-0.7c0-0.8-0.3-0.9-0.7-0.9h-1.5v1.7h-1.7V16.4L181.9,16.4z M183.6,18.6h1.6c0.3,0,0.6-0.2,0.6-0.5
	c0-0.3-0.2-0.6-0.5-0.6c0,0-0.1,0-0.1,0h-1.6V18.6L183.6,18.6z"/>
<path d="M192.3,16.2c1.8,0,3.3,0.6,3.3,2.7s-1.5,2.7-3.3,2.7S189,21,189,18.9S190.5,16.2,192.3,16.2z M192.3,20.4
	c0.9,0,1.6-0.6,1.6-1.5c0-0.9-0.6-1.6-1.5-1.6c-0.9,0-1.6,0.6-1.6,1.5c0,0,0,0,0,0c-0.1,0.8,0.4,1.4,1.2,1.5
	C192,20.4,192.2,20.4,192.3,20.4z"/>
<path d="M197.1,16.4h3.7c0.9-0.1,1.8,0.5,1.9,1.4s-0.5,1.8-1.4,1.9c-0.1,0-0.2,0-0.4,0h-2.1v1.7h-1.7L197.1,16.4L197.1,16.4z
	 M198.8,18.7h1.5c0.3,0,0.6-0.3,0.6-0.6s-0.3-0.6-0.6-0.6h-1.5V18.7z"/>
<path d="M204.1,16.4h4c1.2,0,1.7,0.6,1.7,1.4c0.1,0.5-0.3,1-0.8,1.1l0,0c0.4,0.1,0.6,0.5,0.6,0.9c0,0.5,0.1,1.1,0.3,1.6h-1.8
	c-0.1-0.2-0.1-0.5-0.1-0.7c0-0.8-0.3-0.9-0.7-0.9h-1.5v1.7h-1.7L204.1,16.4L204.1,16.4z M205.8,18.6h1.6c0.3,0,0.6-0.2,0.6-0.5
	c0-0.3-0.2-0.6-0.5-0.6c0,0-0.1,0-0.1,0h-1.6V18.6L205.8,18.6z"/>
<path d="M211.5,16.4h1.7v5h-1.7V16.4z"/>
<path d="M214.9,16.4h5v1.1h-3.4v0.9h3.1v1h-3.1v0.9h3.4v1.1h-5V16.4L214.9,16.4z M217,14.9h1.8l-1,1h-1.4L217,14.9z"/>
<path d="M221.2,16.4h5.4v1.1h-1.8v3.9H223v-3.9h-1.8V16.4z"/>
<path d="M227.8,16.4h5v1.1h-3.4v0.9h3.1v1h-3.1v0.9h3.4v1.1h-5V16.4L227.8,16.4z M229.9,14.9h1.8l-1,1h-1.4L229.9,14.9z"/>
<path d="M237.7,16.4h1.7v5h-1.7V16.4z"/>
<path d="M241.2,16.3h1.9l2.3,3.1l0,0v-3.1h1.6v5h-1.8l-2.4-3.2l0,0v3.2h-1.6L241.2,16.3L241.2,16.3z"/>
<path d="M248.4,16.3h5.4v1.1h-1.8v3.9h-1.7v-3.9h-1.8V16.3z"/>
<path d="M255.1,16.3h5v1.1h-3.4v0.9h3.2v1h-3.1v0.9h3.4v1.1h-5L255.1,16.3L255.1,16.3z"/>
<path d="M261.8,16.3h1.7v3.8h3v1.2h-4.7V16.3L261.8,16.3z"/>
<path d="M267.9,16.3h1.7v3.8h3v1.2h-4.7V16.3L267.9,16.3z"/>
<path d="M274,16.3h5v1.1h-3.4v0.9h3.1v1h-3.1v0.9h3.4v1.1h-5V16.3L274,16.3z"/>
<path d="M286.7,19.4c-0.2,1.1-0.8,2.1-3.2,2.1c-2.1,0-3.1-0.9-3.1-2.7s1-2.7,3.1-2.7c1.5,0,2.8,0.3,3.2,2.1h-1.9
	c-0.1-0.6-0.7-1.1-1.3-1c-0.7,0-1.4,0.5-1.4,1.2c0,0.1,0,0.2,0,0.3c-0.1,0.7,0.3,1.4,1.1,1.5c0.1,0,0.2,0,0.3,0
	c0.6,0.1,1.2-0.4,1.3-1L286.7,19.4L286.7,19.4z"/>
<path d="M287.7,16.3h5.4v1.1h-1.8v3.9h-1.7v-3.9h-1.8V16.3z"/>
<path d="M294.4,16.3h1.7v3c0.1,0.6,0.6,1.1,1.3,1c0.6-0.1,1-0.5,1-1v-3h1.7v3.2c0,1.4-1,1.9-2.8,1.9s-2.8-0.5-2.8-1.9L294.4,16.3
	L294.4,16.3z"/>
<path d="M301.8,16.3h5v1.1h-3.4v0.9h3.1v1h-3.1v0.9h3.4v1.1h-5V16.3L301.8,16.3z"/>
<path d="M308.5,16.3h1.7v3.8h3v1.2h-4.7V16.3L308.5,16.3z"/>
<path d="M314.6,16.3h1.7v3.8h3v1.2h-4.7V16.3L314.6,16.3z"/>
<path d="M320.7,16.3h5v1.1h-3.4v0.9h3.1v1h-3.1v0.9h3.4v1.1h-5V16.3L320.7,16.3z"/>
<path d="M25.4,0.3h3.9v10.3h-2.6V2.4l0,0l-3.1,8.2h-2.2l-3.1-8.2l0,0v8.2h-2.6V0.3h3.9l2.9,7.4L25.4,0.3z"/>
<path d="M32.9,0.3h6.6C42.4,0.3,43,2,43,3.4c0,2.2-1.1,3.5-3.3,3.5h-4.1v3.7h-2.7V0.3L32.9,0.3z M35.6,5h2.9c0.8,0,1.8,0,1.8-1.4
	c0.1-0.7-0.3-1.3-1-1.5c-0.2,0-0.3,0-0.5,0h-3.1L35.6,5L35.6,5z"/>
<path d="M45.9,0.3h2.7v10.3h-2.7V0.3L45.9,0.3z"/>
<path d="M6.4,0c5.5,0,6.4,3.3,6.4,5.4s-0.9,5.4-6.4,5.4S0,7.6,0,5.4S0.9,0,6.4,0z M6.4,8.9c1.9,0,3.5-1.5,3.5-3.4S8.4,2,6.5,2
	S3,3.5,3,5.4c0,0,0,0,0,0C2.8,7.2,4.2,8.8,6,8.9C6.1,8.9,6.2,8.9,6.4,8.9z"/>
</svg>
