<svg id="Calque_1" data-name="Calque 1" xmlns="http://www.w3.org/2000/svg" viewBox="0 0 110.78 174.44"><defs><style>.cls-1{fill:#fff;}</style></defs><title>logo__wipo--zh</title><path class="cls-1" d="M595.78,657.78h-5.56v9.61H588.3v0.72h9.42v-0.72h-1.94v-9.61ZM595,667.26v0.13h-4V664.7h4v2.56Zm0-3.36V664h-4v-2.49h4v2.36Zm0-3.15v0.13h-4v-2.39h4v2.25Z" transform="translate(-553.14 -494.1)"/><path class="cls-1" d="M616.85,658.15h-6.34v5.92h6.34v-5.92Zm-0.75,5.08v0.13h-4.84v-4.49h4.84v4.36Z" transform="translate(-553.14 -494.1)"/><polygon class="cls-1" points="56.22 171.96 50.51 173.46 51.04 174.14 56.22 172.71 56.22 171.96"/><path class="cls-1" d="M606.85,662.48a20.83,20.83,0,0,1-2.89,2.71l0.45,0.71c2-.39,4.91-0.91,4.91-0.91l0-.74s-2.1.35-3.91,0.69a14,14,0,0,0,3.78-4.63l-0.69-.28a8,8,0,0,1-.87,1.45l-0.11.15c-0.38,0-1.52.2-2.56,0.37a19.17,19.17,0,0,0,2.59-4.31l-0.7-.24a17.19,17.19,0,0,1-3,4.64l0.48,0.77C605.12,662.72,606.13,662.58,606.85,662.48Z" transform="translate(-553.14 -494.1)"/><path class="cls-1" d="M608.87,667.93l0.69,0.51a8,8,0,0,0,3.39-2.82l-0.63-.39A7.55,7.55,0,0,1,608.87,667.93Z" transform="translate(-553.14 -494.1)"/><path class="cls-1" d="M615.05,665.2l-0.55.56a9.05,9.05,0,0,1,3.29,2.78l0.56-.5A9.76,9.76,0,0,0,615.05,665.2Z" transform="translate(-553.14 -494.1)"/><polygon class="cls-1" points="35.79 171.5 30.08 172.99 30.61 173.67 35.79 172.25 35.79 171.5"/><path class="cls-1" d="M586,662.19a21.14,21.14,0,0,1-2.65,2.44l0.44,0.71c2-.39,4.91-0.91,4.91-0.91l0-.74s-2.1.35-3.91,0.69a14.07,14.07,0,0,0,3.78-4.63l-0.69-.28a7.82,7.82,0,0,1-.87,1.45l-0.31.4c-0.5.07-1.46,0.2-2.35,0.34a19.27,19.27,0,0,0,2.58-4.3l-0.7-.24a17.27,17.27,0,0,1-3,4.64l0.48,0.77C584.44,662.41,585.31,662.28,586,662.19Z" transform="translate(-553.14 -494.1)"/><path class="cls-1" d="M592.68,624.56H592v3.11h-3.4v-3.06h-0.76v3.06h-2.94v-2.35h-0.76v2.35h-2.38v0.75h2.38V636h0.76v-0.89h10.38v-0.77H584.87v-5.95h2.94v4h4.92v-4h3.4v-0.75h-3.45v-3.11Zm-0.71,7v0.13h-3.4v-3.27H592v3.13Z" transform="translate(-553.14 -494.1)"/><polygon class="cls-1" points="57.57 137.57 57.57 141.97 58.33 141.97 58.33 137.58 58.31 137.58 57.57 137.57"/><path class="cls-1" d="M613.13,631.41a5.09,5.09,0,0,1-1.58-1.24l-0.14-.17H614v-5.12h-9.66V630h2.73a3.91,3.91,0,0,1-1.54,1.25,12.56,12.56,0,0,1-3.55,1.07l0.54,0.67a12.86,12.86,0,0,0,3.35-1.07A4.06,4.06,0,0,0,608,630h2.53a6,6,0,0,0,2.31,2.08,12.78,12.78,0,0,0,3.11,1l0.57-.66A12.36,12.36,0,0,1,613.13,631.41Zm-3.51-5.83h3.68V627h-3.68v-1.44Zm-0.77,3.57v0.13h-3.69v-1.56h3.69v1.42Zm0-2.26V627h-3.69v-1.44h3.69v1.31Zm0.77,2.4v-1.56h3.68v1.56h-3.68Z" transform="translate(-553.14 -494.1)"/><path class="cls-1" d="M606.34,634.25a4.69,4.69,0,0,1-2.09.95,10,10,0,0,1-1.12.19l0.5,0.69a6.3,6.3,0,0,0,3.22-1.27A4.41,4.41,0,0,0,608,631.7h-0.74A3.74,3.74,0,0,1,606.34,634.25Z" transform="translate(-553.14 -494.1)"/><path class="cls-1" d="M620.83,652.21l0,0.05-1.38.71,0-.06h0a15.76,15.76,0,0,0-3-3.94h0l-0.06-.06,1.21-.67,0,0a13.18,13.18,0,0,1,3.17,3.94h0Zm-6.71-3.4,0.06,0,0,0.06a11.85,11.85,0,0,1-3.83,4h0l0,0-1.23-.92h0l0.08,0a9.88,9.88,0,0,0,3.66-3.73h0l0-.05Zm-7.69,1.78,0.06,0a0.49,0.49,0,0,0,.2-0.44h0v-4.47h-2.52v-1.21h4.05v5.39l2.54-1.21V650l-3.39,1.61-0.94-1.06h0Zm5-3.07v-6.6h7.8v6.6h-7.8Zm1.51-1.21h4.74v-4.18h-4.74v4.18Zm-3.18-3.67,0,0.06-1.33.74,0-.05h0a5.74,5.74,0,0,0-2.41-2.24h0l-0.1-.05,1.3-.7h0a7.09,7.09,0,0,1,2.5,2.23h0Z" transform="translate(-553.14 -494.1)"/><path class="cls-1" d="M630.51,643.39h0a8,8,0,0,1,2.27,1.86h0l0.05,0.06-0.07,0-0.41.22h2.09a6.79,6.79,0,0,0,1.82-2.09h0l0,0,1.34,0.56,0,0.07a8.33,8.33,0,0,1-1.27,1.5h4.75v1.19h-12V649c0,1.75-1,3.11-2.87,4h0l0,0-1.14-.91h0l0.09,0a3.6,3.6,0,0,0,2.45-3.43h0v-3.14h3.54a5.36,5.36,0,0,0-1.6-1.44h0l-0.08-.05,1-.69h0Zm-4.48-.18V642h7.31a5.82,5.82,0,0,0-1.69-1.43h0l-0.09-.05,1.08-.68,0,0a10.08,10.08,0,0,1,2.34,1.91h0l0.05,0.06-0.07,0-0.29.14h6.38v1.17H626Z" transform="translate(-553.14 -494.1)"/><path class="cls-1" d="M663.82,652.13l0.1,0-1.16,1,0,0h0a14.42,14.42,0,0,1-4.56-3.35h0a15.17,15.17,0,0,1-4.89,3.26h0l0,0-1.15-1,0.09,0a13.83,13.83,0,0,0,5.15-3.28h0a15.43,15.43,0,0,1-2.71-5.27h0l-0.2-.79H653v-1.24H662v1.15a17.35,17.35,0,0,1-3,6.19h0a12.47,12.47,0,0,0,4.75,3.39h0Zm-9.42-4.56,0,0.06-1.34.63,0-.05a4.47,4.47,0,0,0-1.48-1.83h0V653h-1.52v-5.58a6.16,6.16,0,0,1-2,2.51h0l0,0-1.11-.74,0.06-.05a10.33,10.33,0,0,0,3-4.56h-2.21v-1.25h2.31V640h1.52v3.27h2.1v1.25h-2.11l0,1.14,0.71-.38,0,0a6.1,6.1,0,0,1,2.11,2.23h0Zm3.83,0a15.19,15.19,0,0,0,2.25-5H655.9a13.6,13.6,0,0,0,2.34,5h0Z" transform="translate(-553.14 -494.1)"/><path class="cls-1" d="M592.31,650.79a13.44,13.44,0,0,0-3.78-2.38c0-.11.07-0.21,0.1-0.31,0.07-.31.13-0.64,0.17-1H592v-1.21h-3c0-.65.06-1.26,0.06-1.73s0-.59,0-0.75h2.73v-1.23h-5.12a6.55,6.55,0,0,0,.48-1.89v-0.06l-1.41-.24v0.06a9,9,0,0,1-2.77,5l1.37,0.65a8.84,8.84,0,0,0,1.82-2.34h1.42c0,0.14,0,.4,0,0.75s0,1.08-.07,1.73h-4.17v1.21h4c0,0.22-.08.43-0.12,0.63a6,6,0,0,1-2.55,3.23,12.75,12.75,0,0,1-1.52.92l-0.54.26,1,1.15a10.46,10.46,0,0,0,4.42-3.77,10.13,10.13,0,0,1,3.22,2.1l0,0,1-.85Z" transform="translate(-553.14 -494.1)"/><path class="cls-1" d="M592.86,641.44V652h1.51v-1.09h2.76V652h1.57V641.44h-5.84Zm4.27,8.27h-2.76v-7h2.76v7Z" transform="translate(-553.14 -494.1)"/><path class="cls-1" d="M553.14,600.09h4.33l3.08,11.61h0l3.26-11.61h4.33l3.26,11.61h0l3.08-11.61h4.33l-5,15.94h-4.46L566,604.69h0L562.65,616h-4.47Z" transform="translate(-553.14 -494.1)"/><path class="cls-1" d="M583.26,600.09h4.33V616h-4.33V600.09Z" transform="translate(-553.14 -494.1)"/><path class="cls-1" d="M594,600.09h10.71c4.54,0,5.63,2.7,5.63,4.85,0,3.39-1.79,5.4-5.29,5.4H598.3V616H594V600.09Zm4.33,7.35h4.64c1.34,0,2.9,0,2.9-2.19s-1.28-2.25-2.5-2.25h-5v4.44Z" transform="translate(-553.14 -494.1)"/><path class="cls-1" d="M624.73,599.65c8.57,0,9.91,5.09,9.91,8.42s-1.34,8.42-9.91,8.42-9.91-5.09-9.91-8.42S616.16,599.65,624.73,599.65Zm0,13.8c3.93,0,5.31-2.9,5.31-5.38s-1.38-5.38-5.31-5.38-5.31,2.9-5.31,5.38S620.8,613.45,624.73,613.45Z" transform="translate(-553.14 -494.1)"/><path class="cls-1" d="M633.27,515.22a11.83,11.83,0,0,0-.79-1,8.23,8.23,0,0,0,2.07-5.17,7.23,7.23,0,0,0-1.21-3.9c-2.69-4.27-9.73-8-19.64-11v1.44c10.31,2.63,17.27,6,19.5,9.7a5.08,5.08,0,0,1,.77,2.62c0,1.74-1,3.42-2.74,5-3.49-3.26-9.56-6.18-17.54-8.62v1.44c8.07,2.05,14.07,4.54,17.38,7.32a30.52,30.52,0,0,1-8.35,4.75,77.66,77.66,0,0,0-9-3.34v1.44q4.34,1.11,7.86,2.38c-9,3.48-22.33,6.33-38.32,8.19v4.76a175.21,175.21,0,0,0,30.47-6.58v1.43q4.34,1.11,7.86,2.37c-9,3.48-22.33,6.33-38.32,8.19v4.76a175.58,175.58,0,0,0,30.47-6.58v1.42q4.35,1.11,7.86,2.38c-9,3.48-22.33,6.33-38.33,8.19v4.76A175.22,175.22,0,0,0,613.68,545v1.42q4.34,1.11,7.86,2.38c-9,3.48-22.33,6.33-38.32,8.19v4.76a175.4,175.4,0,0,0,30.47-6.58v1.42q4.35,1.11,7.86,2.38c-9,3.48-22.33,6.33-38.32,8.19v4.76c18.26-2.48,33.13-6.52,42.08-11.45a25.08,25.08,0,0,1,5.77,3.44c-6.68,5.85-24.42,10.7-47.84,13.42v4.76c24.63-3.34,43.09-9.52,49.17-16.88a8.1,8.1,0,0,1,.75,1,5.11,5.11,0,0,1,.82,2.7c0,8.12-20.7,15.1-50.74,18.59v4.76c30.33-4.12,51.32-12.55,51.32-22.17a7.28,7.28,0,0,0-1.29-4,10.76,10.76,0,0,0-.78-1,8.24,8.24,0,0,0,2.07-5.17,7.25,7.25,0,0,0-1.28-4,11.4,11.4,0,0,0-.78-1,8.24,8.24,0,0,0,2.07-5.17,7.25,7.25,0,0,0-1.28-4,11.45,11.45,0,0,0-.79-1,8.23,8.23,0,0,0,2.07-5.17,7.27,7.27,0,0,0-1.28-4,11.58,11.58,0,0,0-.79-1,8.24,8.24,0,0,0,2.07-5.17,7.29,7.29,0,0,0-1.28-4,11.78,11.78,0,0,0-.78-1,8.23,8.23,0,0,0,2.07-5.17A7.25,7.25,0,0,0,633.27,515.22Zm-19.56,9.39a69.18,69.18,0,0,0,11.58-4.86,25,25,0,0,1,5.77,3.44,30.46,30.46,0,0,1-8.34,4.75A77.17,77.17,0,0,0,613.71,524.62Zm0,10.17a69.26,69.26,0,0,0,11.58-4.85,25.06,25.06,0,0,1,5.77,3.44,30.52,30.52,0,0,1-8.34,4.75A77.23,77.23,0,0,0,613.72,534.79Zm0,10.17a69.24,69.24,0,0,0,11.58-4.85,25.06,25.06,0,0,1,5.77,3.44,30.6,30.6,0,0,1-8.34,4.75A77.48,77.48,0,0,0,613.71,545Zm0,10.17a69.1,69.1,0,0,0,11.58-4.86,25,25,0,0,1,5.77,3.44,30.47,30.47,0,0,1-8.34,4.75A77.91,77.91,0,0,0,613.71,555.13ZM633.14,556a5.1,5.1,0,0,1,.82,2.7c0,1.74-1,3.42-2.74,5a25.41,25.41,0,0,0-5.24-3.68,23.44,23.44,0,0,0,6.41-5.05A8,8,0,0,1,633.14,556Zm0-10.16a5.1,5.1,0,0,1,.81,2.69c0,1.74-1,3.42-2.74,5a25.38,25.38,0,0,0-5.24-3.68,23.42,23.42,0,0,0,6.41-5.05A7.89,7.89,0,0,1,633.15,545.85Zm0-10.17a5.11,5.11,0,0,1,.81,2.69c0,1.74-1,3.42-2.74,5a25.41,25.41,0,0,0-5.24-3.68,23.47,23.47,0,0,0,6.41-5.05A7.82,7.82,0,0,1,633.14,535.67Zm0-10.17a5.07,5.07,0,0,1,.82,2.69c0,1.74-1,3.42-2.74,5a25.46,25.46,0,0,0-5.24-3.68,23.43,23.43,0,0,0,6.41-5.05A8.29,8.29,0,0,1,633.14,525.5Zm-1.92-2.45a25.47,25.47,0,0,0-5.24-3.68,23.46,23.46,0,0,0,6.41-5.05,8.09,8.09,0,0,1,.76,1A5.11,5.11,0,0,1,634,518C634,519.76,633,521.45,631.22,523.06Z" transform="translate(-553.14 -494.1)"/></svg>
