<svg xmlns="http://www.w3.org/2000/svg" viewBox="0 0 48.61999 10.84009"><defs><style>.cls-1{fill:#fff;}</style></defs><title>logo__wipo-wordmark-es-fr--no-subtitle</title><g id="Layer_2" data-name="Layer 2"><g id="Calque_1" data-name="Calque 1"><path class="cls-1" d="M25.38.28h3.93V10.54h-2.6v-8.22h0l-3.12,8.22H21.34l-3.12-8.22h0v8.22H15.63V.28h3.93l2.92,7.39Z"/><path class="cls-1" d="M32.94.28h6.62c2.8,0,3.48,1.74,3.48,3.12,0,2.18994-1.1,3.48-3.27,3.48H35.62v3.66H32.94Zm2.68,4.73h2.87c.83,0,1.79,0,1.79-1.41a1.2701,1.2701,0,0,0-1.55-1.45H35.61V5.01Z"/><path class="cls-1" d="M45.94.28h2.68V10.54H45.94Z"/><path class="cls-1" d="M6.38,0c5.52,0,6.38,3.27,6.38,5.42s-.86,5.42-6.38,5.42S0,7.56006,0,5.42.87,0,6.38,0Zm0,8.88A3.46,3.46,0,1,0,2.96023,5.38025L2.96,5.42A3.2403,3.2403,0,0,0,6.38,8.88Z"/></g></g></svg>