<svg id="Calque_1" data-name="Calque 1" xmlns="http://www.w3.org/2000/svg" viewBox="0 0 122.94 24.76" preserveAspectRatio="xMinYMax meet"><defs><style>.cls-1,.cls-2{fill:#fff;}.cls-2{stroke:#fff;stroke-width:0.3px;}</style></defs><title>logo__wipo-word-mark--zh</title><path class="cls-1" d="M126.06,644.27h2.79l2,7.47h0l2.09-7.47h2.79l2.1,7.47h0l2-7.47h2.79l-3.24,10.26h-2.87l-2.16-7.3h0l-2.15,7.3h-2.87Z" transform="translate(-126.06 -643.96)"/><path class="cls-1" d="M145.43,644.26h2.79v10.26h-2.79V644.26Z" transform="translate(-126.06 -643.96)"/><path class="cls-1" d="M152.32,644.26h6.9c2.91,0,3.62,1.74,3.62,3.12,0,2.18-1.15,3.48-3.4,3.48h-4.32v3.67h-2.79V644.26Zm2.79,4.72h3c0.86,0,1.87,0,1.87-1.41s-0.82-1.45-1.61-1.45h-3.25V649Z" transform="translate(-126.06 -643.96)"/><path class="cls-1" d="M172.15,644c5.52,0,6.38,3.27,6.38,5.41s-0.86,5.42-6.37,5.42-6.38-3.27-6.38-5.42S166.63,644,172.15,644Zm0,8.87a3.46,3.46,0,1,0-3.42-3.46A3.23,3.23,0,0,0,172.15,652.84Z" transform="translate(-126.06 -643.96)"/><path class="cls-2" d="M234.23,661h-3.59v6.21H229.4v0.46h6.08v-0.46h-1.25V661Zm-0.49,6.12v0.09h-2.61v-1.74h2.61v1.65Zm0-2.17V665h-2.61v-1.61h2.61V665Zm0-2V663h-2.61v-1.54h2.61v1.46Z" transform="translate(-126.06 -643.96)"/><path class="cls-2" d="M247.84,661.24h-4.09v3.82h4.1v-3.82Zm-0.49,3.28v0.09h-3.12v-2.9h3.12v2.81Z" transform="translate(-126.06 -643.96)"/><polygon class="cls-2" points="116.93 22.39 113.25 23.36 113.59 23.79 116.93 22.87 116.93 22.39"/><path class="cls-2" d="M241.38,664a13.36,13.36,0,0,1-1.87,1.75l0.29,0.46c1.29-.25,3.17-0.58,3.17-0.58v-0.48s-1.35.22-2.52,0.44a9.07,9.07,0,0,0,2.44-3l-0.44-.18a5.12,5.12,0,0,1-.56.94l-0.07.09c-0.24,0-1,.13-1.65.24a12.47,12.47,0,0,0,1.67-2.78l-0.46-.15a11.11,11.11,0,0,1-1.92,3l0.31,0.5C240.27,664.19,240.91,664.1,241.38,664Z" transform="translate(-126.06 -643.96)"/><path class="cls-2" d="M242.68,667.56l0.44,0.33a5.12,5.12,0,0,0,2.19-1.82l-0.4-.25A4.89,4.89,0,0,1,242.68,667.56Z" transform="translate(-126.06 -643.96)"/><path class="cls-2" d="M246.67,665.79l-0.36.36a5.83,5.83,0,0,1,2.12,1.79l0.36-.32A6.3,6.3,0,0,0,246.67,665.79Z" transform="translate(-126.06 -643.96)"/><polygon class="cls-2" points="103.75 22.09 100.06 23.05 100.4 23.49 103.75 22.57 103.75 22.09"/><path class="cls-2" d="M227.9,663.85a13.68,13.68,0,0,1-1.71,1.58l0.29,0.46c1.29-.25,3.17-0.59,3.17-0.59v-0.47s-1.36.22-2.53,0.45a9.09,9.09,0,0,0,2.44-3l-0.45-.18a5.08,5.08,0,0,1-.56.94l-0.2.26c-0.32,0-.94.13-1.52,0.22a12.48,12.48,0,0,0,1.67-2.78l-0.46-.16a11.14,11.14,0,0,1-1.92,3l0.31,0.49C226.91,664,227.47,663.91,227.9,663.85Z" transform="translate(-126.06 -643.96)"/><path class="cls-2" d="M151.51,660.39h-0.46v2h-2.2v-2h-0.49v2h-1.9v-1.51H146v1.51h-1.54v0.49H146v4.91h0.49v-0.57h6.7v-0.5h-6.7v-3.84h1.9v2.59h3.18v-2.59h2.19v-0.49h-2.23v-2Zm-0.46,4.52V665h-2.2v-2.11h2.2v2Z" transform="translate(-126.06 -643.96)"/><polygon class="cls-2" points="37.09 21.01 37.09 23.86 37.58 23.86 37.58 21.02 37.56 21.02 37.09 21.01"/><path class="cls-2" d="M164.71,664.81a3.24,3.24,0,0,1-1-.8l-0.09-.11h1.71v-3.3h-6.24v3.3h1.76a2.52,2.52,0,0,1-1,.81,8.16,8.16,0,0,1-2.29.69l0.35,0.43a8.25,8.25,0,0,0,2.16-.69,2.61,2.61,0,0,0,1.33-1.24H163a3.81,3.81,0,0,0,1.49,1.35,8.21,8.21,0,0,0,2,.65l0.37-.42A8,8,0,0,1,164.71,664.81ZM162.44,661h2.37V662h-2.37V661Zm-0.5,2.31v0.09h-2.38v-1h2.38v0.92Zm0-1.46V662h-2.38V661h2.38v0.85Zm0.5,1.55v-1h2.37v1h-2.37Z" transform="translate(-126.06 -643.96)"/><path class="cls-2" d="M160.33,666.64a3,3,0,0,1-1.35.61,6.82,6.82,0,0,1-.72.12l0.33,0.44a4.08,4.08,0,0,0,2.08-.82,2.86,2.86,0,0,0,.76-2h-0.48A2.42,2.42,0,0,1,160.33,666.64Z" transform="translate(-126.06 -643.96)"/><path class="cls-2" d="M195.24,667.83l0,0-0.89.46,0,0h0a10.14,10.14,0,0,0-1.92-2.55h0l0,0,0.78-.44,0,0a8.48,8.48,0,0,1,2,2.54h0Zm-4.33-2.2,0,0,0,0a7.63,7.63,0,0,1-2.47,2.61h0l0,0-0.79-.59h0l0,0a6.39,6.39,0,0,0,2.36-2.41h0l0,0Zm-5,1.15,0,0a0.32,0.32,0,0,0,.13-0.28h0v-2.89h-1.62V662.8h2.62v3.48l1.64-.78v0.92l-2.19,1-0.61-.68h0Zm3.22-2v-4.26h5v4.26h-5Zm1-.78h3.06v-2.7h-3.06V664Zm-2.06-2.37,0,0-0.86.48,0,0h0a3.71,3.71,0,0,0-1.56-1.44h0l-0.07,0,0.84-.46h0a4.59,4.59,0,0,1,1.61,1.44h0Z" transform="translate(-126.06 -643.96)"/><path class="cls-2" d="M201.49,662.13h0a5.16,5.16,0,0,1,1.46,1.2h0l0,0,0,0-0.26.14H204a4.37,4.37,0,0,0,1.18-1.36h0l0,0,0.86,0.36,0,0a5.42,5.42,0,0,1-.82,1h3.07v0.76h-7.74v1.47a2.85,2.85,0,0,1-1.86,2.62h0l-0.74-.59h0l0.06,0a2.33,2.33,0,0,0,1.58-2.22h0v-2h2.28a3.44,3.44,0,0,0-1-.93h0l-0.05,0,0.67-.45h0ZM198.6,662v-0.75h4.72a3.76,3.76,0,0,0-1.09-.92h0l-0.06,0,0.7-.44h0a6.46,6.46,0,0,1,1.51,1.23h0l0,0,0,0-0.19.09h4.12V662H198.6Z" transform="translate(-126.06 -643.96)"/><path class="cls-2" d="M223,667.77l0.06,0-0.75.62h0a9.3,9.3,0,0,1-2.94-2.16h0a9.77,9.77,0,0,1-3.16,2.1h0l-0.74-.66,0.06,0a8.94,8.94,0,0,0,3.33-2.12h0a10,10,0,0,1-1.75-3.4h0l-0.13-.51H216v-0.8h5.86v0.74a11.18,11.18,0,0,1-1.92,4h0a8,8,0,0,0,3.07,2.19h0Zm-6.08-2.95,0,0-0.87.41,0,0a2.89,2.89,0,0,0-1-1.18h0v4.25h-1V664.7a4,4,0,0,1-1.29,1.62h0l-0.72-.48,0,0a6.7,6.7,0,0,0,1.93-2.94h-1.43v-0.81h1.49V660h1v2.11h1.36v0.81H215.1l0,0.73,0.46-.24h0a3.93,3.93,0,0,1,1.36,1.44h0Zm2.47,0a9.82,9.82,0,0,0,1.45-3.2h-3a8.79,8.79,0,0,0,1.51,3.2h0Z" transform="translate(-126.06 -643.96)"/><path class="cls-2" d="M176.83,666.9a8.63,8.63,0,0,0-2.44-1.54c0-.07,0-0.13.06-0.2s0.08-.41.11-0.62h2v-0.78h-2c0-.42,0-0.81,0-1.12s0-.38,0-0.49h1.76v-0.79h-3.31a4.26,4.26,0,0,0,.31-1.22v0l-0.91-.15v0a5.81,5.81,0,0,1-1.79,3.26l0.89,0.42a5.66,5.66,0,0,0,1.17-1.51h0.92c0,0.09,0,.26,0,0.49s0,0.7,0,1.12H171v0.78h2.6c0,0.14,0,.28-0.08.41a3.89,3.89,0,0,1-1.65,2.08,8.27,8.27,0,0,1-1,.6l-0.35.17,0.67,0.74a6.77,6.77,0,0,0,2.85-2.43,6.58,6.58,0,0,1,2.08,1.35l0,0,0.63-.55Z" transform="translate(-126.06 -643.96)"/><path class="cls-2" d="M177.18,660.87v6.83h1V667h1.78v0.7h1v-6.83h-3.77Zm2.76,5.34h-1.78v-4.55h1.78v4.55Z" transform="translate(-126.06 -643.96)"/></svg>
