<svg id="Calque_1" data-name="Calque 1" xmlns="http://www.w3.org/2000/svg" viewBox="0 0 325.71 21.57"><defs><style>.cls-1{fill:#fff;}</style></defs><title>logo__wipo-word-mark--fr</title><path class="cls-1" d="M141.1,1101.35c0-1.41.83-2.65,2.95-2.65s2.95,1.23,2.95,2.65-0.83,2.65-2.95,2.65S141.1,1102.76,141.1,1101.35Zm4.8,0a1.85,1.85,0,1,0-1.85,1.86A1.73,1.73,0,0,0,145.91,1101.35Z" transform="translate(-126.06 -1082.42)"/><path class="cls-1" d="M148.59,1098.84h3.17c1.28,0,1.69.58,1.69,1.36a1.18,1.18,0,0,1-.83,1.21h0a1.13,1.13,0,0,1,.73,1.35,2.1,2.1,0,0,0,.21,1.07h-1.14a1.68,1.68,0,0,1-.13-0.76c0-.72-0.1-1.22-0.87-1.22h-1.79v2H148.6v-5Zm2.87,2.25c0.58,0,.9-0.18.9-0.74a0.73,0.73,0,0,0-.9-0.72h-1.82v1.46h1.82Z" transform="translate(-126.06 -1082.42)"/><path class="cls-1" d="M160.48,1103.85h-0.62l-0.15-.65a2.49,2.49,0,0,1-1.91.79c-2.12,0-2.95-1.23-2.95-2.65s0.88-2.65,2.92-2.65c1.52,0,2.5.77,2.61,1.75h-1.14a1.43,1.43,0,0,0-1.5-1,1.86,1.86,0,0,0-.05,3.72,1.53,1.53,0,0,0,1.73-1.32H158v-0.79h2.47v2.75Z" transform="translate(-126.06 -1082.42)"/><path class="cls-1" d="M164,1098.84h1.25l2.23,5h-1.17l-0.53-1.24h-2.36l-0.52,1.24h-1.14Zm1.47,3-0.86-2.11-0.87,2.11h1.73Z" transform="translate(-126.06 -1082.42)"/><path class="cls-1" d="M168.79,1098.83H170l3,3.76h0v-3.76h1v5h-1.19l-3-3.76h0v3.76h-1v-5Z" transform="translate(-126.06 -1082.42)"/><path class="cls-1" d="M175.87,1098.83h1.05v5h-1.05v-5Z" transform="translate(-126.06 -1082.42)"/><path class="cls-1" d="M180.78,1098.69c0.77,0,2.32.14,2.45,1.59h-1.14a1.06,1.06,0,0,0-1.26-.81c-0.7,0-1.16.22-1.16,0.69,0,1.18,3.73,0,3.73,2.19,0,1.29-1.34,1.63-2.41,1.63-1.8,0-2.53-.71-2.54-1.76h1.14c0,0.66.58,1,1.44,1,0.64,0,1.24-.19,1.23-0.74,0-1.24-3.69-.16-3.69-2.22C178.57,1099.13,179.56,1098.69,180.78,1098.69Z" transform="translate(-126.06 -1082.42)"/><path class="cls-1" d="M186.51,1098.83h1.25l2.23,5h-1.17l-0.53-1.24h-2.36l-0.52,1.24h-1.14Zm1.47,3-0.86-2.11-0.87,2.11H188Z" transform="translate(-126.06 -1082.42)"/><path class="cls-1" d="M192,1099.61h-1.88v-0.79H195v0.79H193.1v4.23H192v-4.23Z" transform="translate(-126.06 -1082.42)"/><path class="cls-1" d="M196.31,1098.83h1.05v5h-1.05v-5Z" transform="translate(-126.06 -1082.42)"/><path class="cls-1" d="M198.95,1101.33c0-1.41.83-2.65,2.95-2.65s2.95,1.23,2.95,2.65S204,1104,201.89,1104,198.95,1102.74,198.95,1101.33Zm4.8,0a1.85,1.85,0,1,0-1.85,1.86A1.73,1.73,0,0,0,203.75,1101.33Z" transform="translate(-126.06 -1082.42)"/><path class="cls-1" d="M206.44,1098.82h1.21l3,3.76h0v-3.76h1v5h-1.19l-3-3.76h0v3.76h-1v-5Z" transform="translate(-126.06 -1082.42)"/><path class="cls-1" d="M216.55,1098.82h1.52l1.76,3.89,1.74-3.89h1.5v5h-1l0-4.14h0l-1.85,4.14h-0.9l-1.84-4.14h0l0,4.14h-1v-5Z" transform="translate(-126.06 -1082.42)"/><path class="cls-1" d="M224.66,1101.32c0-1.41.83-2.65,2.95-2.65s2.95,1.23,2.95,2.65-0.83,2.65-2.95,2.65S224.66,1102.73,224.66,1101.32Zm4.8,0a1.85,1.85,0,1,0-1.85,1.86A1.73,1.73,0,0,0,229.47,1101.32Z" transform="translate(-126.06 -1082.42)"/><path class="cls-1" d="M232.16,1098.82h1.21l3,3.76h0v-3.76h1v5h-1.19l-3-3.76h0v3.76h-1v-5Z" transform="translate(-126.06 -1082.42)"/><path class="cls-1" d="M239.23,1098.81h2.7c2,0,2.45,1.12,2.45,2.55a2.19,2.19,0,0,1-2.2,2.46h-3v-5Zm1.05,4.22h1.48c0.76,0,1.56-.25,1.56-1.71a1.46,1.46,0,0,0-1.62-1.73h-1.42V1103Z" transform="translate(-126.06 -1082.42)"/><path class="cls-1" d="M246,1098.81h1.05v5H246v-5Z" transform="translate(-126.06 -1082.42)"/><path class="cls-1" d="M250.61,1098.81h1.25l2.23,5h-1.17l-0.53-1.24H250l-0.52,1.24h-1.14Zm1.47,3-0.86-2.11-0.87,2.11h1.73Z" transform="translate(-126.06 -1082.42)"/><path class="cls-1" d="M255.39,1098.81h1.05V1103h3v0.83h-4.1v-5Z" transform="translate(-126.06 -1082.42)"/><path class="cls-1" d="M260.85,1098.81h4.35v0.79h-3.3v1.26h3.17v0.79h-3.17V1103h3.35v0.79h-4.41v-5Z" transform="translate(-126.06 -1082.42)"/><path class="cls-1" d="M269.93,1098.8h2.7c2,0,2.45,1.12,2.45,2.55a2.18,2.18,0,0,1-2.2,2.46h-3v-5ZM271,1103h1.48c0.76,0,1.56-.25,1.56-1.71a1.46,1.46,0,0,0-1.62-1.73H271V1103Z" transform="translate(-126.06 -1082.42)"/><path class="cls-1" d="M276.73,1098.8h4.35v0.79h-3.3v1.26H281v0.79h-3.17V1103h3.35v0.79h-4.41v-5Z" transform="translate(-126.06 -1082.42)"/><path class="cls-1" d="M285.81,1098.8h1.05V1103h3v0.83h-4.1v-5Z" transform="translate(-126.06 -1082.42)"/><path class="cls-1" d="M293.2,1098.8h1.25l2.23,5h-1.17l-0.53-1.24h-2.36l-0.52,1.24H291Zm1.47,3-0.86-2.11-0.87,2.11h1.73Z" transform="translate(-126.06 -1082.42)"/><path class="cls-1" d="M301,1098.79h3.71a1.68,1.68,0,1,1,.08,3.34h-2.11v1.67H301v-5Zm1.67,2.3h1.49a0.63,0.63,0,1,0,0-1.26h-1.49v1.26Z" transform="translate(-126.06 -1082.42)"/><path class="cls-1" d="M308,1098.79h4c1.23,0,1.68.56,1.68,1.4a1.07,1.07,0,0,1-.8,1.14h0a0.91,0.91,0,0,1,.6.9,2.78,2.78,0,0,0,.32,1.56H312a2.05,2.05,0,0,1-.1-0.74c0-.79-0.26-0.93-0.68-0.93h-1.53v1.67H308v-5Zm1.67,2.22h1.61a0.55,0.55,0,1,0,0-1.09h-1.61V1101Z" transform="translate(-126.06 -1082.42)"/><path class="cls-1" d="M318.32,1098.63c1.77,0,3.26.58,3.27,2.66s-1.49,2.66-3.26,2.66-3.26-.58-3.26-2.66S316.55,1098.64,318.32,1098.63Zm0,4.2a1.54,1.54,0,1,0-1.5-1.54A1.37,1.37,0,0,0,318.32,1102.83Z" transform="translate(-126.06 -1082.42)"/><path class="cls-1" d="M323.16,1098.79h3.71a1.68,1.68,0,1,1,.08,3.34h-2.11v1.67h-1.67v-5Zm1.67,2.3h1.49a0.63,0.63,0,1,0,0-1.26h-1.49v1.26Z" transform="translate(-126.06 -1082.42)"/><path class="cls-1" d="M330.16,1098.79h4c1.23,0,1.68.56,1.68,1.4a1.07,1.07,0,0,1-.8,1.14h0a0.91,0.91,0,0,1,.6.9,2.78,2.78,0,0,0,.32,1.56h-1.83a2.05,2.05,0,0,1-.1-0.74c0-.79-0.26-0.93-0.68-0.93h-1.53v1.67h-1.67v-5Zm1.67,2.22h1.61a0.55,0.55,0,1,0,0-1.09h-1.61V1101Z" transform="translate(-126.06 -1082.42)"/><path class="cls-1" d="M337.52,1098.78h1.67v5h-1.67v-5Z" transform="translate(-126.06 -1082.42)"/><path class="cls-1" d="M341,1098.78h5v1.08h-3.35v0.91h3.14v1h-3.14v0.91H346v1.08h-5v-5Zm2.11-1.42h1.81l-1,1h-1.4Z" transform="translate(-126.06 -1082.42)"/><path class="cls-1" d="M347.22,1098.78h5.35v1.12h-1.84v3.89h-1.67v-3.89h-1.84v-1.12Z" transform="translate(-126.06 -1082.42)"/><path class="cls-1" d="M353.9,1098.78h5v1.08h-3.35v0.91h3.14v1h-3.14v0.91h3.35v1.08h-5v-5Zm2.11-1.42h1.81l-1,1h-1.4Z" transform="translate(-126.06 -1082.42)"/><path class="cls-1" d="M363.77,1098.78h1.67v5h-1.67v-5Z" transform="translate(-126.06 -1082.42)"/><path class="cls-1" d="M367.27,1098.77h1.92l2.32,3.14h0v-3.14h1.61v5H371.3l-2.4-3.17h0v3.17h-1.61v-5Z" transform="translate(-126.06 -1082.42)"/><path class="cls-1" d="M374.49,1098.77h5.35v1.12H378v3.89h-1.67v-3.89h-1.84v-1.12Z" transform="translate(-126.06 -1082.42)"/><path class="cls-1" d="M381.18,1098.77h5v1.08h-3.35v0.91H386v1h-3.14v0.91h3.35v1.08h-5v-5Z" transform="translate(-126.06 -1082.42)"/><path class="cls-1" d="M387.83,1098.77h1.67v3.85h3.05v1.17h-4.72v-5Z" transform="translate(-126.06 -1082.42)"/><path class="cls-1" d="M394,1098.77h1.67v3.85h3.05v1.17H394v-5Z" transform="translate(-126.06 -1082.42)"/><path class="cls-1" d="M400.08,1098.76h5v1.08h-3.35v0.91h3.14v1h-3.14v0.91h3.35v1.08h-5v-5Z" transform="translate(-126.06 -1082.42)"/><path class="cls-1" d="M412.73,1101.84c-0.2,1.08-.8,2.09-3.17,2.09-2.12,0-3.15-.93-3.15-2.66s1-2.66,3.15-2.66c1.53,0,2.79.35,3.16,2.08h-1.86a1.2,1.2,0,0,0-1.29-1,1.32,1.32,0,0,0-1.39,1.54,1.31,1.31,0,0,0,1.39,1.54,1.19,1.19,0,0,0,1.31-1h1.85Z" transform="translate(-126.06 -1082.42)"/><path class="cls-1" d="M413.8,1098.76h5.35v1.12h-1.84v3.89h-1.67v-3.89H413.8v-1.12Z" transform="translate(-126.06 -1082.42)"/><path class="cls-1" d="M420.44,1098.76h1.67v3a1.15,1.15,0,0,0,2.29,0v-3h1.67V1102c0,1.38-1,1.92-2.81,1.92s-2.81-.54-2.81-1.92v-3.24Z" transform="translate(-126.06 -1082.42)"/><path class="cls-1" d="M427.86,1098.76h5v1.08h-3.35v0.91h3.14v1h-3.14v0.91h3.35v1.08h-5v-5Z" transform="translate(-126.06 -1082.42)"/><path class="cls-1" d="M434.51,1098.75h1.67v3.85h3.05v1.17h-4.72v-5Z" transform="translate(-126.06 -1082.42)"/><path class="cls-1" d="M440.63,1098.75h1.67v3.85h3.05v1.17h-4.72v-5Z" transform="translate(-126.06 -1082.42)"/><path class="cls-1" d="M446.76,1098.75h5v1.08h-3.35v0.91h3.14v1h-3.14v0.91h3.35v1.08h-5v-5Z" transform="translate(-126.06 -1082.42)"/><path class="cls-1" d="M151.44,1082.71h3.93V1093h-2.6v-8.22h0l-3.12,8.22H147.4l-3.12-8.22h0V1093h-2.59v-10.26h3.93l2.92,7.39Z" transform="translate(-126.06 -1082.42)"/><path class="cls-1" d="M159,1082.71h6.62c2.8,0,3.48,1.74,3.48,3.12,0,2.19-1.1,3.48-3.27,3.48h-4.15V1093H159v-10.26Zm2.68,4.73h2.87c0.83,0,1.79,0,1.79-1.41a1.27,1.27,0,0,0-1.55-1.45h-3.12v2.86Z" transform="translate(-126.06 -1082.42)"/><path class="cls-1" d="M172,1082.71h2.68V1093H172v-10.26Z" transform="translate(-126.06 -1082.42)"/><path class="cls-1" d="M132.44,1082.42c5.52,0,6.38,3.27,6.38,5.42s-0.86,5.42-6.38,5.42-6.38-3.28-6.38-5.42S126.93,1082.42,132.44,1082.42Zm0,8.88a3.46,3.46,0,1,0-3.42-3.46A3.24,3.24,0,0,0,132.44,1091.3Z" transform="translate(-126.06 -1082.42)"/></svg>