<svg id="Calque_1" data-name="Calque 1" xmlns="http://www.w3.org/2000/svg" viewBox="0 0 304.15 21.57"><defs><style>.cls-1{fill:#fff;}</style></defs><title>logo__wipo-word-mark--es</title><path class="cls-1" d="M141.1,1320.3c0-1.41.83-2.65,2.95-2.65s2.95,1.23,2.95,2.65-0.83,2.65-2.95,2.65S141.1,1321.71,141.1,1320.3Zm4.8,0a1.85,1.85,0,1,0-1.85,1.86A1.73,1.73,0,0,0,145.91,1320.3Z" transform="translate(-126.06 -1301.38)"/><path class="cls-1" d="M148.59,1317.79h3.17c1.28,0,1.69.58,1.69,1.36a1.18,1.18,0,0,1-.83,1.21h0a1.13,1.13,0,0,1,.73,1.35,2.1,2.1,0,0,0,.21,1.07h-1.14a1.68,1.68,0,0,1-.13-0.76c0-.72-0.1-1.22-0.87-1.22h-1.79v2H148.6v-5Zm2.87,2.25c0.58,0,.9-0.18.9-0.74a0.73,0.73,0,0,0-.9-0.72h-1.82V1320h1.82Z" transform="translate(-126.06 -1301.38)"/><path class="cls-1" d="M160.48,1322.8h-0.62l-0.15-.65a2.49,2.49,0,0,1-1.91.79c-2.12,0-2.95-1.23-2.95-2.65s0.88-2.65,2.92-2.65c1.52,0,2.5.77,2.61,1.75h-1.14a1.43,1.43,0,0,0-1.5-1,1.86,1.86,0,0,0-.05,3.72,1.53,1.53,0,0,0,1.73-1.32H158v-0.79h2.47v2.75Z" transform="translate(-126.06 -1301.38)"/><path class="cls-1" d="M164,1317.79h1.25l2.23,5h-1.17l-0.53-1.24h-2.36l-0.52,1.24h-1.14Zm1.47,3-0.86-2.11-0.87,2.11h1.73Z" transform="translate(-126.06 -1301.38)"/><path class="cls-1" d="M168.79,1317.79H170l3,3.76h0v-3.76h1v5h-1.19l-3-3.76h0v3.76h-1v-5Z" transform="translate(-126.06 -1301.38)"/><path class="cls-1" d="M175.87,1317.78h1.05v5h-1.05v-5Z" transform="translate(-126.06 -1301.38)"/><path class="cls-1" d="M178.31,1322l3.45-3.46h-3.21v-0.79h4.6v0.77l-3.42,3.42h3.44v0.83h-4.86V1322Z" transform="translate(-126.06 -1301.38)"/><path class="cls-1" d="M186.47,1317.78h1.25l2.23,5h-1.17l-0.53-1.24H185.9l-0.52,1.24h-1.14Zm1.47,3-0.86-2.11-0.87,2.11h1.73Z" transform="translate(-126.06 -1301.38)"/><path class="cls-1" d="M195.15,1319.63a1.46,1.46,0,0,0-1.62-1.21,1.87,1.87,0,0,0,.07,3.72,1.44,1.44,0,0,0,1.54-1.27h1.14c-0.15,1-.8,2.06-2.86,2.06a2.65,2.65,0,1,1,.13-5.29c1.73,0,2.63.91,2.74,2h-1.14Z" transform="translate(-126.06 -1301.38)"/><path class="cls-1" d="M197.92,1317.78H199v5h-1.05v-5Z" transform="translate(-126.06 -1301.38)"/><path class="cls-1" d="M200.56,1320.28c0-1.41.83-2.65,2.95-2.65s2.95,1.23,2.95,2.65-0.83,2.65-2.95,2.65S200.56,1321.69,200.56,1320.28Zm4.8,0a1.85,1.85,0,1,0-1.85,1.86A1.73,1.73,0,0,0,205.37,1320.28Zm-1.81-3.82h1.19l-1,1h-0.83Z" transform="translate(-126.06 -1301.38)"/><path class="cls-1" d="M208.05,1317.77h1.21l3,3.76h0v-3.76h1v5h-1.19l-3-3.76h0v3.76h-1v-5Z" transform="translate(-126.06 -1301.38)"/><path class="cls-1" d="M218.17,1317.77h1.52l1.76,3.89,1.74-3.89h1.5v5h-1l0-4.14h0l-1.85,4.14H221l-1.84-4.14h0l0,4.14h-1v-5Z" transform="translate(-126.06 -1301.38)"/><path class="cls-1" d="M226.52,1317.77h1.05v2.83a1.41,1.41,0,1,0,2.8,0v-2.83h1.05v2.86c0,0.83,0,2.3-2.46,2.3s-2.45-1.47-2.45-2.29v-2.86Z" transform="translate(-126.06 -1301.38)"/><path class="cls-1" d="M233.25,1317.77h1.21l3,3.76h0v-3.76h1v5h-1.19l-3-3.76h0v3.76h-1v-5Z" transform="translate(-126.06 -1301.38)"/><path class="cls-1" d="M240.32,1317.77H243c2,0,2.45,1.12,2.45,2.55a2.18,2.18,0,0,1-2.2,2.46h-3v-5Zm1.05,4.23h1.48c0.76,0,1.56-.25,1.56-1.71a1.46,1.46,0,0,0-1.62-1.73h-1.42V1322Z" transform="translate(-126.06 -1301.38)"/><path class="cls-1" d="M247.13,1317.76h1.05v5h-1.05v-5Z" transform="translate(-126.06 -1301.38)"/><path class="cls-1" d="M251.7,1317.76H253l2.23,5H254l-0.53-1.24h-2.36l-0.52,1.24h-1.14Zm1.47,3-0.86-2.11-0.87,2.11h1.73Z" transform="translate(-126.06 -1301.38)"/><path class="cls-1" d="M256.48,1317.76h1.05v4.18h3v0.83h-4.1v-5Z" transform="translate(-126.06 -1301.38)"/><path class="cls-1" d="M265,1317.76h2.7c2,0,2.45,1.12,2.45,2.55a2.19,2.19,0,0,1-2.2,2.46h-3v-5Zm1.05,4.22h1.48c0.76,0,1.56-.25,1.56-1.71a1.46,1.46,0,0,0-1.62-1.73h-1.42V1322Z" transform="translate(-126.06 -1301.38)"/><path class="cls-1" d="M271.84,1317.76h4.35v0.79h-3.3v1.26h3.17v0.79h-3.17V1322h3.35v0.79h-4.41v-5Z" transform="translate(-126.06 -1301.38)"/><path class="cls-1" d="M280.91,1317.75H282v4.18h3v0.83h-4.1v-5Z" transform="translate(-126.06 -1301.38)"/><path class="cls-1" d="M288.3,1317.75h1.25l2.23,5h-1.17l-0.53-1.24h-2.36l-0.52,1.24h-1.14Zm1.47,3-0.86-2.11-0.87,2.11h1.73Z" transform="translate(-126.06 -1301.38)"/><path class="cls-1" d="M296.1,1317.75h3.71a1.68,1.68,0,1,1,.08,3.34h-2.11v1.67H296.1v-5Zm1.67,2.3h1.49a0.63,0.63,0,1,0,0-1.26h-1.49v1.26Z" transform="translate(-126.06 -1301.38)"/><path class="cls-1" d="M303.1,1317.75h4c1.23,0,1.68.56,1.68,1.4a1.07,1.07,0,0,1-.8,1.15h0a0.9,0.9,0,0,1,.6.9,2.78,2.78,0,0,0,.32,1.56h-1.83a2.05,2.05,0,0,1-.1-0.74c0-.79-0.26-0.93-0.68-0.93h-1.53v1.67H303.1v-5Zm1.67,2.22h1.61a0.55,0.55,0,1,0,0-1.09h-1.61V1320Z" transform="translate(-126.06 -1301.38)"/><path class="cls-1" d="M313.42,1317.59c1.77,0,3.26.58,3.27,2.66s-1.49,2.66-3.26,2.66-3.26-.58-3.26-2.66S311.65,1317.59,313.42,1317.59Zm0,4.2a1.54,1.54,0,1,0-1.5-1.54A1.37,1.37,0,0,0,313.42,1321.79Z" transform="translate(-126.06 -1301.38)"/><path class="cls-1" d="M318.27,1317.74H322a1.68,1.68,0,1,1,.08,3.34h-2.11v1.67h-1.67v-5Zm1.67,2.3h1.49a0.63,0.63,0,1,0,0-1.26h-1.49V1320Z" transform="translate(-126.06 -1301.38)"/><path class="cls-1" d="M325.27,1317.74h1.67v5h-1.67v-5Z" transform="translate(-126.06 -1301.38)"/><path class="cls-1" d="M328.78,1317.74h5v1.08h-3.35v0.91h3.14v1h-3.14v0.91h3.35v1.08h-5v-5Z" transform="translate(-126.06 -1301.38)"/><path class="cls-1" d="M335.43,1317.74H339a2.18,2.18,0,0,1,2.39,2.5c0,2-1.16,2.51-2.6,2.51h-3.4v-5Zm1.67,3.89h1.4a1.19,1.19,0,0,0,1.21-1.39,1.2,1.2,0,0,0-1.35-1.38H337.1v2.77Z" transform="translate(-126.06 -1301.38)"/><path class="cls-1" d="M344.39,1317.73h2l2.16,5H346.8l-0.3-.81h-2.19l-0.3.82h-1.79Zm1,1.26h0l-0.69,1.89h1.4Z" transform="translate(-126.06 -1301.38)"/><path class="cls-1" d="M349.83,1317.73h3.62a2.18,2.18,0,0,1,2.39,2.5c0,2-1.16,2.51-2.6,2.51h-3.4v-5Zm1.67,3.89h1.4a1.39,1.39,0,0,0-.13-2.77H351.5v2.77Z" transform="translate(-126.06 -1301.38)"/><path class="cls-1" d="M360.74,1317.73h1.67v5h-1.67v-5Z" transform="translate(-126.06 -1301.38)"/><path class="cls-1" d="M364.24,1317.73h1.92l2.32,3.14h0v-3.14h1.61v5h-1.85l-2.4-3.17h0v3.17h-1.61v-5Z" transform="translate(-126.06 -1301.38)"/><path class="cls-1" d="M371.46,1317.73h5.35v1.12H375v3.89H373.3v-3.89h-1.84v-1.12Z" transform="translate(-126.06 -1301.38)"/><path class="cls-1" d="M378.14,1317.72h5v1.08h-3.35v0.91H383v1h-3.14v0.91h3.35v1.08h-5v-5Z" transform="translate(-126.06 -1301.38)"/><path class="cls-1" d="M384.8,1317.72h1.67v3.85h3.05v1.17H384.8v-5Z" transform="translate(-126.06 -1301.38)"/><path class="cls-1" d="M390.92,1317.72h5v1.08h-3.35v0.91h3.14v1h-3.14v0.91h3.35v1.08h-5v-5Z" transform="translate(-126.06 -1301.38)"/><path class="cls-1" d="M403.57,1320.8c-0.2,1.08-.8,2.08-3.17,2.09-2.12,0-3.15-.93-3.15-2.66s1-2.66,3.15-2.66c1.53,0,2.79.35,3.16,2.08H401.7a1.2,1.2,0,0,0-1.29-1,1.32,1.32,0,0,0-1.39,1.54,1.31,1.31,0,0,0,1.39,1.54,1.19,1.19,0,0,0,1.31-1h1.85Z" transform="translate(-126.06 -1301.38)"/><path class="cls-1" d="M404.64,1317.72H410v1.12h-1.84v3.89h-1.67v-3.89h-1.84v-1.12Z" transform="translate(-126.06 -1301.38)"/><path class="cls-1" d="M411.29,1317.71H413v3a1.15,1.15,0,0,0,2.29,0v-3h1.67V1321c0,1.38-1,1.92-2.81,1.92s-2.81-.54-2.82-1.92v-3.24Z" transform="translate(-126.06 -1301.38)"/><path class="cls-1" d="M420.06,1317.71h2l2.16,5h-1.79l-0.3-.81H420l-0.3.81h-1.79Zm1,1.26h0l-0.69,1.89h1.4Z" transform="translate(-126.06 -1301.38)"/><path class="cls-1" d="M425.49,1317.71h1.67v3.85h3.05v1.17h-4.72v-5Z" transform="translate(-126.06 -1301.38)"/><path class="cls-1" d="M151.44,1301.66h3.93v10.26h-2.6v-8.22h0l-3.12,8.22H147.4l-3.12-8.22h0v8.22h-2.59v-10.26h3.93l2.92,7.39Z" transform="translate(-126.06 -1301.38)"/><path class="cls-1" d="M159,1301.66h6.62c2.8,0,3.48,1.74,3.48,3.12,0,2.19-1.1,3.48-3.27,3.48h-4.15v3.66H159v-10.26Zm2.68,4.73h2.87c0.83,0,1.79,0,1.79-1.41a1.27,1.27,0,0,0-1.55-1.45h-3.12v2.86Z" transform="translate(-126.06 -1301.38)"/><path class="cls-1" d="M172,1301.66h2.68v10.26H172v-10.26Z" transform="translate(-126.06 -1301.38)"/><path class="cls-1" d="M132.44,1301.38c5.52,0,6.38,3.27,6.38,5.42s-0.86,5.42-6.38,5.42-6.38-3.28-6.38-5.42S126.93,1301.38,132.44,1301.38Zm0,8.88a3.46,3.46,0,1,0-3.42-3.46A3.24,3.24,0,0,0,132.44,1310.26Z" transform="translate(-126.06 -1301.38)"/></svg>