<svg id="Calque_1" data-name="Calque 1" xmlns="http://www.w3.org/2000/svg" viewBox="0 0 202.67 24.03"><defs><style>.cls-1,.cls-2{fill:#fff;}.cls-2{stroke:#fff;stroke-width:0.3px;}</style></defs><title>logo__wipo-picture-mark--ar</title><path class="cls-1" d="M126.06,424.63h2.79l2,7.47h0l2.09-7.47h2.79l2.1,7.47h0l2-7.47h2.79l-3.24,10.26h-2.87l-2.16-7.3h0l-2.15,7.3h-2.87Z" transform="translate(-126.06 -424.33)"/><path class="cls-1" d="M145.43,424.62h2.79v10.26h-2.79V424.62Z" transform="translate(-126.06 -424.33)"/><path class="cls-1" d="M152.32,424.62h6.9c2.91,0,3.62,1.74,3.62,3.12,0,2.18-1.15,3.48-3.4,3.48h-4.33v3.67h-2.79V424.62Zm2.79,4.72h3c0.86,0,1.87,0,1.87-1.41s-0.82-1.45-1.61-1.45h-3.25v2.86Z" transform="translate(-126.06 -424.33)"/><path class="cls-1" d="M172.15,424.33c5.51,0,6.38,3.27,6.38,5.41s-0.86,5.42-6.38,5.42-6.38-3.27-6.38-5.42S166.63,424.33,172.15,424.33Zm0,8.87a3.46,3.46,0,1,0-3.42-3.46A3.23,3.23,0,0,0,172.15,433.2Z" transform="translate(-126.06 -424.33)"/><path class="cls-2" d="M184.22,444a0.68,0.68,0,0,1-.63.83h-5.34a4.36,4.36,0,0,0,.1-1.24v-2.49h-1.66a1.5,1.5,0,0,0-1.72,1.56v2.17h-6a3.16,3.16,0,0,0,.09-1v-1.36a1.41,1.41,0,0,0-1.58-1.34h-1.37a1.05,1.05,0,0,1,.22-0.92,1.4,1.4,0,0,1,.68-0.08h1.43v-0.89h-1.65a1.39,1.39,0,0,0-1.58,1.55V442h2.2c0.5,0,.78,0,0.78.83v1.55a0.51,0.51,0,0,1-.49.46h-7.52v-3.73h-0.89v4.78a1.34,1.34,0,0,1-1.13,1.51l0.59,0.75a1.94,1.94,0,0,0,1.43-1.94v-0.47h23.5a1.42,1.42,0,0,0,1.47-1.58v-4.94h-0.89V444Zm-6.77.29a0.44,0.44,0,0,1-.37.54h-1.17V442.6a0.49,0.49,0,0,1,.54-0.58h1v2.3Z" transform="translate(-126.06 -424.33)"/><polygon class="cls-2" points="62.36 21.92 63.28 21.43 63.28 14.91 62.36 14.91 62.36 21.92"/><path class="cls-2" d="M154.34,445.75a1.49,1.49,0,0,0,1.75-1.67v-3h-0.89v3a0.62,0.62,0,0,1-.66.72H149v-3.73h-1.7a1.49,1.49,0,0,0-1.67,1.57v1.52c0,1.3.93,1.54,2,1.54l0.41-.57h0v0.57h6.28Zm-7.19-.89a0.56,0.56,0,0,1-.63-0.67v-1.66A0.48,0.48,0,0,1,147,442h1.05v2.84h-0.91Z" transform="translate(-126.06 -424.33)"/><circle class="cls-2" cx="22.18" cy="15.45" r="0.55"/><circle class="cls-2" cx="20.82" cy="15.45" r="0.55"/><circle class="cls-2" cx="29.54" cy="23.31" r="0.55"/><circle class="cls-2" cx="28.18" cy="23.31" r="0.55"/><circle class="cls-2" cx="50.62" cy="15.45" r="0.55"/><circle class="cls-2" cx="68.99" cy="15.45" r="0.55"/><circle class="cls-2" cx="67.63" cy="15.45" r="0.55"/><circle class="cls-2" cx="76.07" cy="23.31" r="0.55"/><circle class="cls-2" cx="74.71" cy="23.31" r="0.55"/><path class="cls-2" d="M234.67,439.23V444a0.68,0.68,0,0,1-.63.83h-4.6v-5.62h-0.89v5.62h-4.27V442.4a1.7,1.7,0,0,0-3.33,0v2.44h-4.67v-5.62h-0.92v5.62h-5a3.29,3.29,0,0,0,.09-1v-1.36a1.41,1.41,0,0,0-1.58-1.34h-1.37a1.06,1.06,0,0,1,.22-0.92,1.4,1.4,0,0,1,.68-0.08h1.43v-0.89h-1.65a1.39,1.39,0,0,0-1.57,1.55V442h2.2c0.5,0,.78,0,0.78.83v1.55a0.52,0.52,0,0,1-.49.46H202.6v-3.73h-0.89v3.73H196v-3.73h-1.7a1.49,1.49,0,0,0-1.67,1.57v1.52c0,1.3.93,1.54,2,1.54l0.41-.57h0v0.57H221a1.74,1.74,0,0,0,3.3,0h9.83a1.42,1.42,0,0,0,1.47-1.58v-4.94h-0.89Zm-39.58,5.63h-0.92a0.56,0.56,0,0,1-.63-0.67v-1.66A0.48,0.48,0,0,1,194,442h1.06v2.84Zm27.51,1.22c-0.87,0-.76-0.52-0.76-1.33v-1.5c0-.81-0.11-1.33.76-1.33s0.81,0.43.81,1.3v1.55C223.41,445.64,223.48,446.08,222.6,446.08Z" transform="translate(-126.06 -424.33)"/><path class="cls-2" d="M278.86,444.51a0.7,0.7,0,0,1-.74.78h-4.69a0.81,0.81,0,0,1-.39-0.11l1.82-1.5a2.09,2.09,0,0,0-2.18-2.19,2.07,2.07,0,0,0-2.18,2.19c0.56,0.48,1.24,1,1.82,1.5a0.81,0.81,0,0,1-.41.11h-5.12a0.7,0.7,0,0,1-.74-0.78v-4.8H265.6v4.75a1.1,1.1,0,0,0,1.19,1.29h5.27a0.94,0.94,0,0,0,.61-0.22,0.85,0.85,0,0,0,.58.22h4.86a1.1,1.1,0,0,0,1.2-1.29v-4.75h-0.43v4.8Zm-6.18.35L271,443.54a1.67,1.67,0,0,1,3.33,0Z" transform="translate(-126.06 -424.33)"/><polygon class="cls-2" points="202.06 15.39 202.06 21.71 202.52 21.44 202.52 15.39 202.06 15.39"/><polygon class="cls-2" points="156.91 21.7 157.37 21.43 157.37 15.39 156.91 15.39 156.91 21.7"/><path class="cls-2" d="M261.71,444.51a0.7,0.7,0,0,1-.74.78h-4.62v-2.53a1.34,1.34,0,0,0-1.54-1.26,1.33,1.33,0,0,0-1.55,1.26v2.53h-5v-3.74h-0.46v3.74H241.7v-3.74h-1.9a1.18,1.18,0,0,0-1.21,1.28v1.66a1.2,1.2,0,0,0,1.22,1.26h1.1l0.33-.25v0.25h12a1.6,1.6,0,0,0,3.08,0H261a1.1,1.1,0,0,0,1.19-1.29v-4.75h-0.43v4.8Zm-20.47.78h-1.39a0.76,0.76,0,0,1-.77-0.89V443a0.77,0.77,0,0,1,.78-0.93h1.38v3.27Zm14.65,0a1.08,1.08,0,1,1-2.17,0v-2.22a1.08,1.08,0,1,1,2.17,0v2.22Z" transform="translate(-126.06 -424.33)"/><circle class="cls-2" cx="114.95" cy="15.69" r="0.3"/><circle class="cls-2" cx="113.88" cy="15.69" r="0.3"/><circle class="cls-2" cx="163.27" cy="15.69" r="0.3"/><circle class="cls-2" cx="162.2" cy="15.69" r="0.3"/><circle class="cls-2" cx="179.29" cy="15.69" r="0.3"/><circle class="cls-2" cx="185.38" cy="15.69" r="0.3"/><path class="cls-2" d="M324.14,444.52a0.7,0.7,0,0,1-.74.78h-3.81v-2.53A1.35,1.35,0,0,0,318,441.5a1.33,1.33,0,0,0-1.54,1.26v2.53h-4.77v-3.74h-0.46v3.74h-4.53v-2.7a1.19,1.19,0,0,0-1.55-1.06c-0.42.13-1.79,0.59-2.46,0.83a0.62,0.62,0,0,0-.21.15h0v-2.8H302v5.58H297.7v-2.53a1.35,1.35,0,0,0-1.54-1.26,1.33,1.33,0,0,0-1.54,1.26v2.53h-4.5v-3.74h-1.9a1.18,1.18,0,0,0-1.21,1.27v1.66a1.2,1.2,0,0,0,1.21,1.26h1.11l0.32-.25v0.25h5a1.6,1.6,0,0,0,3.07,0h18.8a1.6,1.6,0,0,0,3.07,0h3.8a1.09,1.09,0,0,0,1.19-1.29v-4.75h-0.43v4.8Zm-34.49.78h-1.4a0.76,0.76,0,0,1-.77-0.89V443a0.77,0.77,0,0,1,.78-0.93h1.38v3.27Zm7.59,0a1.08,1.08,0,1,1-2.17,0v-2.22a1.08,1.08,0,1,1,2.17,0v2.22Zm9,0h-3.79v-1.88a0.57,0.57,0,0,1,.4-0.61c0.32-.13,2-0.69,2.32-0.79a0.75,0.75,0,0,1,1.07.76v2.52Zm12.85,0a1.08,1.08,0,1,1-2.17,0v-2.23a1.08,1.08,0,1,1,2.17,0v2.23Z" transform="translate(-126.06 -424.33)"/><circle class="cls-2" cx="121.48" cy="22.88" r="0.3"/><circle class="cls-2" cx="120.41" cy="22.88" r="0.3"/></svg>