<svg id="Layer_1" data-name="Layer 1" xmlns="http://www.w3.org/2000/svg" viewBox="0 0 52.47 10.83"><defs><style>.cls-1{fill:#314668;}</style></defs><title>logo__wipo-word-mark--no-subtitle</title><path class="cls-1" d="M0,0.33H2.79l2,7.47h0L6.94,0.33H9.73l2.1,7.47h0l2-7.47h2.79L13.38,10.59H10.51L8.35,3.29h0L6.2,10.59H3.33Z"/><path class="cls-1" d="M19.37,0.33h2.79V10.59H19.37V0.33Z"/><path class="cls-1" d="M26.26,0.33h6.9c2.91,0,3.62,1.74,3.62,3.12,0,2.18-1.15,3.48-3.4,3.48H29.06V10.6H26.27V0.33h0ZM29.05,5h3c0.86,0,1.87,0,1.87-1.41S33.1,2.19,32.31,2.19H29.06V5h0Z"/><path class="cls-1" d="M46.09,0c5.52,0,6.38,3.27,6.38,5.41s-0.86,5.42-6.37,5.42-6.38-3.27-6.38-5.42S40.57,0,46.09,0Zm0,8.87a3.46,3.46,0,1,0-3.42-3.5v0a3.23,3.23,0,0,0,3.42,3.47h0Z"/></svg>