<svg id="Calque_1" data-name="Calque 1" xmlns="http://www.w3.org/2000/svg" viewBox="0 0 200.24 167.06"><defs><style>.cls-1{fill:#fff;}</style></defs><title>logo__wipo--es</title><polygon class="cls-1" points="45.59 106.03 39.47 106.03 34.92 117.52 30.37 106.03 24.25 106.03 24.25 121.99 28.28 121.99 28.28 109.2 28.33 109.2 33.18 121.99 36.66 121.99 41.51 109.2 41.55 109.2 41.55 121.99 45.59 121.99 45.59 106.03"/><path class="cls-1" d="M620.08,1266.77c0-2.14-1.05-4.85-5.41-4.85h-10.3v16h4.16v-5.7H615C618.37,1272.18,620.08,1270.17,620.08,1266.77Zm-7.08,2.5h-4.46v-4.45h4.85c1.19,0,2.41.18,2.41,2.26S614.29,1269.28,613,1269.28Z" transform="translate(-553.14 -1155.89)"/><rect class="cls-1" x="71.39" y="106.03" width="4.16" height="15.96"/><path class="cls-1" d="M563.06,1261.48c-8.58,0-9.92,5.09-9.92,8.42s1.34,8.43,9.92,8.43,9.92-5.09,9.92-8.43S571.64,1261.48,563.06,1261.48Zm0,13.81c-3.93,0-5.32-2.91-5.32-5.39s1.38-5.38,5.32-5.38,5.32,2.9,5.32,5.38S567,1275.29,563.06,1275.29Z" transform="translate(-553.14 -1155.89)"/><path class="cls-1" d="M627.44,1177a11.37,11.37,0,0,0-.79-1,8.23,8.23,0,0,0,2.07-5.17,7.23,7.23,0,0,0-1.21-3.9c-2.69-4.27-9.73-8-19.64-11v1.44c10.31,2.63,17.27,6,19.5,9.69a5.08,5.08,0,0,1,.77,2.62c0,1.74-1,3.42-2.74,5-3.49-3.26-9.56-6.18-17.54-8.62v1.44c8.07,2.05,14.07,4.54,17.38,7.32a30.54,30.54,0,0,1-8.35,4.75,77.7,77.7,0,0,0-9-3.34v1.44q4.34,1.11,7.86,2.38c-9,3.48-22.33,6.33-38.32,8.19V1193a175.21,175.21,0,0,0,30.47-6.58v1.43q4.34,1.11,7.86,2.37c-9,3.48-22.33,6.33-38.32,8.19v4.76a175.48,175.48,0,0,0,30.47-6.58V1198q4.35,1.11,7.86,2.38c-9,3.48-22.33,6.33-38.32,8.19v4.76a175.22,175.22,0,0,0,30.47-6.58v1.42q4.34,1.11,7.86,2.38c-9,3.48-22.33,6.33-38.32,8.19v4.76a175.4,175.4,0,0,0,30.47-6.58v1.42q4.35,1.11,7.86,2.38c-9,3.48-22.33,6.33-38.32,8.19v4.76c18.26-2.48,33.13-6.52,42.08-11.45a25,25,0,0,1,5.77,3.44c-6.68,5.85-24.42,10.7-47.84,13.42v4.76c24.63-3.34,43.09-9.52,49.17-16.88a8.1,8.1,0,0,1,.75,1,5.11,5.11,0,0,1,.82,2.7c0,8.12-20.7,15.1-50.74,18.59V1254c30.34-4.12,51.32-12.55,51.32-22.17a7.28,7.28,0,0,0-1.29-4,11.13,11.13,0,0,0-.78-1,8.23,8.23,0,0,0,2.07-5.17,7.25,7.25,0,0,0-1.28-4,11.77,11.77,0,0,0-.78-1,8.23,8.23,0,0,0,2.07-5.17,7.25,7.25,0,0,0-1.28-4,11.34,11.34,0,0,0-.79-1,8.23,8.23,0,0,0,2.07-5.17,7.27,7.27,0,0,0-1.28-4,11.8,11.8,0,0,0-.79-1,8.24,8.24,0,0,0,2.07-5.17,7.28,7.28,0,0,0-1.28-4,11.46,11.46,0,0,0-.78-1,8.23,8.23,0,0,0,2.07-5.17A7.26,7.26,0,0,0,627.44,1177Zm-19.56,9.39a69.11,69.11,0,0,0,11.58-4.86,25,25,0,0,1,5.77,3.44,30.5,30.5,0,0,1-8.34,4.75A77.21,77.21,0,0,0,607.88,1186.41Zm0,10.17a69.28,69.28,0,0,0,11.58-4.85,25.08,25.08,0,0,1,5.77,3.43,30.5,30.5,0,0,1-8.34,4.76A77,77,0,0,0,607.89,1196.58Zm0,10.17a69.29,69.29,0,0,0,11.58-4.85,25.06,25.06,0,0,1,5.77,3.44,30.57,30.57,0,0,1-8.34,4.75A77.27,77.27,0,0,0,607.88,1206.75Zm0,10.17a69.05,69.05,0,0,0,11.58-4.86,25,25,0,0,1,5.77,3.44,30.44,30.44,0,0,1-8.34,4.75A77.61,77.61,0,0,0,607.88,1216.92Zm19.43,0.88a5.1,5.1,0,0,1,.82,2.7c0,1.74-1,3.42-2.74,5a25.45,25.45,0,0,0-5.24-3.68,23.41,23.41,0,0,0,6.41-5.05A8,8,0,0,1,627.31,1217.8Zm0-10.16a5.1,5.1,0,0,1,.81,2.69c0,1.74-1,3.42-2.74,5a25.46,25.46,0,0,0-5.24-3.68,23.44,23.44,0,0,0,6.41-5.05A8,8,0,0,1,627.31,1207.64Zm0-10.18a5.11,5.11,0,0,1,.81,2.69c0,1.74-1,3.42-2.74,5a25.48,25.48,0,0,0-5.24-3.68,23.47,23.47,0,0,0,6.41-5.05A8,8,0,0,1,627.31,1197.46Zm0-10.17a5.08,5.08,0,0,1,.82,2.69c0,1.74-1,3.42-2.74,5a25.47,25.47,0,0,0-5.24-3.68,23.45,23.45,0,0,0,6.41-5.05A8.17,8.17,0,0,1,627.31,1187.29Zm-1.92-2.45a25.41,25.41,0,0,0-5.24-3.68,23.46,23.46,0,0,0,6.41-5.05,8,8,0,0,1,.76,1,5.12,5.12,0,0,1,.81,2.68C628.13,1181.55,627.17,1183.24,625.39,1184.85Z" transform="translate(-553.14 -1155.89)"/><path class="cls-1" d="M580.87,1294.56a4.1,4.1,0,1,0-4.24-4.1A3.94,3.94,0,0,0,580.87,1294.56Zm0-7.45a3.35,3.35,0,1,1-3.36,3.35A3.14,3.14,0,0,1,580.87,1287.11Z" transform="translate(-553.14 -1155.89)"/><path class="cls-1" d="M594.92,1294.36a4.18,4.18,0,0,1-.27-1.62c-0.05-1.28-.28-2-1.39-2.16v0a1.9,1.9,0,0,0,1.53-1.89c0-1.64-1.21-2.11-2.53-2.11H588v7.8h0.81v-3.43h3.13c1.34,0,1.87.46,1.89,1.84a3.62,3.62,0,0,0,.21,1.59h0.87Zm-6.1-4.17v-2.88h3.49a1.34,1.34,0,0,1,1.61,1.37,1.43,1.43,0,0,1-1.68,1.52h-3.42Z" transform="translate(-553.14 -1155.89)"/><path class="cls-1" d="M601.46,1294.56a3.53,3.53,0,0,0,3.24-1.67h0l0.11,1.47h0.62v-4h-3.6v0.74h2.86a3,3,0,0,1-3.32,2.73c-2.07,0-3.14-1.25-3.14-3.35a3,3,0,0,1,3.3-3.35,2.68,2.68,0,0,1,2.89,1.92h0.87c-0.21-1.44-1.59-2.66-3.77-2.66a3.91,3.91,0,0,0-4.17,4.09A3.78,3.78,0,0,0,601.46,1294.56Z" transform="translate(-553.14 -1155.89)"/><path class="cls-1" d="M611.28,1286.57l-3.54,7.8h0.87l1.06-2.37h4.1l1,2.37h0.94l-3.54-7.8h-0.94Zm-1.28,4.68,1.74-3.87,1.71,3.87H610Z" transform="translate(-553.14 -1155.89)"/><polygon class="cls-1" points="65.71 131.81 65.73 131.81 71.21 138.47 72.15 138.47 72.15 130.68 71.34 130.68 71.34 137.34 71.32 137.34 65.87 130.68 64.9 130.68 64.9 138.47 65.71 138.47 65.71 131.81"/><rect class="cls-1" x="75.31" y="130.68" width="0.81" height="7.8"/><polygon class="cls-1" points="85.58 137.73 79.68 137.73 85.49 131.42 85.49 130.68 78.99 130.68 78.99 131.42 84.4 131.42 78.62 137.73 78.62 138.47 85.58 138.47 85.58 137.73"/><path class="cls-1" d="M646.38,1292l1,2.37h0.94l-3.54-7.8h-0.94l-3.54,7.8h0.87l1.06-2.37h4.11Zm-2-4.62,1.71,3.87H642.6Z" transform="translate(-553.14 -1155.89)"/><path class="cls-1" d="M654.52,1294.56a3.6,3.6,0,0,0,3.85-3.17h-0.81a2.75,2.75,0,0,1-3,2.42,3.05,3.05,0,0,1-3.27-3.35,3,3,0,0,1,3.27-3.35c1.41,0,2.74.6,3,2.08h0.81c-0.24-2.05-2.09-2.83-3.79-2.83a3.93,3.93,0,0,0-4.15,4.09A3.85,3.85,0,0,0,654.52,1294.56Z" transform="translate(-553.14 -1155.89)"/><rect class="cls-1" x="108.12" y="130.68" width="0.81" height="7.8"/><polygon class="cls-1" points="117.57 128.71 116.58 128.71 115.32 130.26 115.98 130.26 117.57 128.71"/><path class="cls-1" d="M669.16,1294.56a4.1,4.1,0,1,0-4.24-4.1A3.95,3.95,0,0,0,669.16,1294.56Zm0-7.45a3.35,3.35,0,1,1-3.36,3.35A3.15,3.15,0,0,1,669.16,1287.11Z" transform="translate(-553.14 -1155.89)"/><polygon class="cls-1" points="123.83 131.81 123.85 131.81 129.33 138.47 130.27 138.47 130.27 130.68 129.46 130.68 129.46 137.34 129.44 137.34 123.99 130.68 123.02 130.68 123.02 138.47 123.83 138.47 123.83 131.81"/><polygon class="cls-1" points="142.66 137.46 139.19 130.68 138.01 130.68 138.01 138.47 138.82 138.47 138.82 131.72 138.84 131.72 142.27 138.47 143.01 138.47 146.45 131.73 146.47 131.73 146.47 138.47 147.28 138.47 147.28 130.68 146.13 130.68 142.66 137.46"/><path class="cls-1" d="M709.69,1291.35c0,2-1.32,2.46-2.67,2.46s-2.67-.42-2.67-2.46v-4.78h-0.81v4.78c0,1.42.39,3.21,3.48,3.21s3.48-1.79,3.48-3.21v-4.78h-0.81v4.78Z" transform="translate(-553.14 -1155.89)"/><polygon class="cls-1" points="166.91 137.34 166.89 137.34 161.44 130.68 160.47 130.68 160.47 138.47 161.28 138.47 161.28 131.81 161.3 131.81 166.78 138.47 167.72 138.47 167.72 130.68 166.91 130.68 166.91 137.34"/><path class="cls-1" d="M727.72,1286.57h-3.79v7.8h3.91c2.18,0,3.33-1.71,3.33-3.9C731.17,1288,730,1286.57,727.72,1286.57Zm0,7.05h-2.95v-6.31h2.95c1.8,0,2.61,1.09,2.61,3.15C730.3,1292.85,729.09,1293.62,727.69,1293.62Z" transform="translate(-553.14 -1155.89)"/><rect class="cls-1" x="181" y="130.68" width="0.81" height="7.8"/><path class="cls-1" d="M740.87,1286.57l-3.54,7.8h0.87l1.06-2.37h4.11l1,2.37h0.94l-3.54-7.8h-0.94Zm-1.27,4.68,1.73-3.87,1.71,3.87h-3.45Z" transform="translate(-553.14 -1155.89)"/><polygon class="cls-1" points="195.3 137.73 195.3 130.68 194.49 130.68 194.49 138.47 200.25 138.47 200.25 137.73 195.3 137.73"/><path class="cls-1" d="M584.62,1304.65c0-2.44-1.18-3.9-3.45-3.9h-3.79v7.79h3.91C583.47,1308.55,584.62,1306.84,584.62,1304.65Zm-3.48,3.15h-2.95v-6.31h2.95c1.8,0,2.61,1.09,2.61,3.16C583.75,1307,582.54,1307.8,581.14,1307.8Z" transform="translate(-553.14 -1155.89)"/><polygon class="cls-1" points="40.63 145.6 40.63 144.86 34.43 144.86 34.43 152.65 40.72 152.65 40.72 151.91 35.24 151.91 35.24 148.99 40.44 148.99 40.44 148.24 35.24 148.24 35.24 145.6 40.63 145.6"/><polygon class="cls-1" points="53.7 151.91 48.76 151.91 48.76 144.86 47.95 144.86 47.95 152.65 53.7 152.65 53.7 151.91"/><path class="cls-1" d="M615.42,1308.55h0.94l-3.54-7.79h-0.94l-3.54,7.79h0.87l1.06-2.37h4.1Zm-4.81-3.11,1.73-3.88,1.71,3.88H610.6Z" transform="translate(-553.14 -1155.89)"/><path class="cls-1" d="M628.06,1300.75h-4.8v7.79h1.64v-3h3.19a2.32,2.32,0,0,0,2.51-2.4A2.24,2.24,0,0,0,628.06,1300.75Zm-0.54,3.6H624.9V1302h2.75a1.14,1.14,0,0,1,1.31,1.2C629,1304.1,628.46,1304.35,627.53,1304.35Z" transform="translate(-553.14 -1155.89)"/><path class="cls-1" d="M639.59,1304.77v0a1.83,1.83,0,0,0,1.29-1.88c0-1.21-.64-2.12-2.63-2.12h-4.94v7.79H635v-3.08h2.78c1.2,0,1.36.79,1.36,1.9a2.63,2.63,0,0,0,.2,1.18h1.77a3.27,3.27,0,0,1-.33-1.67C640.73,1305.77,640.52,1305,639.59,1304.77Zm-1.81-.52H635V1302h2.83a1.13,1.13,0,0,1,1.4,1.13C639.18,1304,638.69,1304.24,637.78,1304.24Z" transform="translate(-553.14 -1155.89)"/><path class="cls-1" d="M647.93,1300.53c-3.3,0-4.58,1.92-4.58,4.12s1.29,4.12,4.58,4.12,4.59-1.92,4.59-4.12S651.23,1300.53,647.93,1300.53Zm0,7a2.89,2.89,0,1,1,2.88-2.89A2.68,2.68,0,0,1,647.93,1307.54Z" transform="translate(-553.14 -1155.89)"/><path class="cls-1" d="M662.57,1303.18a2.24,2.24,0,0,0-2.53-2.42h-4.8v7.79h1.64v-3h3.19A2.32,2.32,0,0,0,662.57,1303.18Zm-3.07,1.18h-2.63V1302h2.75a1.14,1.14,0,0,1,1.31,1.2C660.93,1304.1,660.43,1304.35,659.5,1304.35Z" transform="translate(-553.14 -1155.89)"/><rect class="cls-1" x="112.15" y="144.86" width="1.64" height="7.79"/><polygon class="cls-1" points="123.72 146.08 123.72 144.86 116.96 144.86 116.96 152.65 123.81 152.65 123.81 151.43 118.59 151.43 118.59 149.27 123.52 149.27 123.52 148.05 118.59 148.05 118.59 146.08 123.72 146.08"/><path class="cls-1" d="M684,1300.75h-4.2v7.79h4.6c2.65,0,3.42-2.14,3.42-3.82C687.77,1302.5,687,1300.75,684,1300.75Zm-0.26,6.57h-2.3V1302h2.21c0.92,0,2.52.15,2.52,2.69C686.12,1306.94,684.87,1307.32,683.69,1307.32Z" transform="translate(-553.14 -1155.89)"/><path class="cls-1" d="M693.19,1300.75l-3.47,7.79h1.77l0.81-1.93H696l0.82,1.93h1.82l-3.47-7.79h-1.94Zm-0.4,4.64,1.35-3.29,1.33,3.29h-2.69Z" transform="translate(-553.14 -1155.89)"/><path class="cls-1" d="M705.07,1300.75h-4.2v7.79h4.59c2.66,0,3.42-2.14,3.42-3.82C708.88,1302.5,708.13,1300.75,705.07,1300.75Zm-0.26,6.57h-2.3V1302h2.22c0.92,0,2.52.15,2.52,2.69C707.25,1306.94,706,1307.32,704.81,1307.32Z" transform="translate(-553.14 -1155.89)"/><rect class="cls-1" x="24.25" y="159.04" width="1.64" height="7.79"/><polygon class="cls-1" points="35.71 164.89 35.69 164.89 31.05 159.04 29.17 159.04 29.17 166.84 30.74 166.84 30.74 160.98 30.76 160.98 35.44 166.84 37.28 166.84 37.28 159.04 35.71 159.04 35.71 164.89"/><polygon class="cls-1" points="39.76 160.26 42.69 160.26 42.69 166.84 44.32 166.84 44.32 160.26 47.25 160.26 47.25 159.04 39.76 159.04 39.76 160.26"/><polygon class="cls-1" points="51.37 163.45 56.29 163.45 56.29 162.23 51.37 162.23 51.37 160.26 56.5 160.26 56.5 159.04 49.73 159.04 49.73 166.84 56.59 166.84 56.59 165.61 51.37 165.61 51.37 163.45"/><polygon class="cls-1" points="61.15 159.04 59.51 159.04 59.51 166.84 65.88 166.84 65.88 165.55 61.15 165.55 61.15 159.04"/><polygon class="cls-1" points="70.11 163.45 75.04 163.45 75.04 162.23 70.11 162.23 70.11 160.26 75.25 160.26 75.25 159.04 68.48 159.04 68.48 166.84 75.33 166.84 75.33 165.61 70.11 165.61 70.11 163.45"/><path class="cls-1" d="M635.29,1315.94a2.27,2.27,0,0,1,2.51,1.88h1.77c-0.18-1.68-1.57-3.1-4.26-3.1-3.07,0-4.36,1.92-4.36,4.12a3.88,3.88,0,0,0,4.16,4.12c3.21,0,4.23-1.65,4.45-3.2H637.8a2.24,2.24,0,0,1-2.4,2,2.62,2.62,0,0,1-2.74-2.75C632.66,1316.94,633.78,1315.94,635.29,1315.94Z" transform="translate(-553.14 -1155.89)"/><polygon class="cls-1" points="88.64 160.26 91.56 160.26 91.56 166.84 93.2 166.84 93.2 160.26 96.13 160.26 96.13 159.04 88.64 159.04 88.64 160.26"/><path class="cls-1" d="M657.68,1319.33c0,1.08,0,2.39-2.18,2.39s-2.17-1.31-2.17-2.39v-4.4h-1.64v4.44c0,1.29,0,3.57,3.81,3.57s3.82-2.28,3.82-3.57v-4.44h-1.64v4.4Z" transform="translate(-553.14 -1155.89)"/><path class="cls-1" d="M665.1,1314.93l-3.47,7.79h1.77l0.81-1.93h3.67l0.82,1.93h1.82l-3.47-7.79H665.1Zm-0.4,4.64,1.35-3.29,1.33,3.29H664.7Z" transform="translate(-553.14 -1155.89)"/><polygon class="cls-1" points="121.4 159.04 119.76 159.04 119.76 166.84 126.14 166.84 126.14 165.55 121.4 165.55 121.4 159.04"/></svg>