<svg id="Calque_1" data-name="Calque 1" xmlns="http://www.w3.org/2000/svg" viewBox="0 0 227.52 167.05"><defs><style>.cls-1{fill:#fff;}</style></defs><title>logo__wipo--ru</title><path class="cls-1" d="M583.24,848.41h4.43a1.89,1.89,0,0,1,2.18,2A1.64,1.64,0,0,1,588.5,852v0a1.85,1.85,0,0,1,1.65,1.91,2.3,2.3,0,0,1-2.58,2.23h-4.34v-7.8ZM584,851.8h3.2c1.09,0,1.79-.35,1.79-1.38s-0.63-1.26-1.52-1.26H584v2.64Zm0,3.67h3.4c1,0,1.83-.42,1.83-1.49a1.36,1.36,0,0,0-1.64-1.44H584v2.93Z" transform="translate(-553.14 -717.64)"/><path class="cls-1" d="M600.42,853.24a3.6,3.6,0,0,1-3.86,3.17,3.85,3.85,0,0,1-4.15-4.09,3.93,3.93,0,0,1,4.15-4.09c1.7,0,3.55.78,3.79,2.83h-0.81c-0.24-1.49-1.57-2.09-3-2.09a3,3,0,0,0-3.28,3.35,3.06,3.06,0,0,0,3.28,3.35,2.75,2.75,0,0,0,3-2.42h0.81Z" transform="translate(-553.14 -717.64)"/><path class="cls-1" d="M603.36,848.41h6.2v0.74h-5.39v2.64h5.2v0.74h-5.2v2.93h5.48v0.74h-6.29v-7.8Z" transform="translate(-553.14 -717.64)"/><path class="cls-1" d="M620.48,848.41h1.15v7.8h-0.81v-6.74h0l-3.44,6.74h-0.74l-3.43-6.75h0v6.75h-0.81v-7.8h1.18l3.47,6.78Z" transform="translate(-553.14 -717.64)"/><path class="cls-1" d="M624.71,848.41h0.81v6.66h0l5.48-6.66H632v7.8h-0.81v-6.66h0l-5.45,6.66h-1v-7.8Z" transform="translate(-553.14 -717.64)"/><path class="cls-1" d="M635.17,848.41h4.21a2.12,2.12,0,0,1,2.35,2.25c0,1.47-1,2.27-2.71,2.27h-3v3.28h-0.81v-7.8Zm0.81,3.78h3.12c1.35,0,1.75-.62,1.75-1.53a1.35,1.35,0,0,0-1.58-1.51H636v3Z" transform="translate(-553.14 -717.64)"/><path class="cls-1" d="M644,848.41h0.81v3.3h5.64v-3.3h0.81v7.8h-0.81v-3.76h-5.64v3.76H644v-7.8Z" transform="translate(-553.14 -717.64)"/><path class="cls-1" d="M659.21,853.84H655.1L654,856.21h-0.87l3.54-7.8h0.94l3.54,7.8h-0.94Zm-2-4.62-1.74,3.88h3.45Z" transform="translate(-553.14 -717.64)"/><path class="cls-1" d="M670.15,856.21h-0.81v-3.43h-3.13c-1.34,0-1.87.46-1.89,1.84a3.62,3.62,0,0,1-.21,1.59h-0.87a4.1,4.1,0,0,0,.27-1.62c0.06-1.28.29-2,1.39-2.16v0a1.9,1.9,0,0,1-1.53-1.89c0-1.64,1.21-2.11,2.53-2.11h4.25v7.8Zm-0.81-7.05h-3.49a1.34,1.34,0,0,0-1.61,1.36,1.43,1.43,0,0,0,1.68,1.52h3.42v-2.88Z" transform="translate(-553.14 -717.64)"/><path class="cls-1" d="M684.1,848.22a4.1,4.1,0,1,1-4.23,4.09A3.95,3.95,0,0,1,684.1,848.22Zm0,7.45a3.35,3.35,0,1,0-3.36-3.35A3.15,3.15,0,0,0,684.1,855.66Z" transform="translate(-553.14 -717.64)"/><path class="cls-1" d="M690.87,848.41h4.21a2.12,2.12,0,0,1,2.35,2.25c0,1.47-1,2.27-2.71,2.27h-3v3.28h-0.81v-7.8Zm0.81,3.78h3.12c1.36,0,1.75-.62,1.75-1.53a1.35,1.35,0,0,0-1.58-1.51h-3.29v3Z" transform="translate(-553.14 -717.64)"/><path class="cls-1" d="M700.07,848.41h5.75v0.74h-4.95v7.05h-0.81v-7.8Z" transform="translate(-553.14 -717.64)"/><path class="cls-1" d="M711.45,853.84h-4.11l-1.06,2.37h-0.87l3.54-7.8h0.94l3.54,7.8h-0.94Zm-2-4.62-1.73,3.88h3.45Z" transform="translate(-553.14 -717.64)"/><path class="cls-1" d="M715.35,848.41h0.81v3.3h5.63v-3.3h0.81v7.8h-0.81v-3.76h-5.63v3.76h-0.81v-7.8Z" transform="translate(-553.14 -717.64)"/><path class="cls-1" d="M732.93,856.21h-0.81v-6.66h0l-5.48,6.66h-0.94v-7.8h0.81v6.66h0l5.45-6.66h1v7.8Z" transform="translate(-553.14 -717.64)"/><path class="cls-1" d="M738.44,851.74H739c1.22,0,2-.29,2-1.32s-0.77-1.46-1.89-1.46c-1.59,0-2.2.77-2.2,1.92H736c0-1.41.94-2.61,3-2.61,1.35,0,2.71.58,2.71,2.15a1.59,1.59,0,0,1-1.46,1.59v0a1.87,1.87,0,0,1,1.76,2c0,1.76-1.41,2.38-3.12,2.38-2,0-3.12-.95-3.13-2.7h0.83c0.06,1.46.91,2,2.42,2,1.67,0,2.16-.87,2.16-1.66,0-1.31-1-1.59-2.14-1.59h-0.67v-0.7Z" transform="translate(-553.14 -717.64)"/><path class="cls-1" d="M749.38,853.84h-4.11l-1.06,2.37h-0.87l3.54-7.8h0.94l3.54,7.8h-0.94Zm-2-4.62-1.73,3.88h3.45Z" transform="translate(-553.14 -717.64)"/><path class="cls-1" d="M770.87,856.21h-0.81v-6.66h0l-5.48,6.66h-0.94v-7.8h0.81v6.66h0l5.45-6.66h1v7.8Z" transform="translate(-553.14 -717.64)"/><path class="cls-1" d="M780.66,856.21h-0.81v-3.43h-3.13c-1.34,0-1.87.46-1.89,1.84a3.68,3.68,0,0,1-.21,1.59h-0.88a4.18,4.18,0,0,0,.28-1.62c0.05-1.28.28-2,1.38-2.16v0a1.9,1.9,0,0,1-1.53-1.89c0-1.64,1.21-2.11,2.53-2.11h4.25v7.8Zm-0.81-7.05h-3.49a1.34,1.34,0,0,0-1.61,1.36,1.43,1.43,0,0,0,1.68,1.52h3.41v-2.88Z" transform="translate(-553.14 -717.64)"/><polygon class="cls-1" points="207.39 137.83 207.39 130.77 206.58 130.77 206.58 137.83 200.95 137.83 200.95 130.77 200.14 130.77 200.14 138.56 207.19 138.56 207.19 140.33 208 140.33 208 137.83 207.39 137.83"/><path class="cls-1" d="M589.34,879.57a2.28,2.28,0,0,0-2.51-1.88c-1.5,0-2.63,1-2.63,3a2.62,2.62,0,0,0,2.74,2.75,2.25,2.25,0,0,0,2.4-2h1.77c-0.23,1.55-1.24,3.2-4.45,3.2a3.88,3.88,0,0,1-4.16-4.12c0-2.19,1.29-4.12,4.36-4.12,2.69,0,4.08,1.42,4.26,3.1h-1.77Z" transform="translate(-553.14 -717.64)"/><path class="cls-1" d="M593.64,880.58c0-2.19,1.29-4.12,4.58-4.12s4.59,1.92,4.59,4.12-1.29,4.12-4.59,4.12S593.64,882.78,593.64,880.58Zm7.47,0a2.88,2.88,0,1,0-2.88,2.89A2.69,2.69,0,0,0,601.11,880.58Z" transform="translate(-553.14 -717.64)"/><path class="cls-1" d="M622.76,879.57a2.27,2.27,0,0,0-2.51-1.88c-1.51,0-2.63,1-2.63,3a2.62,2.62,0,0,0,2.74,2.75,2.24,2.24,0,0,0,2.4-2h1.77c-0.23,1.55-1.25,3.2-4.46,3.2a3.88,3.88,0,0,1-4.16-4.12c0-2.19,1.29-4.12,4.36-4.12,2.69,0,4.08,1.42,4.26,3.1h-1.77Z" transform="translate(-553.14 -717.64)"/><path class="cls-1" d="M629.62,877.9h-2.92v-1.22h7.49v1.22h-2.93v6.58h-1.64V877.9Z" transform="translate(-553.14 -717.64)"/><path class="cls-1" d="M636.62,876.68h5.15c1.78,0,2.24.95,2.24,1.95a1.59,1.59,0,0,1-1.06,1.63,1.84,1.84,0,0,1,1.42,1.93,2.33,2.33,0,0,1-2.65,2.29h-5.1v-7.8Zm1.64,3.17h3.06a0.91,0.91,0,0,0,1.06-1c0-.64-0.39-0.95-1.34-0.95h-2.77v1.95Zm0,3.41h2.94c0.74,0,1.48-.14,1.48-1.14a1.08,1.08,0,0,0-1.23-1.1h-3.18v2.25Z" transform="translate(-553.14 -717.64)"/><path class="cls-1" d="M647.36,876.68h6.77v1.22H649v2h4.93v1.22H649v2.16h5.22v1.22h-6.86v-7.8Z" transform="translate(-553.14 -717.64)"/><path class="cls-1" d="M657.1,876.68h1.64v3h4.84v-3h1.64v7.8h-1.64v-3.54h-4.84v3.54H657.1v-7.8Z" transform="translate(-553.14 -717.64)"/><path class="cls-1" d="M668.45,876.68h1.64v3h4.83v-3h1.64v7.8h-1.64v-3.54h-4.83v3.54h-1.64v-7.8Z" transform="translate(-553.14 -717.64)"/><path class="cls-1" d="M679.36,880.58c0-2.19,1.29-4.12,4.59-4.12s4.59,1.92,4.59,4.12-1.29,4.12-4.59,4.12S679.36,882.78,679.36,880.58Zm7.47,0a2.88,2.88,0,1,0-2.88,2.89A2.69,2.69,0,0,0,686.83,880.58Z" transform="translate(-553.14 -717.64)"/><path class="cls-1" d="M697.75,879.57a2.28,2.28,0,0,0-2.51-1.88c-1.51,0-2.63,1-2.63,3a2.62,2.62,0,0,0,2.74,2.75,2.24,2.24,0,0,0,2.4-2h1.77c-0.23,1.55-1.25,3.2-4.46,3.2a3.88,3.88,0,0,1-4.16-4.12c0-2.19,1.29-4.12,4.36-4.12,2.69,0,4.08,1.42,4.26,3.1h-1.77Z" transform="translate(-553.14 -717.64)"/><path class="cls-1" d="M704.61,877.9h-2.93v-1.22h7.49v1.22h-2.92v6.58h-1.64V877.9Z" transform="translate(-553.14 -717.64)"/><path class="cls-1" d="M719.73,884.48h-1.58v-5.85h0l-4.67,5.85h-1.85v-7.8h1.57v5.85h0l4.64-5.85h1.88v7.8Z" transform="translate(-553.14 -717.64)"/><path class="cls-1" d="M612.07,877.9h-4.82v1.95h3.06c2.09,0,3.06,1,3.06,2.34a2.33,2.33,0,0,1-2.66,2.29h-5.1v-7.8h6.46v1.22Zm-4.82,5.35h2.94c0.73,0,1.47-.14,1.47-1.14a1.08,1.08,0,0,0-1.23-1.1h-3.18v2.25Z" transform="translate(-553.14 -717.64)"/><path class="cls-1" d="M591.37,870.35H589.8V864.5h0l-4.67,5.85h-1.85v-7.8h1.57v5.85h0l4.64-5.85h1.88v7.8Z" transform="translate(-553.14 -717.64)"/><path class="cls-1" d="M594.61,862.55h1.64v3h4.84v-3h1.64v7.8h-1.64v-3.54h-4.84v3.54h-1.64v-7.8Z" transform="translate(-553.14 -717.64)"/><path class="cls-1" d="M607.64,863.78h-2.93v-1.22h7.49v1.22h-2.93v6.57h-1.64v-6.57Z" transform="translate(-553.14 -717.64)"/><path class="cls-1" d="M614.21,862.55H621v1.22h-5.13v2h4.93V867h-4.93v2.16h5.22v1.22h-6.86v-7.8Z" transform="translate(-553.14 -717.64)"/><path class="cls-1" d="M645.34,862.55h6.77v1.22H647v2h4.92V867H647v2.16h5.22v1.22h-6.86v-7.8Z" transform="translate(-553.14 -717.64)"/><path class="cls-1" d="M655.07,862.55h1.64v3.62l4-3.62h2.25l-3.64,3.17,3.87,4.63H661L658,866.76l-1.32,1.17v2.42h-1.64v-7.8Z" transform="translate(-553.14 -717.64)"/><path class="cls-1" d="M666.91,863.78H664v-1.22h7.49v1.22h-2.93v6.57h-1.64v-6.57Z" transform="translate(-553.14 -717.64)"/><path class="cls-1" d="M684.53,862.55h1.94l3.47,7.8h-1.83l-0.82-1.93h-3.67l-0.81,1.93H681Zm2.28,4.64-1.33-3.29-1.35,3.29h2.68Z" transform="translate(-553.14 -717.64)"/><path class="cls-1" d="M702.33,862.55H704v3h3.19a2.32,2.32,0,0,1,2.51,2.4,2.24,2.24,0,0,1-2.53,2.42h-4.8v-7.8Zm1.64,6.57h2.75a1.13,1.13,0,0,0,1.31-1.2c0-.93-0.5-1.18-1.43-1.18H704v2.38Z" transform="translate(-553.14 -717.64)"/><path class="cls-1" d="M712,862.55h1.63v3h4.84v-3h1.64v7.8h-1.64v-3.54h-4.84v3.54H712v-7.8Z" transform="translate(-553.14 -717.64)"/><path class="cls-1" d="M722.44,866.45c0-2.19,1.29-4.11,4.59-4.11s4.59,1.92,4.59,4.11-1.29,4.12-4.59,4.12S722.44,868.65,722.44,866.45Zm7.47,0a2.88,2.88,0,1,0-2.88,2.9A2.69,2.69,0,0,0,729.91,866.45Z" transform="translate(-553.14 -717.64)"/><path class="cls-1" d="M742.05,870.35h-1.57V864.5h0l-4.68,5.85h-1.84v-7.8h1.57v5.85h0l4.64-5.85h1.88v7.8Z" transform="translate(-553.14 -717.64)"/><path class="cls-1" d="M630,870.35h1.64v-7.79H625c0,1.06-.14,4.48-0.22,5.69a0.83,0.83,0,0,1-.7.95,1.43,1.43,0,0,1-.64-0.21v1.36a3.48,3.48,0,0,0,1.05.19,1.65,1.65,0,0,0,1.53-.83c0.35-.67.38-1.56,0.46-3.66l0.07-2.29H630v6.59Z" transform="translate(-553.14 -717.64)"/><path class="cls-1" d="M640.49,870.35h1.64v-7.79H635.5c0,1.06-.14,4.48-0.22,5.69a0.84,0.84,0,0,1-.7.95,1.42,1.42,0,0,1-.64-0.21v1.36a3.46,3.46,0,0,0,1.05.19,1.65,1.65,0,0,0,1.53-.83c0.35-.67.38-1.56,0.46-3.66l0.07-2.29h3.45v6.59Z" transform="translate(-553.14 -717.64)"/><path class="cls-1" d="M697.43,863.77H694l-0.08,2.29c-0.08,2.09-.11,3-0.46,3.66a1.64,1.64,0,0,1-1.52.84,3.34,3.34,0,0,1-1-.2V869a1.41,1.41,0,0,0,.64.21,0.83,0.83,0,0,0,.69-0.94c0.08-1.22.2-4.64,0.22-5.7h6.62v7.79h-1.63v-6.58Z" transform="translate(-553.14 -717.64)"/><path class="cls-1" d="M674.11,869a2.6,2.6,0,0,0,.91.22,1.38,1.38,0,0,0,1.29-1c-0.24-.44-3.39-5.64-3.39-5.64h2l2.19,4.22,2.25-4.22h2s-2.53,4.18-3.43,5.79-1.37,2.25-2.76,2.25a3.5,3.5,0,0,1-1.05-.2V869Z" transform="translate(-553.14 -717.64)"/><path class="cls-1" d="M740,860.37c0,1.13-.94,1.57-2,1.57s-2-.45-2-1.57h0.62a1.7,1.7,0,0,0,2.78,0H740Z" transform="translate(-553.14 -717.64)"/><path class="cls-1" d="M553.14,823.63h4.33l3.08,11.61h0l3.26-11.61h4.33l3.26,11.61h0l3.08-11.61h4.33l-5,15.94h-4.47L566,828.23h0l-3.35,11.34h-4.47Z" transform="translate(-553.14 -717.64)"/><path class="cls-1" d="M583.26,823.63h4.33v15.94h-4.33V823.63Z" transform="translate(-553.14 -717.64)"/><path class="cls-1" d="M594,823.63h10.71c4.54,0,5.63,2.7,5.63,4.84,0,3.39-1.79,5.4-5.29,5.4H598.3v5.69H594V823.63ZM598.3,831h4.64c1.34,0,2.91,0,2.91-2.19s-1.28-2.25-2.5-2.25h-5V831Z" transform="translate(-553.14 -717.64)"/><path class="cls-1" d="M624.73,823.19c8.57,0,9.91,5.09,9.91,8.42s-1.34,8.42-9.91,8.42-9.91-5.09-9.91-8.42S616.16,823.19,624.73,823.19Zm0,13.8c3.93,0,5.31-2.9,5.31-5.38s-1.38-5.38-5.31-5.38-5.31,2.9-5.31,5.38S620.8,837,624.73,837Z" transform="translate(-553.14 -717.64)"/><path class="cls-1" d="M633.26,738.77a11.67,11.67,0,0,0-.79-1,8.23,8.23,0,0,0,2.07-5.17,7.22,7.22,0,0,0-1.21-3.9c-2.69-4.27-9.73-8-19.64-11v1.44c10.31,2.63,17.27,6,19.5,9.7a5.08,5.08,0,0,1,.77,2.62c0,1.74-1,3.42-2.74,5-3.49-3.26-9.56-6.18-17.54-8.62v1.44c8.07,2.05,14.07,4.54,17.38,7.32a30.54,30.54,0,0,1-8.35,4.75,77.48,77.48,0,0,0-9-3.34v1.44q4.34,1.11,7.86,2.38c-9,3.48-22.33,6.33-38.32,8.19v4.76a175.21,175.21,0,0,0,30.47-6.58v1.43q4.34,1.11,7.86,2.37c-9,3.48-22.33,6.33-38.32,8.19v4.76a175.58,175.58,0,0,0,30.47-6.58v1.42q4.35,1.11,7.86,2.38c-9,3.48-22.33,6.33-38.33,8.19v4.76a175.22,175.22,0,0,0,30.47-6.58v1.42q4.34,1.11,7.86,2.38c-9,3.48-22.33,6.33-38.32,8.19v4.76a175.4,175.4,0,0,0,30.47-6.58v1.42q4.35,1.11,7.86,2.38c-9,3.48-22.33,6.33-38.32,8.19v4.76c18.26-2.48,33.13-6.52,42.08-11.45a25.08,25.08,0,0,1,5.77,3.44c-6.68,5.85-24.42,10.7-47.84,13.42v4.76c24.63-3.34,43.09-9.52,49.17-16.88a8,8,0,0,1,.75,1,5.11,5.11,0,0,1,.82,2.7c0,8.12-20.7,15.1-50.74,18.59v4.76c30.33-4.12,51.32-12.55,51.32-22.17a7.28,7.28,0,0,0-1.29-4,10.88,10.88,0,0,0-.78-1,8.24,8.24,0,0,0,2.07-5.17,7.25,7.25,0,0,0-1.28-4,11.32,11.32,0,0,0-.78-1,8.24,8.24,0,0,0,2.07-5.17,7.25,7.25,0,0,0-1.28-4,11.27,11.27,0,0,0-.79-1,8.23,8.23,0,0,0,2.07-5.17,7.27,7.27,0,0,0-1.28-4,11.58,11.58,0,0,0-.79-1,8.24,8.24,0,0,0,2.07-5.17,7.29,7.29,0,0,0-1.28-4,11.75,11.75,0,0,0-.78-1,8.23,8.23,0,0,0,2.07-5.17A7.25,7.25,0,0,0,633.26,738.77Zm-19.56,9.39a69.13,69.13,0,0,0,11.58-4.86,25,25,0,0,1,5.77,3.44,30.48,30.48,0,0,1-8.34,4.75A77.09,77.09,0,0,0,613.71,748.16Zm0,10.17a69.26,69.26,0,0,0,11.58-4.85,25.05,25.05,0,0,1,5.77,3.44,30.52,30.52,0,0,1-8.34,4.75A77,77,0,0,0,613.71,758.33Zm0,10.17a69.33,69.33,0,0,0,11.58-4.85,25.06,25.06,0,0,1,5.77,3.44,30.6,30.6,0,0,1-8.34,4.75A77.49,77.49,0,0,0,613.71,768.5Zm0,10.17a69.18,69.18,0,0,0,11.58-4.86,25,25,0,0,1,5.77,3.44,30.47,30.47,0,0,1-8.34,4.75A77.82,77.82,0,0,0,613.71,778.67Zm19.43,0.88a5.1,5.1,0,0,1,.82,2.7c0,1.74-1,3.42-2.74,5A25.41,25.41,0,0,0,626,783.6a23.44,23.44,0,0,0,6.41-5.05A8,8,0,0,1,633.14,779.55Zm0-10.16a5.1,5.1,0,0,1,.81,2.69c0,1.74-1,3.42-2.74,5a25.42,25.42,0,0,0-5.24-3.68,23.4,23.4,0,0,0,6.41-5.05A8,8,0,0,1,633.14,769.39Zm0-10.17a5.11,5.11,0,0,1,.81,2.69c0,1.74-1,3.42-2.74,5a25.49,25.49,0,0,0-5.24-3.68,23.45,23.45,0,0,0,6.41-5.05A7.83,7.83,0,0,1,633.14,759.22Zm0-10.17a5.07,5.07,0,0,1,.82,2.69c0,1.74-1,3.42-2.74,5a25.51,25.51,0,0,0-5.24-3.68,23.44,23.44,0,0,0,6.41-5.05A8.21,8.21,0,0,1,633.14,749Zm-1.92-2.45a25.47,25.47,0,0,0-5.24-3.68,23.48,23.48,0,0,0,6.41-5.05,8.18,8.18,0,0,1,.76,1,5.11,5.11,0,0,1,.81,2.68C634,743.3,633,745,631.22,746.6Z" transform="translate(-553.14 -717.64)"/></svg>