<svg id="Calque_1" data-name="Calque 1" xmlns="http://www.w3.org/2000/svg" viewBox="0 0 51.32 98.13"><defs><style>.cls-1{fill:#fff;}</style></defs><title>logo__wipo-picture-mark</title><path class="cls-1" d="M633.27,515.22a11.83,11.83,0,0,0-.79-1,8.23,8.23,0,0,0,2.07-5.17,7.23,7.23,0,0,0-1.21-3.9c-2.69-4.27-9.73-8-19.64-11v1.44c10.31,2.63,17.27,6,19.5,9.7a5.08,5.08,0,0,1,.77,2.62c0,1.74-1,3.42-2.74,5-3.49-3.26-9.56-6.18-17.54-8.62v1.44c8.07,2.05,14.07,4.54,17.38,7.32a30.52,30.52,0,0,1-8.35,4.75,77.66,77.66,0,0,0-9-3.34v1.44q4.34,1.11,7.86,2.38c-9,3.48-22.33,6.33-38.32,8.19v4.76a175.21,175.21,0,0,0,30.47-6.58v1.43q4.34,1.11,7.86,2.37c-9,3.48-22.33,6.33-38.32,8.19v4.76a175.58,175.58,0,0,0,30.47-6.58v1.42q4.35,1.11,7.86,2.38c-9,3.48-22.33,6.33-38.33,8.19v4.76A175.22,175.22,0,0,0,613.68,545v1.42q4.34,1.11,7.86,2.38c-9,3.48-22.33,6.33-38.32,8.19v4.76a175.4,175.4,0,0,0,30.47-6.58v1.42q4.35,1.11,7.86,2.38c-9,3.48-22.33,6.33-38.32,8.19v4.76c18.26-2.48,33.13-6.52,42.08-11.45a25.08,25.08,0,0,1,5.77,3.44c-6.68,5.85-24.42,10.7-47.84,13.42v4.76c24.63-3.34,43.09-9.52,49.17-16.88a8.1,8.1,0,0,1,.75,1,5.11,5.11,0,0,1,.82,2.7c0,8.12-20.7,15.1-50.74,18.59v4.76c30.33-4.12,51.32-12.55,51.32-22.17a7.28,7.28,0,0,0-1.29-4,10.76,10.76,0,0,0-.78-1,8.24,8.24,0,0,0,2.07-5.17,7.25,7.25,0,0,0-1.28-4,11.4,11.4,0,0,0-.78-1,8.24,8.24,0,0,0,2.07-5.17,7.25,7.25,0,0,0-1.28-4,11.45,11.45,0,0,0-.79-1,8.23,8.23,0,0,0,2.07-5.17,7.27,7.27,0,0,0-1.28-4,11.58,11.58,0,0,0-.79-1,8.24,8.24,0,0,0,2.07-5.17,7.29,7.29,0,0,0-1.28-4,11.78,11.78,0,0,0-.78-1,8.23,8.23,0,0,0,2.07-5.17A7.25,7.25,0,0,0,633.27,515.22Zm-19.56,9.39a69.18,69.18,0,0,0,11.58-4.86,25,25,0,0,1,5.77,3.44,30.46,30.46,0,0,1-8.34,4.75A77.17,77.17,0,0,0,613.71,524.62Zm0,10.17a69.26,69.26,0,0,0,11.58-4.85,25.06,25.06,0,0,1,5.77,3.44,30.52,30.52,0,0,1-8.34,4.75A77.23,77.23,0,0,0,613.72,534.79Zm0,10.17a69.24,69.24,0,0,0,11.58-4.85,25.06,25.06,0,0,1,5.77,3.44,30.6,30.6,0,0,1-8.34,4.75A77.48,77.48,0,0,0,613.71,545Zm0,10.17a69.1,69.1,0,0,0,11.58-4.86,25,25,0,0,1,5.77,3.44,30.47,30.47,0,0,1-8.34,4.75A77.91,77.91,0,0,0,613.71,555.13ZM633.14,556a5.1,5.1,0,0,1,.82,2.7c0,1.74-1,3.42-2.74,5a25.41,25.41,0,0,0-5.24-3.68,23.44,23.44,0,0,0,6.41-5.05A8,8,0,0,1,633.14,556Zm0-10.16a5.1,5.1,0,0,1,.81,2.69c0,1.74-1,3.42-2.74,5a25.38,25.38,0,0,0-5.24-3.68,23.42,23.42,0,0,0,6.41-5.05A7.89,7.89,0,0,1,633.15,545.85Zm0-10.17a5.11,5.11,0,0,1,.81,2.69c0,1.74-1,3.42-2.74,5a25.41,25.41,0,0,0-5.24-3.68,23.47,23.47,0,0,0,6.41-5.05A7.82,7.82,0,0,1,633.14,535.67Zm0-10.17a5.07,5.07,0,0,1,.82,2.69c0,1.74-1,3.42-2.74,5a25.46,25.46,0,0,0-5.24-3.68,23.43,23.43,0,0,0,6.41-5.05A8.29,8.29,0,0,1,633.14,525.5Zm-1.92-2.45a25.47,25.47,0,0,0-5.24-3.68,23.46,23.46,0,0,0,6.41-5.05,8.09,8.09,0,0,1,.76,1A5.11,5.11,0,0,1,634,518C634,519.76,633,521.45,631.22,523.06Z" transform="translate(-583.22 -494.1)"/></svg>