<svg id="Calque_1" data-name="Calque 1" xmlns="http://www.w3.org/2000/svg" viewBox="0 0 330.15 22.55"><defs><style>.cls-1{fill:#fff;}</style></defs><title>logo__wipo-word-mark--ru</title><path class="cls-1" d="M126.06,862.45h2.79l2,7.47h0l2.09-7.47h2.79l2.1,7.47h0l2-7.47h2.79L139.4,872.7h-2.87l-2.16-7.3h0l-2.15,7.3h-2.87Z" transform="translate(-126.06 -862.15)"/><path class="cls-1" d="M145.43,862.44h2.79V872.7h-2.79V862.44Z" transform="translate(-126.06 -862.15)"/><path class="cls-1" d="M152.32,862.44h6.9c2.91,0,3.62,1.74,3.62,3.12,0,2.18-1.15,3.48-3.4,3.48h-4.32v3.67h-2.79V862.44Zm2.79,4.72h3c0.86,0,1.87,0,1.87-1.41s-0.82-1.45-1.61-1.45h-3.25v2.86Z" transform="translate(-126.06 -862.15)"/><path class="cls-1" d="M172.15,862.15c5.52,0,6.38,3.27,6.38,5.41s-0.86,5.42-6.37,5.42-6.38-3.27-6.38-5.42S166.63,862.15,172.15,862.15Zm0,8.87a3.46,3.46,0,1,0-3.42-3.46A3.23,3.23,0,0,0,172.15,871Z" transform="translate(-126.06 -862.15)"/><path class="cls-1" d="M145.64,878.73h2.67a1.14,1.14,0,0,1,1.31,1.19,1,1,0,0,1-.81,1h0a1.12,1.12,0,0,1,1,1.16,1.38,1.38,0,0,1-1.56,1.34h-2.62v-4.7Zm0.49,2h1.93c0.66,0,1.08-.21,1.08-0.83a0.75,0.75,0,0,0-.92-0.76h-2.1v1.59Zm0,2.22h2a0.92,0.92,0,0,0,1.11-.9,0.82,0.82,0,0,0-1-.87h-2.17V883Z" transform="translate(-126.06 -862.15)"/><path class="cls-1" d="M148.25,883.63h-2.82v-5.1h2.88a1.34,1.34,0,0,1,1.51,1.39,1.18,1.18,0,0,1-.48,1,1.31,1.31,0,0,1,.67,1.19A1.58,1.58,0,0,1,148.25,883.63Zm-2.42-.4h2.42a1.22,1.22,0,0,0,1.36-1.14,0.91,0.91,0,0,0-.51-0.86,1,1,0,0,1,.38.86,1.11,1.11,0,0,1-1.31,1.1h-2.25V881h2.37l0.32,0V880.9a2.12,2.12,0,0,1-.56.07h-2.13v-2h2.3a0.93,0.93,0,0,1,1.12,1,1.06,1.06,0,0,1-.14.58,0.83,0.83,0,0,0,.23-0.59,0.94,0.94,0,0,0-1.11-1h-2.47v4.3Zm0.49-.45h1.85a0.73,0.73,0,0,0,.91-0.7c0-.48-0.23-0.67-0.79-0.67h-2v1.37Zm0-2.22h1.73c0.77,0,.88-0.3.88-0.63s-0.09-.56-0.72-0.56h-1.9v1.19Z" transform="translate(-126.06 -862.15)"/><path class="cls-1" d="M156,881.64a2.17,2.17,0,0,1-2.33,1.91,2.32,2.32,0,0,1-2.5-2.47,2.37,2.37,0,0,1,2.5-2.47,2.07,2.07,0,0,1,2.29,1.71h-0.49a1.63,1.63,0,0,0-1.8-1.26,1.82,1.82,0,0,0-2,2,1.85,1.85,0,0,0,2,2,1.66,1.66,0,0,0,1.84-1.46H156Z" transform="translate(-126.06 -862.15)"/><path class="cls-1" d="M153.68,883.75a2.52,2.52,0,0,1-2.7-2.67,2.57,2.57,0,0,1,2.7-2.67,2.28,2.28,0,0,1,2.49,1.88l0,0.22h-0.88l0-.17a1.49,1.49,0,0,0-1.6-1.09,1.62,1.62,0,0,0-1.78,1.82,1.66,1.66,0,0,0,1.78,1.82,1.47,1.47,0,0,0,1.64-1.3l0-.16h0.88l0,0.22A2.38,2.38,0,0,1,153.68,883.75Zm0-4.94a2.18,2.18,0,0,0-2.3,2.27,2.12,2.12,0,0,0,2.3,2.27,2,2,0,0,0,2.09-1.51h-0.09a1.85,1.85,0,0,1-2,1.46,2,2,0,0,1-2.18-2.22,2,2,0,0,1,2.18-2.22,1.85,1.85,0,0,1,2,1.26h0.09A1.94,1.94,0,0,0,153.68,878.81Z" transform="translate(-126.06 -862.15)"/><path class="cls-1" d="M157.78,878.73h3.74v0.45h-3.25v1.59h3.14v0.45h-3.14V883h3.31v0.45h-3.8v-4.7Z" transform="translate(-126.06 -862.15)"/><path class="cls-1" d="M161.78,883.63h-4.2v-5.1h4.14v0.85h-3.25v1.19h3.14v0.85h-3.14v1.37h3.31v0.85Zm-3.8-.4h3.4v0h-3.31V881h3.14v0h-3.14v-2h3.25v0H158v4.3Z" transform="translate(-126.06 -862.15)"/><path class="cls-1" d="M168.11,878.73h0.69v4.7h-0.49v-4.06h0l-2.08,4.06h-0.45l-2.07-4.07h0v4.07h-0.49v-4.7h0.71l2.1,4.09Z" transform="translate(-126.06 -862.15)"/><path class="cls-1" d="M169,883.63h-0.89v-3.46l-1.77,3.46h-0.69l-1.76-3.47v3.47H163v-5.1h1l2,3.85,2-3.85h1v5.1Zm-0.49-.4h0.09v-4.3h-0.37l-2.21,4.3h0.08l2.08-4.06h0.32v4.06Zm-2.62,0H166l-2.2-4.3h-0.39v4.3h0.09v-4.07h0.32l0.07,0.11Z" transform="translate(-126.06 -862.15)"/><path class="cls-1" d="M170.66,878.73h0.49v4h0l3.31-4H175v4.71h-0.49v-4h0l-3.29,4h-0.59v-4.71Z" transform="translate(-126.06 -862.15)"/><path class="cls-1" d="M175.24,883.63h-0.89V880l-3,3.68h-0.88v-5.11h0.89v3.68l3-3.68h0.86v5.11Zm-0.49-.4h0.09v-4.3h-0.27l-3.31,4H171v-4h-0.09v4.3h0.29l3.29-4h0.29v4Z" transform="translate(-126.06 -862.15)"/><path class="cls-1" d="M177,878.73h2.54a1.28,1.28,0,0,1,1.42,1.36,1.37,1.37,0,0,1-1.64,1.37h-1.83v2H177v-4.7Zm0.49,2.28h1.88a0.86,0.86,0,0,0,1.05-.92,0.81,0.81,0,0,0-1-.91h-2V881Z" transform="translate(-126.06 -862.15)"/><path class="cls-1" d="M177.67,883.63h-0.89v-5.1h2.74a1.48,1.48,0,0,1,1.62,1.56,1.56,1.56,0,0,1-1.84,1.57h-1.63v2Zm-0.49-.4h0.09v-2h2a1.2,1.2,0,0,0,1.44-1.17,1.1,1.1,0,0,0-1.22-1.16h-2.34v4.3Zm2.17-2h-2.08V879h2.18a1,1,0,0,1,1.16,1.11A1.06,1.06,0,0,1,179.35,881.21Zm-1.68-.4h1.68c0.71,0,.85-0.29.85-0.72a0.62,0.62,0,0,0-.76-0.71h-1.78v1.43Z" transform="translate(-126.06 -862.15)"/><path class="cls-1" d="M182.31,878.73h0.49v2h3.4v-2h0.49v4.7H186.2v-2.27h-3.4v2.27h-0.49v-4.7Z" transform="translate(-126.06 -862.15)"/><path class="cls-1" d="M186.88,883.63H186v-2.27h-3v2.27h-0.89v-5.1H183v2h3v-2h0.89v5.1Zm-0.49-.4h0.09v-4.3H186.4v2h-3.8v-2h-0.09v4.3h0.09V881h3.8v2.27Z" transform="translate(-126.06 -862.15)"/><path class="cls-1" d="M191.49,882H189l-0.64,1.43h-0.53l2.13-4.7h0.57l2.14,4.7h-0.57Zm-1.23-2.79-1,2.34h2.08Z" transform="translate(-126.06 -862.15)"/><path class="cls-1" d="M193,883.63h-1l-0.63-1.43h-2.22l-0.64,1.43h-1l2.32-5.1h0.82Zm-0.75-.4h0.13l-2-4.3h-0.07l1.25,2.83h-2.7l1.27-2.83h-0.06l-2,4.3h0.09l0.64-1.43h2.74Zm-2.73-1.88H191l-0.73-1.65Z" transform="translate(-126.06 -862.15)"/><path class="cls-1" d="M198.09,883.43H197.6v-2.07h-1.89a1,1,0,0,0-1.14,1.11,2.16,2.16,0,0,1-.12,1h-0.53a2.47,2.47,0,0,0,.16-1c0-.77.17-1.2,0.84-1.3h0A1.15,1.15,0,0,1,194,880a1.28,1.28,0,0,1,1.53-1.27h2.56v4.7Zm-0.49-4.26H195.5a0.81,0.81,0,0,0-1,.82,0.86,0.86,0,0,0,1,.92h2.06v-1.74Z" transform="translate(-126.06 -862.15)"/><path class="cls-1" d="M198.29,883.63H197.4v-2.07h-1.69a0.76,0.76,0,0,0-.94.91,1.8,1.8,0,0,1-.17,1.09l-0.06.07h-1.12l0.37-.35a3.29,3.29,0,0,0,.1-0.84,1.52,1.52,0,0,1,.51-1.32,1.37,1.37,0,0,1-.6-1.13,1.46,1.46,0,0,1,1.73-1.47h2.76v5.1Zm-0.49-.4h0.09v-4.3h-2.36c-1.33,0-1.33.81-1.33,1.07a1,1,0,0,0,.41.79,1.1,1.1,0,0,1-.28-0.79,1,1,0,0,1,1.17-1h2.31v2.14h-2.26a1.79,1.79,0,0,1-.42,0v0.17a2.15,2.15,0,0,1,.59-0.07h2.09v2.07Zm-3.6,0h0.11a4.14,4.14,0,0,0,.05-0.76,1.25,1.25,0,0,1,.43-1.09c-0.37.11-.48,0.38-0.52,1.08A4.91,4.91,0,0,1,194.21,883.23Zm1.29-3.86c-0.68,0-.77.33-0.77,0.62a0.66,0.66,0,0,0,.81.72h1.86v-1.34H195.5Z" transform="translate(-126.06 -862.15)"/><path class="cls-1" d="M206.51,878.61a2.47,2.47,0,1,1-2.56,2.47A2.38,2.38,0,0,1,206.51,878.61Zm0,4.5a2,2,0,1,0-2-2A1.9,1.9,0,0,0,206.51,883.1Z" transform="translate(-126.06 -862.15)"/><path class="cls-1" d="M206.51,883.75a2.67,2.67,0,1,1,2.76-2.67A2.58,2.58,0,0,1,206.51,883.75Zm0-4.94a2.27,2.27,0,1,0,2.36,2.27A2.18,2.18,0,0,0,206.51,878.81Zm0,4.5a2.22,2.22,0,1,1,2.23-2.22A2.09,2.09,0,0,1,206.51,883.3Zm0-4a1.82,1.82,0,1,0,1.83,1.82A1.7,1.7,0,0,0,206.51,879.26Z" transform="translate(-126.06 -862.15)"/><path class="cls-1" d="M210.6,878.73h2.54a1.28,1.28,0,0,1,1.42,1.36,1.37,1.37,0,0,1-1.64,1.37h-1.83v2H210.6v-4.7Zm0.49,2.28H213a0.86,0.86,0,0,0,1.05-.92,0.82,0.82,0,0,0-1-.91h-2V881Z" transform="translate(-126.06 -862.15)"/><path class="cls-1" d="M211.29,883.63H210.4v-5.1h2.74a1.48,1.48,0,0,1,1.62,1.56,1.56,1.56,0,0,1-1.84,1.57h-1.63v2Zm-0.49-.4h0.09v-2h2a1.2,1.2,0,0,0,1.44-1.17,1.08,1.08,0,0,0-1.22-1.16H210.8v4.3Zm2.17-2h-2.09V879h2.18a1,1,0,0,1,1.16,1.11A1.06,1.06,0,0,1,213,881.21Zm-1.69-.4H213c0.71,0,.85-0.29.85-0.72a0.62,0.62,0,0,0-.76-0.71h-1.78v1.43Z" transform="translate(-126.06 -862.15)"/><path class="cls-1" d="M216.15,878.73h3.47v0.45h-3v4.26h-0.49v-4.71Z" transform="translate(-126.06 -862.15)"/><path class="cls-1" d="M216.84,883.63H216v-5.11h3.87v0.85h-3v4.26Zm-0.49-.4h0.09V879h3v0h-3.07v4.3Z" transform="translate(-126.06 -862.15)"/><path class="cls-1" d="M223,882h-2.48l-0.64,1.43h-0.53l2.13-4.7h0.57l2.14,4.7h-0.57Zm-1.23-2.79-1,2.34h2.08Z" transform="translate(-126.06 -862.15)"/><path class="cls-1" d="M224.52,883.63h-1l-0.63-1.43h-2.22L220,883.63h-1l2.32-5.1h0.82Zm-0.75-.4h0.13l-2-4.3h-0.07l1.25,2.83h-2.7l1.26-2.83h-0.06l-2,4.3h0.09l0.64-1.43h2.74ZM221,881.35h1.47l-0.73-1.65Z" transform="translate(-126.06 -862.15)"/><path class="cls-1" d="M225.37,878.73h0.49v2h3.4v-2h0.49v4.7h-0.49v-2.27h-3.4v2.27h-0.49v-4.7Z" transform="translate(-126.06 -862.15)"/><path class="cls-1" d="M229.95,883.63h-0.89v-2.27h-3v2.27h-0.89v-5.1h0.89v2h3v-2h0.89v5.1Zm-0.49-.4h0.09v-4.3h-0.09v2h-3.8v-2h-0.09v4.3h0.09V881h3.8v2.27Z" transform="translate(-126.06 -862.15)"/><path class="cls-1" d="M236,883.43H235.5v-4h0l-3.31,4h-0.57v-4.7h0.49v4h0l3.29-4H236v4.7Z" transform="translate(-126.06 -862.15)"/><path class="cls-1" d="M236.18,883.63H235.3V880l-3,3.68h-0.86v-5.1h0.89v3.67l3-3.67h0.88v5.1Zm-0.49-.4h0.09v-4.3h-0.29l-3.29,4h-0.29v-4h-0.09v4.3h0.27l3.31-4h0.29v4Z" transform="translate(-126.06 -862.15)"/><path class="cls-1" d="M239.31,880.74h0.32c0.74,0,1.19-.18,1.19-0.8a0.94,0.94,0,0,0-1.14-.88,1.1,1.1,0,0,0-1.33,1.16h-0.5a1.59,1.59,0,0,1,1.83-1.58,1.4,1.4,0,0,1,1.64,1.3,1,1,0,0,1-.88,1h0a1.13,1.13,0,0,1,1.06,1.19c0,1.06-.85,1.43-1.88,1.43-1.22,0-1.88-.57-1.89-1.63h0.5a1.2,1.2,0,0,0,1.46,1.21,1.06,1.06,0,0,0,1.31-1c0-.79-0.59-1-1.29-1h-0.41v-0.42Z" transform="translate(-126.06 -862.15)"/><path class="cls-1" d="M239.63,883.74c-1.34,0-2.08-.65-2.09-1.83v-0.2h0.89v0.19a1,1,0,0,0,1.26,1,0.89,0.89,0,0,0,1.1-.8c0-.55-0.31-0.76-1.09-0.76h-0.61v-0.82h0.52c0.83,0,1-.23,1-0.6a0.77,0.77,0,0,0-.94-0.68,0.91,0.91,0,0,0-1.13,1v0.2h-0.91v-0.21a1.79,1.79,0,0,1,2-1.77,1.59,1.59,0,0,1,1.84,1.5,1.17,1.17,0,0,1-.48.94,1.34,1.34,0,0,1,.67,1.22C241.71,883.14,241,883.74,239.63,883.74ZM238,882.11a1.4,1.4,0,0,0,1.68,1.23c0.77,0,1.68-.21,1.68-1.23a0.94,0.94,0,0,0-.54-0.91,1,1,0,0,1,.44.92,1.24,1.24,0,0,1-1.51,1.2,1.39,1.39,0,0,1-1.65-1.21H238Zm1.56-1.15h0.2a2.9,2.9,0,0,1,.53,0v-0.11a2.74,2.74,0,0,1-.61.05Zm0.18-2.1a1.13,1.13,0,0,1,1.34,1.08,1,1,0,0,1-.17.58,0.77,0.77,0,0,0,.27-0.58,1.25,1.25,0,0,0-1.44-1.1,1.41,1.41,0,0,0-1.61,1.18h0.1A1.31,1.31,0,0,1,239.69,878.86Z" transform="translate(-126.06 -862.15)"/><path class="cls-1" d="M245.91,882h-2.48l-0.64,1.43h-0.53l2.13-4.7H245l2.14,4.7h-0.57Zm-1.23-2.79-1,2.34h2.08Z" transform="translate(-126.06 -862.15)"/><path class="cls-1" d="M247.42,883.63h-1l-0.63-1.43h-2.22l-0.64,1.43h-1l2.32-5.1h0.82Zm-0.75-.4h0.12l-2-4.3h-0.07l1.25,2.83h-2.7l1.27-2.83h-0.06l-2,4.3h0.09l0.64-1.43H246Zm-2.73-1.88h1.47l-0.73-1.65Z" transform="translate(-126.06 -862.15)"/><path class="cls-1" d="M258.88,883.43h-0.49v-4h0l-3.31,4H254.5v-4.7H255v4h0l3.29-4h0.59v4.7Z" transform="translate(-126.06 -862.15)"/><path class="cls-1" d="M259.08,883.63h-0.89V880l-3,3.68H254.3v-5.1h0.89v3.67l3-3.67h0.88v5.1Zm-0.49-.4h0.09v-4.3h-0.29l-3.29,4H254.8v-4H254.7v4.3H255l3.31-4h0.29l0,0.2v3.82Z" transform="translate(-126.06 -862.15)"/><path class="cls-1" d="M264.79,883.43H264.3v-2.07h-1.89a1,1,0,0,0-1.14,1.11,2.21,2.21,0,0,1-.12,1h-0.53a2.51,2.51,0,0,0,.17-1c0-.77.17-1.2,0.84-1.3h0a1.15,1.15,0,0,1-.92-1.14,1.27,1.27,0,0,1,1.53-1.27h2.57v4.7Zm-0.49-4.26H262.2a0.81,0.81,0,0,0-1,.82,0.87,0.87,0,0,0,1,.92h2.06v-1.74Z" transform="translate(-126.06 -862.15)"/><path class="cls-1" d="M265,883.63H264.1v-2.07h-1.69a0.76,0.76,0,0,0-.94.91,1.83,1.83,0,0,1-.17,1.09l-0.06.07h-1.12l0.36-.34a3.24,3.24,0,0,0,.1-0.84,1.51,1.51,0,0,1,.51-1.32,1.37,1.37,0,0,1-.6-1.13,1.45,1.45,0,0,1,1.73-1.47H265v5.1Zm-0.49-.4h0.09v-4.3h-2.37c-1.33,0-1.33.81-1.33,1.07a1,1,0,0,0,.4.79A1.1,1.1,0,0,1,261,880a1,1,0,0,1,1.17-1h2.31v2.14h-2.26a1.8,1.8,0,0,1-.42,0v0.17a2.14,2.14,0,0,1,.59-0.07h2.09v2.07Zm-3.6,0H261a4.39,4.39,0,0,0,.05-0.76,1.24,1.24,0,0,1,.42-1.08c-0.37.11-.48,0.38-0.51,1.08A5.09,5.09,0,0,1,260.91,883.23Zm1.29-3.86c-0.68,0-.77.33-0.77,0.62a0.66,0.66,0,0,0,.82.72h1.86v-1.34H262.2Z" transform="translate(-126.06 -862.15)"/><polygon class="cls-1" points="126.58 20.84 126.58 16.58 126.09 16.58 126.09 20.84 122.69 20.84 122.69 16.58 122.2 16.58 122.2 21.29 126.46 21.29 126.46 22.35 126.94 22.35 126.94 20.84 126.58 20.84"/><path class="cls-1" d="M253.21,884.7h-0.89v-1.07h-4.25v-5.1H249v4.26h3v-4.26h0.89v4.26h0.37v1.91Zm-0.49-.4h0.09v-1.11h-0.37v-4.26h-0.09v4.26h-3.8v-4.26h-0.09v4.3h4.25v1.07Z" transform="translate(-126.06 -862.15)"/><path class="cls-1" d="M377.32,880.47a1.37,1.37,0,0,0-1.52-1.13,1.75,1.75,0,0,0,.07,3.49,1.35,1.35,0,0,0,1.45-1.19h1.07c-0.14.94-.75,1.93-2.69,1.93a2.49,2.49,0,1,1,.12-5c1.62,0,2.46.85,2.57,1.87h-1.07Z" transform="translate(-126.06 -862.15)"/><path class="cls-1" d="M375.69,883.76a2.53,2.53,0,0,1-2.71-2.68,2.56,2.56,0,0,1,2.83-2.68c1.88,0,2.66,1.06,2.77,2.05l0,0.22h-1.46l0-.17a1.17,1.17,0,0,0-1.32-1,1.4,1.4,0,0,0-1.39,1.63,1.38,1.38,0,0,0,1.45,1.46,1.16,1.16,0,0,0,1.25-1l0-.17h1.47l0,0.23C378.44,882.62,377.82,883.76,375.69,883.76Zm0.12-5a2.29,2.29,0,1,0-.12,4.57c1.38,0,2.2-.51,2.45-1.53h-0.66a1.54,1.54,0,0,1-1.61,1.19,2,2,0,0,1-.07-3.89,1.58,1.58,0,0,1,1.68,1.13h0.67A2.11,2.11,0,0,0,375.81,878.8Z" transform="translate(-126.06 -862.15)"/><path class="cls-1" d="M379.91,881.08c0-1.33.78-2.48,2.77-2.48s2.77,1.16,2.77,2.48-0.78,2.48-2.77,2.48S379.91,882.4,379.91,881.08Zm4.51,0a1.74,1.74,0,1,0-1.74,1.74A1.62,1.62,0,0,0,384.42,881.08Z" transform="translate(-126.06 -862.15)"/><path class="cls-1" d="M382.68,883.76c-1.86,0-3-1-3-2.68s1.11-2.68,3-2.68,3,1,3,2.68S384.54,883.76,382.68,883.76Zm0-5c-2.32,0-2.57,1.6-2.57,2.28s0.25,2.28,2.57,2.28,2.57-1.6,2.57-2.28S385,878.8,382.68,878.8Zm0,4.23a1.95,1.95,0,1,1,1.94-1.94A1.82,1.82,0,0,1,382.68,883Zm0-3.49a1.55,1.55,0,1,0,1.54,1.55A1.42,1.42,0,0,0,382.68,879.53Z" transform="translate(-126.06 -862.15)"/><path class="cls-1" d="M397.49,880.47a1.37,1.37,0,0,0-1.51-1.13,1.75,1.75,0,0,0,.07,3.49,1.35,1.35,0,0,0,1.45-1.19h1.07c-0.14.94-.75,1.93-2.69,1.93a2.49,2.49,0,1,1,.12-5c1.62,0,2.46.85,2.57,1.87h-1.07Z" transform="translate(-126.06 -862.15)"/><path class="cls-1" d="M395.87,883.76a2.53,2.53,0,0,1-2.71-2.68A2.56,2.56,0,0,1,396,878.4c1.88,0,2.67,1.06,2.77,2.05l0,0.22h-1.46l0-.17a1.17,1.17,0,0,0-1.32-1,1.55,1.55,0,0,0,.07,3.09,1.16,1.16,0,0,0,1.25-1l0-.17h1.47l0,0.23C398.61,882.62,398,883.76,395.87,883.76Zm0.12-5a2.17,2.17,0,0,0-2.43,2.28,2.13,2.13,0,0,0,2.31,2.28c1.38,0,2.2-.51,2.45-1.53h-0.66A1.53,1.53,0,0,1,396,883a2,2,0,0,1-.07-3.89,1.58,1.58,0,0,1,1.68,1.13h0.67A2.11,2.11,0,0,0,396,878.8Z" transform="translate(-126.06 -862.15)"/><path class="cls-1" d="M401.63,879.46h-1.77v-0.74h4.52v0.74h-1.77v4h-1v-4Z" transform="translate(-126.06 -862.15)"/><path class="cls-1" d="M402.82,883.63h-1.39v-4h-1.77v-1.14h4.92v1.14h-1.77v4Zm-1-.4h0.59v-4h1.77v-0.34h-4.12v0.34h1.77v4Z" transform="translate(-126.06 -862.15)"/><path class="cls-1" d="M405.86,878.73H409a1.12,1.12,0,0,1,1.35,1.17,1,1,0,0,1-.64,1,1.11,1.11,0,0,1,.86,1.17,1.4,1.4,0,0,1-1.6,1.38h-3.08v-4.7Zm1,1.91h1.85a0.55,0.55,0,0,0,.64-0.6c0-.39-0.24-0.57-0.81-0.57h-1.67v1.17Zm0,2.06h1.77a0.71,0.71,0,0,0,.89-0.69,0.65,0.65,0,0,0-.74-0.67h-1.92v1.36Z" transform="translate(-126.06 -862.15)"/><path class="cls-1" d="M408.94,883.63h-3.28v-5.1H409a1.33,1.33,0,0,1,1.55,1.38,1.14,1.14,0,0,1-.4,1,1.32,1.32,0,0,1,.62,1.19A1.6,1.6,0,0,1,408.94,883.63Zm-2.88-.4h2.88a1.2,1.2,0,0,0,1.4-1.18,0.91,0.91,0,0,0-.71-1l-0.49-.15,0.47-.22a0.76,0.76,0,0,0,.53-0.8,0.93,0.93,0,0,0-1.15-1h-2.91v4.3Zm2.56-.34h-2v-1.76h2.12a0.85,0.85,0,0,1,.94.87A0.91,0.91,0,0,1,408.62,882.89Zm-1.57-.4h1.57c0.52,0,.69-0.12.69-0.49a0.47,0.47,0,0,0-.54-0.47H407v1Zm1.65-1.66h-2v-1.58h1.88a0.81,0.81,0,0,1,1,.77A0.74,0.74,0,0,1,408.69,880.84Zm-1.65-.4h1.65a0.35,0.35,0,0,0,.44-0.4c0-.16,0-0.37-0.61-0.37H407v0.77Z" transform="translate(-126.06 -862.15)"/><path class="cls-1" d="M412.34,878.73h4.09v0.74h-3.1v1.19h3v0.74h-3v1.3h3.15v0.74h-4.14v-4.7Z" transform="translate(-126.06 -862.15)"/><path class="cls-1" d="M416.68,883.63h-4.54v-5.1h4.49v1.14h-3.1v0.79h3v1.14h-3v0.9h3.15v1.14Zm-4.14-.4h3.74v-0.34h-3.15v-1.71h3v-0.34h-3v-1.59h3.1v-0.34h-3.69v4.3Z" transform="translate(-126.06 -862.15)"/><path class="cls-1" d="M418.21,878.73h1v1.83h2.92v-1.83h1v4.7h-1V881.3H419.2v2.13h-1v-4.7Z" transform="translate(-126.06 -862.15)"/><path class="cls-1" d="M423.31,883.63h-1.39V881.5H419.4v2.13H418v-5.1h1.39v1.83h2.52v-1.83h1.39v5.1Zm-1-.4h0.59v-4.3h-0.59v1.83H419v-1.83h-0.59v4.3H419V881.1h3.32v2.13Z" transform="translate(-126.06 -862.15)"/><path class="cls-1" d="M425.06,878.73h1v1.83H429v-1.83h1v4.7h-1V881.3h-2.92v2.13h-1v-4.7Z" transform="translate(-126.06 -862.15)"/><path class="cls-1" d="M430.16,883.63h-1.39V881.5h-2.52v2.13h-1.39v-5.1h1.39v1.83h2.52v-1.83h1.39v5.1Zm-1-.4h0.59v-4.3h-0.59v1.83h-3.32v-1.83h-0.59v4.3h0.59V881.1h3.32v2.13Z" transform="translate(-126.06 -862.15)"/><path class="cls-1" d="M431.65,881.08c0-1.33.78-2.48,2.77-2.48s2.77,1.16,2.77,2.48-0.78,2.48-2.77,2.48S431.65,882.4,431.65,881.08Zm4.51,0a1.74,1.74,0,1,0-1.74,1.74A1.62,1.62,0,0,0,436.16,881.08Z" transform="translate(-126.06 -862.15)"/><path class="cls-1" d="M434.42,883.76c-1.86,0-3-1-3-2.68s1.11-2.68,3-2.68,3,1,3,2.68S436.28,883.76,434.42,883.76Zm0-5c-2.32,0-2.57,1.6-2.57,2.28s0.25,2.28,2.57,2.28,2.57-1.6,2.57-2.28S436.74,878.8,434.42,878.8Zm0,4.23a1.95,1.95,0,1,1,1.94-1.94A1.82,1.82,0,0,1,434.42,883Zm0-3.49a1.55,1.55,0,1,0,1.54,1.55A1.42,1.42,0,0,0,434.42,879.53Z" transform="translate(-126.06 -862.15)"/><path class="cls-1" d="M442.75,880.47a1.37,1.37,0,0,0-1.52-1.13,1.75,1.75,0,0,0,.07,3.49,1.35,1.35,0,0,0,1.45-1.19h1.07c-0.14.94-.75,1.93-2.69,1.93a2.49,2.49,0,1,1,.12-5c1.62,0,2.46.85,2.57,1.87h-1.07Z" transform="translate(-126.06 -862.15)"/><path class="cls-1" d="M441.12,883.76a2.53,2.53,0,0,1-2.71-2.68,2.56,2.56,0,0,1,2.83-2.68c1.88,0,2.67,1.06,2.77,2.05l0,0.22h-1.46l0-.17a1.18,1.18,0,0,0-1.32-1,1.55,1.55,0,0,0,.07,3.09,1.16,1.16,0,0,0,1.25-1l0-.17H444l0,0.23C443.87,882.62,443.26,883.76,441.12,883.76Zm0.12-5a2.29,2.29,0,1,0-.12,4.57c1.38,0,2.2-.51,2.45-1.53h-0.66A1.53,1.53,0,0,1,441.3,883a2,2,0,0,1-.07-3.89,1.59,1.59,0,0,1,1.68,1.13h0.67A2.12,2.12,0,0,0,441.24,878.8Z" transform="translate(-126.06 -862.15)"/><path class="cls-1" d="M446.89,879.46h-1.77v-0.74h4.52v0.74h-1.77v4h-1v-4Z" transform="translate(-126.06 -862.15)"/><path class="cls-1" d="M448.08,883.63h-1.39v-4h-1.77v-1.14h4.92v1.14h-1.77v4Zm-1-.4h0.59v-4h1.77v-0.34h-4.12v0.34h1.77v4Z" transform="translate(-126.06 -862.15)"/><path class="cls-1" d="M456,883.43h-1V879.9h0l-2.82,3.53h-1.11v-4.7h0.95v3.53h0l2.8-3.53H456v4.7Z" transform="translate(-126.06 -862.15)"/><path class="cls-1" d="M456.21,883.63h-1.35v-3.17l-2.54,3.17h-1.41v-5.1h1.35v3.18l2.52-3.18h1.43v5.1Zm-1-.4h0.55v-4.3H455l-2.8,3.53h-0.3v-3.53h-0.55v4.3h0.82L455,879.7h0.3v3.53Z" transform="translate(-126.06 -862.15)"/><path class="cls-1" d="M391,879.46h-2.91v1.17H390c1.26,0,1.85.62,1.85,1.41a1.41,1.41,0,0,1-1.6,1.38h-3.08v-4.7H391v0.74Zm-2.91,3.23h1.77a0.71,0.71,0,0,0,.89-0.69,0.65,0.65,0,0,0-.75-0.67h-1.92v1.36Z" transform="translate(-126.06 -862.15)"/><path class="cls-1" d="M390.21,883.63h-3.28v-5.1h4.3v1.14h-2.91v0.77H390c1.51,0,2,.83,2,1.61A1.61,1.61,0,0,1,390.21,883.63Zm-2.88-.4h2.88a1.21,1.21,0,0,0,1.4-1.18c0-.77-0.6-1.21-1.65-1.21h-2v-1.58h2.91v-0.34h-3.5v4.3Zm2.56-.34h-2v-1.76H390a0.85,0.85,0,0,1,.95.87A0.91,0.91,0,0,1,389.9,882.89Zm-1.57-.4h1.57c0.51,0,.69-0.13.69-0.49a0.47,0.47,0,0,0-.54-0.47h-1.72v1Z" transform="translate(-126.06 -862.15)"/><path class="cls-1" d="M275.81,883.43h-1V879.9h0L272,883.43h-1.12v-4.71h0.95v3.53h0l2.8-3.53h1.13v4.71Z" transform="translate(-126.06 -862.15)"/><path class="cls-1" d="M276,883.63h-1.35v-3.18l-2.54,3.18h-1.41v-5.11h1.35v3.18l2.52-3.18H276v5.11Zm-1-.4h0.55v-4.3h-0.84l-2.8,3.53h-0.3v-3.53h-0.55v4.3h0.82l2.82-3.53H275v3.53Z" transform="translate(-126.06 -862.15)"/><path class="cls-1" d="M277.76,878.73h1v1.83h2.92v-1.83h1v4.71h-1V881.3h-2.92v2.13h-1v-4.71Z" transform="translate(-126.06 -862.15)"/><path class="cls-1" d="M282.86,883.63h-1.39V881.5H279v2.13h-1.39v-5.11H279v1.83h2.52v-1.83h1.39v5.11Zm-1-.4h0.59v-4.3h-0.59v1.83h-3.32v-1.83H278v4.3h0.59V881.1h3.32v2.13Z" transform="translate(-126.06 -862.15)"/><path class="cls-1" d="M285.63,879.47h-1.77v-0.74h4.52v0.74h-1.77v4h-1v-4Z" transform="translate(-126.06 -862.15)"/><path class="cls-1" d="M286.82,883.63h-1.39v-4h-1.77v-1.14h4.92v1.14h-1.77v4Zm-1-.4h0.59v-4h1.77v-0.34h-4.12v0.34h1.77v4Z" transform="translate(-126.06 -862.15)"/><path class="cls-1" d="M289.59,878.73h4.09v0.74h-3.1v1.19h3v0.74h-3v1.31h3.15v0.74h-4.14v-4.71Z" transform="translate(-126.06 -862.15)"/><path class="cls-1" d="M293.93,883.63h-4.54v-5.11h4.49v1.14h-3.1v0.79h3v1.14h-3v0.91h3.15v1.14Zm-4.14-.4h3.74V882.9h-3.15v-1.71h3v-0.34h-3v-1.59h3.1v-0.34h-3.68v4.3Z" transform="translate(-126.06 -862.15)"/><path class="cls-1" d="M308.38,878.73h4.08v0.74h-3.1v1.19h3v0.74h-3v1.31h3.15v0.74h-4.14v-4.71Z" transform="translate(-126.06 -862.15)"/><path class="cls-1" d="M312.72,883.63h-4.54v-5.11h4.49v1.14h-3.1v0.79h3v1.14h-3v0.91h3.15v1.14Zm-4.14-.4h3.74V882.9h-3.15v-1.71h3v-0.34h-3v-1.59h3.1v-0.34h-3.68v4.3Z" transform="translate(-126.06 -862.15)"/><path class="cls-1" d="M314.25,878.73h1v2.18l2.41-2.18H319l-2.19,1.91,2.33,2.79h-1.34L316,881.27l-0.8.71v1.46h-1v-4.71Z" transform="translate(-126.06 -862.15)"/><path class="cls-1" d="M319.57,883.63h-1.86l-1.7-2.08-0.57.51v1.57h-1.39v-5.11h1.39v1.93l2.13-1.93h2l-2.45,2.13Zm-1.67-.4h0.81l-2.19-2.62,1.94-1.69h-0.75L315,881.36v-2.43h-0.59v4.3H315v-1.35l1-.9Z" transform="translate(-126.06 -862.15)"/><path class="cls-1" d="M321.4,879.47h-1.77v-0.74h4.52v0.74h-1.77v4h-1v-4Z" transform="translate(-126.06 -862.15)"/><path class="cls-1" d="M322.59,883.63H321.2v-4h-1.77v-1.14h4.92v1.14h-1.77v4Zm-1-.4h0.59v-4H324v-0.34h-4.12v0.34h1.77v4Z" transform="translate(-126.06 -862.15)"/><path class="cls-1" d="M332,878.73h1.17l2.1,4.71h-1.1l-0.49-1.17H331.5L331,883.43h-1.09Zm1.38,2.8-0.8-2-0.82,2h1.62Z" transform="translate(-126.06 -862.15)"/><path class="cls-1" d="M335.62,883.63h-1.54l-0.49-1.17h-1.95l-0.49,1.17h-1.54l2.3-5.11h1.43Zm-1.28-.4H335l-1.92-4.3h-0.91l-1.94,4.3h0.65l0.49-1.17h2.48Zm-0.63-1.5H331.5l1.12-2.71Zm-1.62-.4h1l-0.51-1.25Z" transform="translate(-126.06 -862.15)"/><path class="cls-1" d="M342.78,878.73h1v1.79h1.93a1.4,1.4,0,0,1,1.51,1.45,1.35,1.35,0,0,1-1.53,1.46h-2.9v-4.7Zm1,4h1.66a0.68,0.68,0,0,0,.79-0.72c0-.56-0.3-0.71-0.86-0.71h-1.59v1.44Z" transform="translate(-126.06 -862.15)"/><path class="cls-1" d="M345.68,883.63h-3.1v-5.1H344v1.79h1.73a1.59,1.59,0,0,1,1.71,1.65A1.54,1.54,0,0,1,345.68,883.63Zm-2.7-.4h2.7A1.16,1.16,0,0,0,347,882a1.2,1.2,0,0,0-1.31-1.25h-2.13v-1.79H343v4.3Zm2.45-.34h-1.86v-1.84h1.79A0.92,0.92,0,1,1,345.43,882.9Zm-1.46-.4h1.46A0.48,0.48,0,0,0,346,882c0-.35-0.1-0.51-0.66-0.51H344v1Z" transform="translate(-126.06 -862.15)"/><path class="cls-1" d="M348.62,878.73h1v1.83h2.92v-1.83h1v4.71h-1V881.3H349.6v2.13h-1v-4.71Z" transform="translate(-126.06 -862.15)"/><path class="cls-1" d="M353.71,883.63h-1.39V881.5H349.8v2.13h-1.39v-5.11h1.39v1.83h2.52v-1.83h1.39v5.11Zm-1-.4h0.59v-4.3h-0.59v1.83H349.4v-1.83h-0.59v4.3h0.59V881.1h3.32v2.13Z" transform="translate(-126.06 -862.15)"/><path class="cls-1" d="M354.91,881.08c0-1.32.78-2.48,2.77-2.48s2.77,1.16,2.77,2.48-0.78,2.49-2.77,2.49S354.91,882.41,354.91,881.08Zm4.51,0a1.74,1.74,0,1,0-1.74,1.75A1.62,1.62,0,0,0,359.42,881.08Z" transform="translate(-126.06 -862.15)"/><path class="cls-1" d="M357.68,883.77c-1.86,0-3-1-3-2.69s1.11-2.68,3-2.68,3,1,3,2.68S359.54,883.77,357.68,883.77Zm0-5c-2.32,0-2.57,1.6-2.57,2.28s0.25,2.29,2.57,2.29,2.57-1.6,2.57-2.29S360,878.8,357.68,878.8Zm0,4.23a1.95,1.95,0,1,1,1.94-1.95A1.82,1.82,0,0,1,357.68,883Zm0-3.49a1.55,1.55,0,1,0,1.54,1.54A1.42,1.42,0,0,0,357.68,879.54Z" transform="translate(-126.06 -862.15)"/><path class="cls-1" d="M366.75,883.43h-1V879.9h0L363,883.43h-1.11v-4.71h0.95v3.53h0l2.8-3.53h1.14v4.71Z" transform="translate(-126.06 -862.15)"/><path class="cls-1" d="M367,883.63H365.6v-3.18l-2.54,3.18h-1.41v-5.11H363v3.18l2.52-3.18H367v5.11Zm-1-.4h0.55v-4.3h-0.84l-2.8,3.53h-0.3v-3.53h-0.55v4.3h0.82l2.82-3.53H366v3.53Z" transform="translate(-126.06 -862.15)"/><path class="cls-1" d="M299.12,883.43h1v-4.7h-4c0,0.64-.09,2.7-0.13,3.44a0.5,0.5,0,0,1-.42.57,0.87,0.87,0,0,1-.39-0.12v0.82a2.11,2.11,0,0,0,.64.12,1,1,0,0,0,.92-0.5,5.67,5.67,0,0,0,.28-2.21l0-1.38h2.08v4Z" transform="translate(-126.06 -862.15)"/><path class="cls-1" d="M295.8,883.75a2.29,2.29,0,0,1-.69-0.13l-0.14,0v-1.31l0.3,0.17a0.68,0.68,0,0,0,.29.1c0.06,0,.2,0,0.22-0.38,0-.71.12-2.76,0.13-3.43v-0.2h4.4v5.1h-1.39v-4h-1.69l0,1.19a5.78,5.78,0,0,1-.3,2.29A1.19,1.19,0,0,1,295.8,883.75Zm-0.44-.47a1.56,1.56,0,0,0,.44.07,0.79,0.79,0,0,0,.75-0.4,5.74,5.74,0,0,0,.25-2.12l0-1.57h2.48v4h0.59v-4.3H296.3c0,0.81-.09,2.59-0.13,3.25a0.65,0.65,0,0,1-.62.76,0.75,0.75,0,0,1-.19,0v0.37Z" transform="translate(-126.06 -862.15)"/><path class="cls-1" d="M305.45,883.43h1v-4.7h-4c0,0.64-.09,2.7-0.13,3.44a0.5,0.5,0,0,1-.42.57,0.87,0.87,0,0,1-.39-0.12v0.82a2.09,2.09,0,0,0,.63.12,1,1,0,0,0,.92-0.5,5.67,5.67,0,0,0,.28-2.21l0-1.38h2.08v4Z" transform="translate(-126.06 -862.15)"/><path class="cls-1" d="M302.13,883.75a2.23,2.23,0,0,1-.69-0.13l-0.14,0v-1.31l0.3,0.17a0.67,0.67,0,0,0,.29.1c0.06,0,.2,0,0.23-0.38,0-.75.12-2.81,0.13-3.43v-0.2h4.4v5.1h-1.39v-4h-1.69l0,1.19a5.78,5.78,0,0,1-.3,2.29A1.19,1.19,0,0,1,302.13,883.75Zm-0.43-.47a1.55,1.55,0,0,0,.43.07,0.79,0.79,0,0,0,.75-0.4,5.73,5.73,0,0,0,.25-2.12l0-1.57h2.48v4h0.59v-4.3h-3.61c0,0.78-.08,2.56-0.13,3.25a0.65,0.65,0,0,1-.62.76,0.76,0.76,0,0,1-.19,0v0.37Z" transform="translate(-126.06 -862.15)"/><path class="cls-1" d="M339.82,879.46h-2.08l0,1.38a5.76,5.76,0,0,1-.28,2.21,1,1,0,0,1-.92.5,2,2,0,0,1-.63-0.12v-0.82a0.86,0.86,0,0,0,.39.12,0.5,0.5,0,0,0,.42-0.57c0-.73.12-2.8,0.13-3.44h4v4.7h-1v-4Z" transform="translate(-126.06 -862.15)"/><path class="cls-1" d="M336.5,883.75a2.19,2.19,0,0,1-.69-0.13l-0.14,0v-1.31l0.3,0.17a0.67,0.67,0,0,0,.29.1c0.06,0,.19,0,0.22-0.38,0-.73.12-2.77,0.13-3.43v-0.2H341v5.1h-1.38v-4h-1.69l0,1.19a5.75,5.75,0,0,1-.3,2.29A1.19,1.19,0,0,1,336.5,883.75Zm-0.43-.47a1.49,1.49,0,0,0,.43.07,0.79,0.79,0,0,0,.74-0.4,5.7,5.7,0,0,0,.25-2.08l0.06-1.61H340v4h0.58v-4.3H337c0,0.8-.08,2.58-0.13,3.25a0.65,0.65,0,0,1-.62.76,0.76,0.76,0,0,1-.19,0v0.37Z" transform="translate(-126.06 -862.15)"/><path class="cls-1" d="M325.75,882.6a1.54,1.54,0,0,0,.55.13,0.83,0.83,0,0,0,.78-0.61c-0.14-.27-2-3.4-2-3.4h1.23l1.32,2.54,1.36-2.54h1.18s-1.53,2.53-2.07,3.49-0.83,1.36-1.67,1.36a2.06,2.06,0,0,1-.64-0.12V882.6Z" transform="translate(-126.06 -862.15)"/><path class="cls-1" d="M326.38,883.78a2.12,2.12,0,0,1-.65-0.11l-0.14,0,0-.16v-1.15l0.27,0.1a1.37,1.37,0,0,0,.48.12,0.58,0.58,0,0,0,.55-0.4c-0.27-.46-1.39-2.31-2-3.31l-0.18-.3h1.7l1.21,2.32,1.24-2.32h1.66l-0.18.3s-1.53,2.53-2.07,3.49S327.36,883.78,326.38,883.78Zm-0.44-.47a1.56,1.56,0,0,0,.44.07c0.73,0,1-.31,1.49-1.26,0.43-.76,1.47-2.49,1.89-3.2h-0.71l-1.48,2.77-1.44-2.77h-0.75c0.48,0.8,1.75,2.89,1.87,3.11l0,0.09,0,0.09a1,1,0,0,1-1,.72,1.31,1.31,0,0,1-.35-0.05v0.43Z" transform="translate(-126.06 -862.15)"/><path class="cls-1" d="M365.5,877.41a1.24,1.24,0,0,1-2.42,0h0.37a1,1,0,0,0,1.67,0h0.37Z" transform="translate(-126.06 -862.15)"/><path class="cls-1" d="M364.29,878.56a1.2,1.2,0,0,1-1.41-1.15v-0.2h0.74l0,0.16a0.93,0.93,0,0,0,1.28,0l0-.16h0.73v0.2A1.2,1.2,0,0,1,364.29,878.56Zm-1-.95a1.16,1.16,0,0,0,2,0h0a1.29,1.29,0,0,1-2,0h0Z" transform="translate(-126.06 -862.15)"/></svg>