<svg id="Calque_1" data-name="Calque 1" xmlns="http://www.w3.org/2000/svg" viewBox="0 0 169.53 162.81"><defs><style>.cls-1{fill:#fff;}</style></defs><title>logo__wipo--ar</title><path class="cls-1" d="M643.12,441.75a1.05,1.05,0,0,1-1,1.28h-8.28a6.74,6.74,0,0,0,.16-1.93v-3.86h-2.57c-1.76,0-2.66,1-2.66,2.42V443h-9.37a5,5,0,0,0,.14-1.59v-2.11a2.18,2.18,0,0,0-2.45-2.08H615a1.64,1.64,0,0,1,.34-1.42,2.17,2.17,0,0,1,1-.13h2.22v-1.38H616a2.16,2.16,0,0,0-2.44,2.4v1.91H617c0.77,0,1.21.05,1.21,1.28v2.4a0.8,0.8,0,0,1-.76.71H605.82v-5.78h-1.38v7.41c0,1.64-.62,1.83-1.75,2.33l0.92,1.17c1.88-.84,2.21-1.89,2.21-3v-0.73h36.4a2.21,2.21,0,0,0,2.28-2.45v-7.65h-1.38v7.43Zm-10.49.44a0.69,0.69,0,0,1-.57.84h-1.81v-3.5a0.76,0.76,0,0,1,.83-0.89h1.55v3.56Z" transform="translate(-553.14 -285.38)"/><polygon class="cls-1" points="96.49 159.8 97.91 159.05 97.91 148.94 96.49 148.94 96.49 159.8"/><path class="cls-1" d="M596.82,444.41c1.8,0,2.71-.75,2.71-2.58v-4.59h-1.39v4.66a1,1,0,0,1-1,1.12h-8.64v-5.78h-2.63a2.31,2.31,0,0,0-2.58,2.43V442c0,2,1.44,2.38,3.16,2.38l0.63-.88h0v0.88h9.73ZM585.68,443a0.87,0.87,0,0,1-1-1v-2.57a0.74,0.74,0,0,1,.75-0.79h1.64V443h-1.42Z" transform="translate(-553.14 -285.38)"/><circle class="cls-1" cx="34.24" cy="149.78" r="0.85"/><circle class="cls-1" cx="32.14" cy="149.78" r="0.85"/><circle class="cls-1" cx="45.65" cy="161.96" r="0.85"/><circle class="cls-1" cx="43.54" cy="161.96" r="0.85"/><circle class="cls-1" cx="78.3" cy="149.78" r="0.85"/><circle class="cls-1" cx="106.76" cy="149.78" r="0.85"/><circle class="cls-1" cx="104.66" cy="149.78" r="0.85"/><circle class="cls-1" cx="117.73" cy="161.96" r="0.85"/><circle class="cls-1" cx="115.63" cy="161.96" r="0.85"/><path class="cls-1" d="M721.28,434.32v7.43a1.05,1.05,0,0,1-1,1.28h-7.12v-8.71h-1.38V443h-6.62v-3.81a2.64,2.64,0,0,0-5.16,0V443h-7.23v-8.71h-1.42V443h-7.8a5.11,5.11,0,0,0,.13-1.59v-2.11a2.18,2.18,0,0,0-2.45-2.08h-2.12a1.64,1.64,0,0,1,.34-1.42,2.17,2.17,0,0,1,1-.13h2.22v-1.38h-2.56a2.15,2.15,0,0,0-2.44,2.4v1.91h3.4c0.77,0,1.21.05,1.21,1.28v2.4a0.8,0.8,0,0,1-.76.71h-10v-5.78h-1.38V443h-8.87v-5.78h-2.64a2.31,2.31,0,0,0-2.58,2.43V442c0,2,1.44,2.38,3.16,2.38l0.63-.88h0v0.88H700a2.7,2.7,0,0,0,5.11,0h15.24a2.21,2.21,0,0,0,2.28-2.45v-7.65h-1.38ZM660,443h-1.42a0.87,0.87,0,0,1-1-1v-2.57a0.75,0.75,0,0,1,.76-0.79H660V443Zm42.62,1.89c-1.34,0-1.18-.81-1.18-2.06v-2.32c0-1.25-.16-2.06,1.18-2.06s1.25,0.68,1.25,2v2.4C703.83,444.24,703.94,444.92,702.57,444.92Z" transform="translate(-553.14 -285.38)"/><path class="cls-1" d="M645.64,423.55a1.08,1.08,0,0,1-1.15,1.21h-7.27a1.26,1.26,0,0,1-.6-0.17l2.83-2.32a3.24,3.24,0,0,0-3.38-3.38,3.2,3.2,0,0,0-3.38,3.38c0.87,0.74,1.92,1.6,2.81,2.33a1.26,1.26,0,0,1-.64.16h-7.94a1.08,1.08,0,0,1-1.15-1.21v-7.44h-0.67v7.35c0,1.1.38,2,1.85,2h8.16a1.46,1.46,0,0,0,.94-0.35,1.3,1.3,0,0,0,.89.35h7.53c1.47,0,1.85-.9,1.85-2v-7.35h-0.67v7.44Zm-9.57.54-2.58-2a2.58,2.58,0,0,1,5.16,0C637.66,422.83,636.85,423.48,636.06,424.09Z" transform="translate(-553.14 -285.38)"/><polygon class="cls-1" points="168.82 130.74 168.82 140.53 169.53 140.11 169.53 130.74 168.82 130.74"/><polygon class="cls-1" points="98.87 140.53 99.58 140.1 99.58 130.74 98.87 130.74 98.87 140.53"/><path class="cls-1" d="M619.07,423.55a1.08,1.08,0,0,1-1.15,1.21h-7.16v-3.92c0-1.2-1-2-2.39-2s-2.39.76-2.39,2v3.92h-7.73V419h-0.71v5.79h-9.47V419h-2.94a1.83,1.83,0,0,0-1.87,2v2.58a1.86,1.86,0,0,0,1.89,1.95h1.7l0.5-.38v0.38H606c0.09,1.09,1,1.78,2.38,1.78a2.11,2.11,0,0,0,2.38-1.78h7.15c1.47,0,1.85-.9,1.85-2v-7.35h-0.67v7.44Zm-31.72,1.21h-2.16a1.18,1.18,0,0,1-1.19-1.38v-2.25a1.19,1.19,0,0,1,1.21-1.44h2.13v5.07Zm22.69,0c0,1-.24,1.74-1.68,1.74s-1.68-.72-1.68-1.74v-3.44c0-1,.24-1.74,1.68-1.74s1.68,0.72,1.68,1.74v3.44Z" transform="translate(-553.14 -285.38)"/><circle class="cls-1" cx="33.86" cy="131.21" r="0.47"/><circle class="cls-1" cx="32.2" cy="131.21" r="0.47"/><circle class="cls-1" cx="108.72" cy="131.21" r="0.47"/><circle class="cls-1" cx="107.06" cy="131.21" r="0.47"/><circle class="cls-1" cx="133.53" cy="131.21" r="0.47"/><circle class="cls-1" cx="142.98" cy="131.21" r="0.47"/><path class="cls-1" d="M715.78,423.56a1.08,1.08,0,0,1-1.15,1.2h-5.91v-3.92c0-1.2-1-2-2.39-2s-2.39.76-2.39,2v3.92h-7.39V419h-0.71v5.79h-7v-4.18a1.85,1.85,0,0,0-2.41-1.64c-0.64.2-2.77,0.91-3.81,1.29a1,1,0,0,0-.33.23h0v-4.34h-0.71v8.65h-6.69v-3.92c0-1.2-1-2-2.39-2s-2.39.76-2.39,2v3.92h-7V419h-2.95a1.83,1.83,0,0,0-1.87,2v2.58a1.86,1.86,0,0,0,1.88,1.95h1.71l0.5-.38v0.38H670c0.09,1.1,1,1.79,2.38,1.79a2.11,2.11,0,0,0,2.38-1.79h29.13c0.09,1.1,1,1.79,2.38,1.79a2.12,2.12,0,0,0,2.38-1.79h5.89a1.69,1.69,0,0,0,1.85-2v-7.36h-0.67v7.44Zm-53.43,1.2h-2.17a1.18,1.18,0,0,1-1.19-1.37v-2.26a1.2,1.2,0,0,1,1.22-1.44h2.14v5.07Zm11.76,0c0,1-.24,1.74-1.68,1.74s-1.68-.72-1.68-1.74v-3.44c0-1,.25-1.74,1.68-1.74s1.68,0.72,1.68,1.74v3.44Zm14,0h-5.87v-2.91a0.89,0.89,0,0,1,.62-0.95c0.5-.2,3.06-1.06,3.59-1.22a1.16,1.16,0,0,1,1.66,1.18v3.9Zm19.91,0c0,1-.24,1.74-1.68,1.74s-1.68-.72-1.68-1.74v-3.45c0-1,.24-1.74,1.68-1.74s1.68,0.73,1.68,1.74v3.45Z" transform="translate(-553.14 -285.38)"/><circle class="cls-1" cx="43.98" cy="142.35" r="0.47"/><circle class="cls-1" cx="42.32" cy="142.35" r="0.47"/><path class="cls-1" d="M553.14,391.37h4.33L560.55,403h0l3.26-11.61h4.33L571.45,403h0l3.08-11.61h4.33l-5,15.94h-4.47L566,396h0l-3.35,11.34h-4.46Z" transform="translate(-553.14 -285.38)"/><path class="cls-1" d="M583.26,391.37h4.33v15.94h-4.33V391.37Z" transform="translate(-553.14 -285.38)"/><path class="cls-1" d="M594,391.37h10.72c4.53,0,5.63,2.7,5.63,4.85,0,3.39-1.79,5.4-5.29,5.4h-6.72v5.69H594V391.37Zm4.33,7.35h4.64c1.34,0,2.9,0,2.9-2.19s-1.27-2.25-2.5-2.25h-5v4.44Z" transform="translate(-553.14 -285.38)"/><path class="cls-1" d="M624.73,390.92c8.58,0,9.91,5.09,9.91,8.42s-1.34,8.42-9.91,8.42-9.91-5.09-9.91-8.42S616.16,390.92,624.73,390.92Zm0,13.8c3.93,0,5.31-2.9,5.31-5.38s-1.38-5.38-5.31-5.38-5.31,2.9-5.31,5.38S620.8,404.72,624.73,404.72Z" transform="translate(-553.14 -285.38)"/><path class="cls-1" d="M633.27,306.5a11.39,11.39,0,0,0-.79-1,8.23,8.23,0,0,0,2.07-5.17,7.23,7.23,0,0,0-1.21-3.9c-2.69-4.27-9.73-8-19.64-11v1.44c10.31,2.63,17.27,6,19.5,9.7a5.08,5.08,0,0,1,.77,2.62c0,1.74-1,3.42-2.74,5-3.49-3.26-9.56-6.18-17.54-8.62V297c8.07,2.05,14.07,4.54,17.38,7.32a30.55,30.55,0,0,1-8.35,4.75,77.52,77.52,0,0,0-9-3.34v1.44q4.34,1.11,7.86,2.38c-9,3.48-22.33,6.33-38.32,8.19v4.76a175.13,175.13,0,0,0,30.47-6.58v1.43q4.34,1.11,7.86,2.37c-9,3.48-22.33,6.33-38.32,8.19v4.76a175.49,175.49,0,0,0,30.47-6.58v1.42q4.35,1.11,7.86,2.38c-9,3.48-22.33,6.33-38.32,8.19v4.76a175.21,175.21,0,0,0,30.47-6.58v1.42q4.34,1.11,7.86,2.38c-9,3.48-22.33,6.33-38.32,8.19V353a175.41,175.41,0,0,0,30.47-6.58v1.42q4.35,1.11,7.86,2.38c-9,3.48-22.33,6.33-38.32,8.19v4.76c18.26-2.48,33.13-6.52,42.08-11.45a25.12,25.12,0,0,1,5.77,3.44c-6.68,5.85-24.42,10.7-47.84,13.42v4.76c24.63-3.34,43.09-9.52,49.17-16.88a8.1,8.1,0,0,1,.75,1,5.11,5.11,0,0,1,.82,2.7c0,8.12-20.7,15.1-50.74,18.59v4.76c30.34-4.12,51.32-12.55,51.32-22.17a7.28,7.28,0,0,0-1.29-4,11.06,11.06,0,0,0-.78-1,8.23,8.23,0,0,0,2.07-5.17,7.25,7.25,0,0,0-1.28-4,11.5,11.5,0,0,0-.78-1,8.24,8.24,0,0,0,2.07-5.17,7.25,7.25,0,0,0-1.28-4,11.31,11.31,0,0,0-.79-1,8.23,8.23,0,0,0,2.07-5.17,7.27,7.27,0,0,0-1.28-4,11.4,11.4,0,0,0-.79-1,8.24,8.24,0,0,0,2.07-5.17,7.28,7.28,0,0,0-1.28-4,11.5,11.5,0,0,0-.78-1,8.24,8.24,0,0,0,2.07-5.17A7.26,7.26,0,0,0,633.27,306.5Zm-19.56,9.39A69.12,69.12,0,0,0,625.29,311a25,25,0,0,1,5.77,3.44,30.47,30.47,0,0,1-8.34,4.75A77.2,77.2,0,0,0,613.71,315.89Zm0,10.17a69.26,69.26,0,0,0,11.58-4.85,25,25,0,0,1,5.77,3.43,30.5,30.5,0,0,1-8.34,4.75A77.15,77.15,0,0,0,613.72,326.06Zm0,10.17a69.27,69.27,0,0,0,11.58-4.85,25,25,0,0,1,5.77,3.44,30.59,30.59,0,0,1-8.34,4.75A77.46,77.46,0,0,0,613.71,336.23Zm0,10.17a69,69,0,0,0,11.58-4.86,25,25,0,0,1,5.77,3.44,30.46,30.46,0,0,1-8.34,4.75A77.77,77.77,0,0,0,613.71,346.4Zm19.43,0.88A5.09,5.09,0,0,1,634,350c0,1.74-1,3.42-2.74,5a25.44,25.44,0,0,0-5.24-3.68,23.45,23.45,0,0,0,6.41-5.05A8,8,0,0,1,633.14,347.28Zm0-10.16a5.1,5.1,0,0,1,.81,2.69c0,1.74-1,3.42-2.74,5a25.42,25.42,0,0,0-5.24-3.68,23.44,23.44,0,0,0,6.41-5.05A8,8,0,0,1,633.15,337.13Zm0-10.18a5.11,5.11,0,0,1,.81,2.69c0,1.74-1,3.42-2.74,5A25.44,25.44,0,0,0,626,331a23.47,23.47,0,0,0,6.41-5.05A8,8,0,0,1,633.14,326.95Zm0-10.17a5.08,5.08,0,0,1,.82,2.69c0,1.74-1,3.42-2.74,5a25.46,25.46,0,0,0-5.24-3.68,23.45,23.45,0,0,0,6.41-5.05A8.16,8.16,0,0,1,633.14,316.78Zm-1.92-2.45a25.49,25.49,0,0,0-5.24-3.68,23.45,23.45,0,0,0,6.41-5.05,8,8,0,0,1,.76,1,5.11,5.11,0,0,1,.81,2.68C634,311,633,312.72,631.22,314.33Z" transform="translate(-553.14 -285.38)"/></svg>