<svg id="Layer_1" data-name="Layer 1" xmlns="http://www.w3.org/2000/svg" viewBox="0 0 93.54 93.54"><defs><style>.cls-1{fill:#324866;}.cls-1,.cls-2{fill-rule:evenodd;}.cls-2{fill:#8d98ad;}</style></defs><title>our community</title><path class="cls-1" d="M39,42.39C40,46.81,43.11,50,46.74,50s6.8-3.29,7.81-7.81a7.23,7.23,0,0,0,2.21-4.67c.23-2-.15-3.1-.91-3.34A13.13,13.13,0,0,0,56,32.53c0-6.06-1.91-11.15-9.21-11-7.48.19-9.22,4.91-9.22,11a12.38,12.38,0,0,0,.12,1.63c-.93.09-1.41,1.17-1.15,3.38A6.76,6.76,0,0,0,39,42.39Z"/><path class="cls-1" d="M61,48.66l-5-3.3c-1.67,3-4.84,6.3-9.2,6.39s-7.42-3.21-9.09-6.15c0,0-4,2.28-5.16,3.06s-6.69,9.62-7.16,19.76c0,0,1,3.18,20.88,3.56h0c20.32-.34,21.93-3.57,21.93-3.57C67.7,58.28,62.19,49.43,61,48.66Z"/><path class="cls-2" d="M85.16,45.06l-4.64-3c-1.54,2.73-4.45,5.79-8.46,5.88s-6.82-3-8.36-5.66c0,0-2.94,1.1-3.53,2.06a26.78,26.78,0,0,1,10.22,19.6c18.68-.31,21.35-3.28,21.35-3.28C91.32,51.3,86.25,45.77,85.16,45.06Z"/><path class="cls-2" d="M65.44,39.5C66.34,43.27,69,46,72.07,46s5.8-2.81,6.66-6.67a6.12,6.12,0,0,0,1.88-4c.2-1.72-.12-2.65-.77-2.85a11.19,11.19,0,0,0,.1-1.43c0-5.17-1.63-9.51-7.86-9.36s-7.86,4.19-7.86,9.36a12.83,12.83,0,0,0,.09,1.4c-.78.07-1.2,1-1,2.88A5.82,5.82,0,0,0,65.44,39.5Z"/><path class="cls-2" d="M29.84,42.25C28.3,45,25.35,48,21.48,47.91S14.56,44.76,13,42l-4.64,3c-1.09.71-6.15,6.24-6.58,15.57,0,0,2.77,3,21.45,3.28,2.1-14.47,10.12-19.6,10.12-19.6C32.78,43.35,29.84,42.25,29.84,42.25Z"/><path class="cls-2" d="M14.81,39.34C15.67,43.2,18.33,46,21.48,46s5.73-2.74,6.62-6.51a5.82,5.82,0,0,0,2.11-4.14c.22-1.89-.19-2.81-1-2.88a10.73,10.73,0,0,0,.1-1.4c0-5.17-1.49-9.2-7.87-9.36s-7.86,4.19-7.86,9.36a11.19,11.19,0,0,0,.1,1.43c-.65.2-1,1.13-.77,2.85A6.17,6.17,0,0,0,14.81,39.34Z"/></svg>