<svg id="Calque_1" data-name="Calque 1" xmlns="http://www.w3.org/2000/svg" viewBox="0 0 196.8 16.85" preserveAspectRatio="xMaxYMax"><defs><style>.cls-1{fill:#72899d;}.cls-2{fill:#a2192f;}</style></defs><title>promo-madrid</title><path class="cls-1" d="M1015,302.44H1016v16.73H1015V302.44Z" transform="translate(-924.53 -302.32)"/><path class="cls-1" d="M924.53,302.76h4.33l3.08,11.61h0l3.26-11.61h4.33l3.26,11.61h0l3.08-11.61h4.33l-5,15.94h-4.47l-3.35-11.34h0L934,318.7h-4.47Z" transform="translate(-924.53 -302.32)"/><path class="cls-1" d="M954.61,302.76h4.33V318.7h-4.33V302.76Z" transform="translate(-924.53 -302.32)"/><path class="cls-1" d="M965.32,302.76H976c4.54,0,5.62,2.7,5.62,4.84,0,3.39-1.78,5.4-5.29,5.4h-6.72v5.69h-4.33V302.76Zm4.33,7.34h4.64c1.34,0,2.91,0,2.91-2.18s-1.27-2.25-2.5-2.25h-5v4.44Z" transform="translate(-924.53 -302.32)"/><path class="cls-1" d="M996.11,302.32c8.57,0,9.91,5.09,9.91,8.41s-1.34,8.41-9.91,8.41-9.9-5.09-9.9-8.41S987.54,302.32,996.11,302.32Zm0,13.79c3.93,0,5.31-2.9,5.31-5.38s-1.39-5.37-5.31-5.37-5.31,2.9-5.31,5.37S992.19,316.11,996.11,316.11Z" transform="translate(-924.53 -302.32)"/><path class="cls-2" d="M1027.36,302.76h3.74l4.19,12.51h0l4.08-12.51h3.7v16h-2.53V306.41h0l-4.21,12.32h-2.19l-4.21-12.32h0v12.32h-2.53v-16Z" transform="translate(-924.53 -302.32)"/><path class="cls-2" d="M1052.75,302.76h2.83l5.84,16h-2.85l-1.42-4.23h-6.06l-1.42,4.23h-2.74Zm-0.94,9.62h4.63l-2.27-6.86h-0.06Z" transform="translate(-924.53 -302.32)"/><path class="cls-2" d="M1065.23,302.76h6.29c4.67,0,6.69,3.58,6.69,8s-2,8-6.69,8h-6.29v-16Zm2.66,13.69h2.61c4.16,0,5.06-2.5,5.06-5.7s-0.89-5.7-5.06-5.7h-2.61v11.41Z" transform="translate(-924.53 -302.32)"/><path class="cls-2" d="M1082.91,302.76h7.24c3.31,0,5,1.61,5,4.32,0,3.06-2,3.85-2.51,4v0c0.91,0.13,2.25.85,2.25,3.37,0,1.86.25,3.56,0.83,4.21h-2.85a4.66,4.66,0,0,1-.4-2.35c0-2.93-.57-4.23-3-4.23h-3.91v6.58h-2.66v-16Zm2.66,7.27h4.36a2.3,2.3,0,0,0,2.59-2.55c0-2-1.25-2.44-2.63-2.44h-4.31v5Z" transform="translate(-924.53 -302.32)"/><path class="cls-2" d="M1100.24,302.76h2.66v16h-2.66v-16Z" transform="translate(-924.53 -302.32)"/><path class="cls-2" d="M1108.34,302.76h6.29c4.67,0,6.69,3.58,6.69,8s-2,8-6.69,8h-6.29v-16Zm2.65,13.69h2.62c4.16,0,5.05-2.5,5.05-5.7s-0.89-5.7-5.05-5.7H1111v11.41Z" transform="translate(-924.53 -302.32)"/></svg>
