<svg id="Calque_1" data-name="Calque 1" xmlns="http://www.w3.org/2000/svg" viewBox="0 0 183.56 16.85" preserveAspectRatio="xMinYMin"><defs><style>.cls-1{fill:#72899d;}.cls-2{fill:#a5182f;}</style></defs><title>promo-hague</title><path class="cls-1" d="M1015,228.85H1016v16.73H1015V228.85Z" transform="translate(-924.53 -228.73)"/><path class="cls-1" d="M924.53,229.17h4.33l3.08,11.61h0l3.26-11.61h4.33l3.26,11.61h0l3.08-11.61h4.33l-5,15.94h-4.46l-3.35-11.34h0L934,245.1h-4.46Z" transform="translate(-924.53 -228.73)"/><path class="cls-1" d="M954.61,229.17h4.33V245.1h-4.33V229.17Z" transform="translate(-924.53 -228.73)"/><path class="cls-1" d="M965.32,229.17H976c4.53,0,5.62,2.7,5.62,4.84,0,3.39-1.78,5.4-5.29,5.4h-6.72v5.69h-4.33V229.17Zm4.33,7.34h4.64c1.34,0,2.9,0,2.9-2.18s-1.27-2.25-2.5-2.25h-5v4.44Z" transform="translate(-924.53 -228.73)"/><path class="cls-1" d="M996.12,228.73c8.57,0,9.91,5.09,9.91,8.41s-1.34,8.42-9.91,8.42-9.91-5.09-9.91-8.42S987.55,228.73,996.12,228.73Zm0,13.79c3.92,0,5.31-2.9,5.31-5.38s-1.39-5.38-5.31-5.38-5.31,2.9-5.31,5.38S992.19,242.51,996.12,242.51Z" transform="translate(-924.53 -228.73)"/><path class="cls-2" d="M1027.34,229.18H1030v6.35h6.9v-6.35h2.66v16h-2.66v-7.2H1030v7.2h-2.66v-16Z" transform="translate(-924.53 -228.73)"/><path class="cls-2" d="M1049.19,229.18H1052l5.85,16H1055l-1.42-4.22h-6.05l-1.42,4.22h-2.74Zm-0.93,9.62h4.63l-2.27-6.87h-0.07Z" transform="translate(-924.53 -228.73)"/><path class="cls-2" d="M1074.22,245.14h-1.7l-0.4-1.88a5.36,5.36,0,0,1-4.57,2.26c-4.55,0-7.27-3.8-7.27-8.37s2.72-8.36,7.27-8.36c3.31,0,6.1,1.86,6.5,5.46h-2.6a3.66,3.66,0,0,0-3.9-3.18c-3.25,0-4.61,3-4.61,6.08s1.36,6.09,4.61,6.09c2.72,0,4.21-1.68,4.25-4.38h-4v-2.12h6.46v8.41Z" transform="translate(-924.53 -228.73)"/><path class="cls-2" d="M1079.21,229.18h2.65v9.3c0,2.15.13,4.63,3.57,4.63s3.57-2.48,3.57-4.63v-9.3h2.66V239.4c0,4.09-2.48,6.13-6.23,6.13s-6.22-2-6.22-6.13V229.18Z" transform="translate(-924.53 -228.73)"/><path class="cls-2" d="M1097,229.18h10.92v2.41h-8.26v4.18h7.65v2.28h-7.65v4.67h8.41v2.42H1097v-16Z" transform="translate(-924.53 -228.73)"/></svg>
