<svg id="Calque_1" data-name="Calque 1" xmlns="http://www.w3.org/2000/svg" viewBox="0 0 157.49 16.84" preserveAspectRatio="xMaxYMax"><defs><style>.cls-1{fill:#72899d;}.cls-2{fill:#a2192f;}</style></defs><title>promo-pct</title><path class="cls-1" d="M1014.94,341.07H1016v16.72h-1.06V341.07Z" transform="translate(-924.53 -340.95)"/><path class="cls-1" d="M924.53,341.39h4.33l3.08,11.6h0l3.26-11.6h4.33l3.25,11.6h0l3.08-11.6h4.33l-5,15.93h-4.46L937.41,346h0L934,357.32h-4.46Z" transform="translate(-924.53 -340.95)"/><path class="cls-1" d="M954.59,341.39h4.33v15.93h-4.33V341.39Z" transform="translate(-924.53 -340.95)"/><path class="cls-1" d="M965.3,341.39H976c4.53,0,5.62,2.7,5.62,4.84,0,3.39-1.78,5.4-5.28,5.4h-6.71v5.69H965.3V341.39Zm4.33,7.34h4.64c1.34,0,2.9,0,2.9-2.18s-1.27-2.25-2.5-2.25h-5v4.44Z" transform="translate(-924.53 -340.95)"/><path class="cls-1" d="M996.08,340.95c8.57,0,9.91,5.09,9.91,8.41s-1.34,8.41-9.91,8.41-9.9-5.09-9.9-8.41S987.51,340.95,996.08,340.95Zm0,13.78c3.93,0,5.31-2.9,5.31-5.37S1000,344,996.08,344s-5.31,2.9-5.31,5.37S992.15,354.73,996.08,354.73Z" transform="translate(-924.53 -340.95)"/><path class="cls-2" d="M1027.62,341.34h7.75c5,0,6,3,6,4.94s-1,4.92-6,4.89h-4.67v6.13h-3.08v-16Zm3.08,7.56h4.5c1.38,0,3.08-.63,3.08-2.64s-1.4-2.64-3-2.64h-4.55v5.28Z" transform="translate(-924.53 -340.95)"/><path class="cls-2" d="M1059.73,346.42a4.12,4.12,0,0,0-4.37-3.17c-3.76,0-5.34,3-5.34,6.08s1.57,6.08,5.34,6.08a4.31,4.31,0,0,0,4.47-4.18h3c-0.25,3.82-3.22,6.46-7.47,6.46a8.36,8.36,0,1,1,0-16.72c4,0,7.08,2,7.45,5.46h-3.08Z" transform="translate(-924.53 -340.95)"/><path class="cls-2" d="M1067.8,341.34H1082v2.41h-5.58V357.3h-3.08V343.76h-5.56v-2.41Z" transform="translate(-924.53 -340.95)"/></svg>
