<svg id="Calque_1" data-name="Calque 1" xmlns="http://www.w3.org/2000/svg" viewBox="0 0 157.47 16.84" preserveAspectRatio="xMaxYMax"><defs><style>.cls-1{fill:#72899d;}.cls-2{fill:#a2192f;}</style></defs><title>promo-adr</title><path class="cls-1" d="M1014.93,192.89H1016v16.72h-1.06V192.89Z" transform="translate(-924.53 -192.77)"/><path class="cls-1" d="M924.53,193.22h4.33l3.08,11.59h0l3.26-11.59h4.33l3.25,11.59h0l3.08-11.59h4.33l-5,15.92h-4.46l-3.35-11.33h0L934,209.14h-4.46Z" transform="translate(-924.53 -192.77)"/><path class="cls-1" d="M954.59,193.22h4.32v15.92h-4.32V193.22Z" transform="translate(-924.53 -192.77)"/><path class="cls-1" d="M965.29,193.22H976c4.53,0,5.62,2.7,5.62,4.84,0,3.39-1.78,5.4-5.28,5.4h-6.71v5.69h-4.33V193.22Zm4.33,7.34h4.64c1.34,0,2.9,0,2.9-2.19s-1.27-2.25-2.5-2.25h-5v4.43Z" transform="translate(-924.53 -192.77)"/><path class="cls-1" d="M996.07,192.77c8.56,0,9.9,5.08,9.9,8.41s-1.34,8.41-9.9,8.41-9.9-5.09-9.9-8.41S987.51,192.77,996.07,192.77Zm0,13.78c3.93,0,5.31-2.9,5.31-5.37s-1.38-5.37-5.31-5.37-5.31,2.9-5.31,5.37S992.15,206.55,996.07,206.55Z" transform="translate(-924.53 -192.77)"/><path class="cls-2" d="M1032.29,193.22h3.27l6.76,16H1039l-1.65-4.22h-7l-1.65,4.22h-3.17Zm-1.08,9.61h5.36l-2.63-6.86h-0.07Z" transform="translate(-924.53 -192.77)"/><path class="cls-2" d="M1046.71,193.22H1054c5.41,0,7.75,3.57,7.75,8s-2.34,8-7.75,8h-7.28v-16Zm3.07,13.68h3c4.82,0,5.85-2.51,5.85-5.71s-1-5.7-5.85-5.7h-3v11.4Z" transform="translate(-924.53 -192.77)"/><path class="cls-2" d="M1067.14,193.22h8.39c3.83,0,5.8,1.61,5.8,4.31a4,4,0,0,1-2.9,4v0c1.06,0.13,2.61.85,2.61,3.37,0,1.86.29,3.55,1,4.2h-3.3a4.11,4.11,0,0,1-.47-2.35c0-2.93-.67-4.23-3.49-4.23h-4.52v6.57h-3.08v-16Zm3.08,7.26h5c1.94,0,3-.87,3-2.55,0-2-1.45-2.44-3-2.44h-5v5Z" transform="translate(-924.53 -192.77)"/></svg>
