<?xml version="1.0" encoding="UTF-8" standalone="no"?>
<svg
   xmlns:dc="http://purl.org/dc/elements/1.1/"
   xmlns:cc="http://creativecommons.org/ns#"
   xmlns:rdf="http://www.w3.org/1999/02/22-rdf-syntax-ns#"
   xmlns:svg="http://www.w3.org/2000/svg"
   xmlns="http://www.w3.org/2000/svg"
   xmlns:xlink="http://www.w3.org/1999/xlink"
   xmlns:sodipodi="http://sodipodi.sourceforge.net/DTD/sodipodi-0.dtd"
   xmlns:inkscape="http://www.inkscape.org/namespaces/inkscape"
   width="78"
   height="32"
   viewBox="0 0 78 32"
   version="1.1"
   id="svg21"
   sodipodi:docname="prv-logo-normal-sv.svg"
   inkscape:version="0.92.3 (2405546, 2018-03-11)">
  <metadata
     id="metadata25">
    <rdf:RDF>
      <cc:Work
         rdf:about="">
        <dc:format>image/svg+xml</dc:format>
        <dc:type
           rdf:resource="http://purl.org/dc/dcmitype/StillImage" />
        <dc:title>PRV_Logo_Svenska</dc:title>
      </cc:Work>
    </rdf:RDF>
  </metadata>
  <sodipodi:namedview
     pagecolor="#ffffff"
     bordercolor="#666666"
     borderopacity="1"
     objecttolerance="10"
     gridtolerance="10"
     guidetolerance="10"
     inkscape:pageopacity="0"
     inkscape:pageshadow="2"
     inkscape:window-width="1856"
     inkscape:window-height="1057"
     id="namedview23"
     showgrid="false"
     fit-margin-top="0"
     fit-margin-left="0"
     fit-margin-right="0"
     fit-margin-bottom="0"
     inkscape:zoom="3.7051282"
     inkscape:cx="39"
     inkscape:cy="4"
     inkscape:window-x="56"
     inkscape:window-y="-8"
     inkscape:window-maximized="1"
     inkscape:current-layer="PRV_Logo_Svenska" />
  <!-- Generator: Sketch 50.2 (55047) - http://www.bohemiancoding.com/sketch -->
  <title
     id="title2">PRV_Logo_Svenska</title>
  <desc
     id="desc4">Created with Sketch.</desc>
  <defs
     id="defs7">
    <path
       d="m 11.756522,0.07619048 c 6.028985,0 10.852174,2.28571432 10.852174,8.22857142 0,5.4095241 -5.2,8.8380951 -10.475363,8.8380951 -1.130434,0 -1.808695,-0.152381 -2.8637678,-0.685714 3.9942028,-0.228572 7.3855068,-2.895238 7.3855068,-7.4666668 0,-4.1142857 -2.185507,-5.7142857 -5.953623,-5.7142857 -1.1304345,0 -1.4318838,0.1523809 -2.4869562,0.3809524 V 24.914286 c 0,2.666666 -0.075362,4.495238 2.4115942,5.942857 v 0.152381 H 0 V 30.857143 C 2.4115942,30.019048 2.1101449,26.514286 2.1101449,24.380952 V 6.6285714 c 0,-2.1333333 0.3014493,-5.5619047 -2.03478258,-6.47619045 V 0 H 11.756522 Z m 25.623188,0 c 6.255073,0 9.872464,3.50476192 9.872464,7.77142852 0,4.190476 -3.014493,7.238095 -6.857971,8.152381 l 6.556522,8.380952 c 1.95942,2.361905 5.049275,5.104762 7.762318,6.780953 h -5.802898 c -2.486957,0 -4.371015,-0.838096 -5.802899,-2.514286 0,0 -1.356521,-1.52381 -3.617391,-4.571429 -2.185507,-3.047619 -6.17971,-8.990476 -6.17971,-8.990476 3.768116,-0.533333 7.686956,-2.285714 7.686956,-6.7809521 0,-3.4285714 -2.863768,-5.4095238 -6.028985,-5.2571428 C 33.913043,3.1238095 33.46087,3.2 32.330435,3.4285714 V 24.533333 c 0,2.133334 -0.30145,5.638096 2.110145,6.476191 v 0.152381 H 24.191304 v -0.152381 c 2.411595,-0.838095 2.034783,-4.342857 2.034783,-6.476191 V 6.7809524 c 0,-2.1333333 0.301449,-5.6380953 -2.034783,-6.47619049 V 0.15238095 H 37.37971 Z M 71.142029,8.6095238 C 72.423188,5.2571429 74.005797,1.3714286 71.066667,0.22857143 V 0.07619048 H 78 L 66.017391,32 c -3.768116,-1.6 -6.17971,-1.980952 -7.536232,-5.714286 L 51.397101,7.0095238 C 50.492754,4.5714286 49.814493,1.9047619 47.77971,0.22857143 V 0.07619048 h 8.289855 l -0.07536,0.53333333 c 0,1.06666669 0.904348,3.35238099 1.281159,4.41904759 L 64.66087,25.523809 Z"
       id="path-1"
       inkscape:connector-curvature="0" />
  </defs>
  <g
     id="20180430-–-Desktop-&amp;-mobil-–-Design-3"
     style="fill:none;fill-rule:evenodd;stroke:none;stroke-width:1">
    <g
       id="PRV.se-–-Cheat-Sheet"
       transform="translate(-135,-7178)">
      <g
         id="PRV_Logo_Svenska"
         transform="translate(135,7178)">
        <mask
           id="mask-2"
           fill="white">
          <use
             xlink:href="#path-1"
             id="use14"
             x="0"
             y="0"
             width="100%"
             height="100%" />
        </mask>
        <use
           id="Shape"
           xlink:href="#path-1"
           style="fill:#99042e;fill-rule:nonzero"
           x="0"
           y="0"
           width="100%"
           height="100%" />
      </g>
    </g>
  </g>
</svg>
