<svg id="Layer_1" data-name="Layer 1" xmlns="http://www.w3.org/2000/svg" viewBox="0 0 99.21 99.21"><defs><style>.cls-1{fill:#8d98ad;}.cls-2{fill:none;stroke:#8d98ad;stroke-linecap:round;stroke-linejoin:round;stroke-width:7px;}</style></defs><title>upcoming events_d</title><path class="cls-1" d="M87.4,16.36H11.82a7.08,7.08,0,0,0-7.09,7.09V36.88h0V83.83a8.9,8.9,0,0,0,8.89,8.9h72a8.91,8.91,0,0,0,8.9-8.9V23.45A7.09,7.09,0,0,0,87.4,16.36Zm2.8,67.47a4.62,4.62,0,0,1-4.61,4.61h-72A4.61,4.61,0,0,1,9,83.83V39H90.2Z"/><line class="cls-2" x1="26.35" y1="64.06" x2="69.59" y2="64.06"/><polyline class="cls-2" points="56.53 49.74 70.85 64.06 56.53 78.38"/><rect class="cls-1" x="25.02" y="6.48" width="7.01" height="19.73" rx="3.11"/><rect class="cls-1" x="67.19" y="6.48" width="7.01" height="19.73" rx="3.11"/></svg>